<mxfile host="app.diagrams.net" agent="Mozilla/5.0 (Windows NT 10.0; Win64; x64) AppleWebKit/537.36 (KHTML, like Gecko) Chrome/131.0.0.0 Safari/537.36 Edg/131.0.0.0" version="26.0.2">
  <diagram name="Halaman-1" id="1PYJG4v1JKLqoh0rVrXF">
    <mxGraphModel dx="1893" dy="2951" grid="1" gridSize="10" guides="1" tooltips="1" connect="1" arrows="1" fold="1" page="1" pageScale="1" pageWidth="827" pageHeight="1169" math="0" shadow="0">
      <root>
        <mxCell id="0" />
        <mxCell id="1" parent="0" />
        <UserObject label="" plantUmlData="{&#xa;  &quot;data&quot;: &quot;@startmindmap\n* Sistem Informasi Sumber Daya Manusia (SISDM)\n** Pengertian\n*** Menyediakan informasi untuk manajemen SDM (HRIS)\n*** Mendukung aktivitas MSDM seperti perencanaan, perekrutan, kompensasi, dll.\n** Karakteristik\n*** Tepat waktu (Timely)\n*** Akurat (Accurate)\n*** Ringkas (Concise)\n*** Relevan (Relevant)\n*** Lengkap (Complete)\n** Tujuan\n*** Meningkatkan efisiensi\n*** Mendukung perencanaan SDM strategis\n** Fungsi\n*** Staffing Employment\n**** Perencanaan, penarikan, seleksi SDM\n*** Performance Evaluation\n**** Evaluasi kinerja oleh manajer dan HR\n*** Compensation\n**** Gaji, bonus, manfaat tambahan\n*** Training and Development\n**** Program pelatihan dan pengembangan\n*** Employee Relations\n**** Negosiasi dengan serikat pekerja\n*** Safety and Health\n**** Program keselamatan kerja\n*** Personnel Research\n**** Analisis masalah individu dan perusahaan\n** Komponen\n*** Input\n**** Memasukkan data SDM ke dalam sistem\n*** Pemrosesan\n**** Memperbarui dan mengelola data\n*** Output\n**** Menghasilkan laporan dan informasi SDM\n** Model\n*** Input\n**** Sistem Informasi Akuntansi (SIA)\n**** Penelitian Sumber Daya Manusia\n**** Intelijen Sumber Daya Manusia\n*** Output\n**** Perencanaan Kerja\n**** Perekrutan\n**** Manajemen Angkatan Kerja\n**** Tunjangan\n**** Benefit\n**** Pelaporan Lingkungan\n** Pengolahan SDM\n*** Perencanaan SDM\n**** Analisis keahlian, pasar tenaga kerja\n*** Penerimaan\n**** Proses rekrutmen SDM\n*** Pemilihan\n**** Seleksi SDM berdasarkan evaluasi\n*** Sosialisasi\n**** Adaptasi SDM baru\n*** Pelatihan dan Pengembangan\n**** Meningkatkan kinerja SDM\n*** Penilaian Kerja\n**** Evaluasi kinerja dengan standar tertentu\n*** Promosi, Mutasi, Pemecatan\n**** Penilaian nilai SDM di organisasi\n@endmindmap\n&quot;,&#xa;  &quot;format&quot;: &quot;svg&quot;&#xa;}" id="xRCC4wiyabmJcX214EyI-1">
          <mxCell style="shape=image;noLabel=1;verticalAlign=top;aspect=fixed;imageAspect=0;image=data:image/svg+xml,PD94bWwgdmVyc2lvbj0iMS4wIiBlbmNvZGluZz0idXMtYXNjaWkiIHN0YW5kYWxvbmU9Im5vIj8+PHN2ZyB4bWxucz0iaHR0cDovL3d3dy53My5vcmcvMjAwMC9zdmciIHhtbG5zOnhsaW5rPSJodHRwOi8vd3d3LnczLm9yZy8xOTk5L3hsaW5rIiBjb250ZW50U3R5bGVUeXBlPSJ0ZXh0L2NzcyIgaGVpZ2h0PSIxOTQ2cHgiIHByZXNlcnZlQXNwZWN0UmF0aW89Im5vbmUiIHN0eWxlPSJ3aWR0aDoxMDg0cHg7aGVpZ2h0OjE5NDZweDtiYWNrZ3JvdW5kOiNGRkZGRkY7IiB2ZXJzaW9uPSIxLjEiIHZpZXdCb3g9IjAgMCAxMDg0IDE5NDYiIHdpZHRoPSIxMDg0cHgiIHpvb21BbmRQYW49Im1hZ25pZnkiPjxkZWZzLz48Zz48cmVjdCBmaWxsPSIjRjFGMUYxIiBoZWlnaHQ9IjM0Ljk4NDQiIHJ4PSIxMi41IiByeT0iMTIuNSIgc3R5bGU9InN0cm9rZTojMTgxODE4O3N0cm9rZS13aWR0aDoxLjU7IiB3aWR0aD0iMzMzIiB4PSIxMCIgeT0iOTU0LjczNDQiLz48dGV4dCBmaWxsPSIjMDAwMDAwIiBmb250LWZhbWlseT0ic2Fucy1zZXJpZiIgZm9udC1zaXplPSIxNCIgbGVuZ3RoQWRqdXN0PSJzcGFjaW5nIiB0ZXh0TGVuZ3RoPSIzMTMiIHg9IjIwIiB5PSI5NzcuOTY4OCI+U2lzdGVtIEluZm9ybWFzaSBTdW1iZXIgRGF5YSBNYW51c2lhIChTSVNETSk8L3RleHQ+PHJlY3QgZmlsbD0iI0YxRjFGMSIgaGVpZ2h0PSIzNC45ODQ0IiByeD0iMTIuNSIgcnk9IjEyLjUiIHN0eWxlPSJzdHJva2U6IzE4MTgxODtzdHJva2Utd2lkdGg6MS41OyIgd2lkdGg9IjkwIiB4PSIzOTMiIHk9IjQ3LjQ5MjIiLz48dGV4dCBmaWxsPSIjMDAwMDAwIiBmb250LWZhbWlseT0ic2Fucy1zZXJpZiIgZm9udC1zaXplPSIxNCIgbGVuZ3RoQWRqdXN0PSJzcGFjaW5nIiB0ZXh0TGVuZ3RoPSI3MCIgeD0iNDAzIiB5PSI3MC43MjY2Ij5QZW5nZXJ0aWFuPC90ZXh0PjxyZWN0IGZpbGw9IiNGMUYxRjEiIGhlaWdodD0iMzQuOTg0NCIgcng9IjEyLjUiIHJ5PSIxMi41IiBzdHlsZT0ic3Ryb2tlOiMxODE4MTg7c3Ryb2tlLXdpZHRoOjEuNTsiIHdpZHRoPSIzNjEiIHg9IjUzMyIgeT0iMjAiLz48dGV4dCBmaWxsPSIjMDAwMDAwIiBmb250LWZhbWlseT0ic2Fucy1zZXJpZiIgZm9udC1zaXplPSIxNCIgbGVuZ3RoQWRqdXN0PSJzcGFjaW5nIiB0ZXh0TGVuZ3RoPSIzNDEiIHg9IjU0MyIgeT0iNDMuMjM0NCI+TWVueWVkaWFrYW4gaW5mb3JtYXNpIHVudHVrIG1hbmFqZW1lbiBTRE0gKEhSSVMpPC90ZXh0PjxwYXRoIGQ9Ik00ODMsNjQuOTg0NCBMNDkzLDY0Ljk4NDQgQzUwOCw2NC45ODQ0IDUwOCwzNy40OTIyIDUyMywzNy40OTIyIEw1MzMsMzcuNDkyMiAiIGZpbGw9Im5vbmUiIHN0eWxlPSJzdHJva2U6IzE4MTgxODtzdHJva2Utd2lkdGg6MS4wOyIvPjxyZWN0IGZpbGw9IiNGMUYxRjEiIGhlaWdodD0iMzQuOTg0NCIgcng9IjEyLjUiIHJ5PSIxMi41IiBzdHlsZT0ic3Ryb2tlOiMxODE4MTg7c3Ryb2tlLXdpZHRoOjEuNTsiIHdpZHRoPSI1MzkiIHg9IjUzMyIgeT0iNzQuOTg0NCIvPjx0ZXh0IGZpbGw9IiMwMDAwMDAiIGZvbnQtZmFtaWx5PSJzYW5zLXNlcmlmIiBmb250LXNpemU9IjE0IiBsZW5ndGhBZGp1c3Q9InNwYWNpbmciIHRleHRMZW5ndGg9IjUxOSIgeD0iNTQzIiB5PSI5OC4yMTg4Ij5NZW5kdWt1bmcgYWt0aXZpdGFzIE1TRE0gc2VwZXJ0aSBwZXJlbmNhbmFhbiwgcGVyZWtydXRhbiwga29tcGVuc2FzaSwgZGxsLjwvdGV4dD48cGF0aCBkPSJNNDgzLDY0Ljk4NDQgTDQ5Myw2NC45ODQ0IEM1MDgsNjQuOTg0NCA1MDgsOTIuNDc2NiA1MjMsOTIuNDc2NiBMNTMzLDkyLjQ3NjYgIiBmaWxsPSJub25lIiBzdHlsZT0ic3Ryb2tlOiMxODE4MTg7c3Ryb2tlLXdpZHRoOjEuMDsiLz48cGF0aCBkPSJNMzQzLDk3Mi4yMjY2IEwzNTMsOTcyLjIyNjYgQzM2OCw5NzIuMjI2NiAzNjgsNjQuOTg0NCAzODMsNjQuOTg0NCBMMzkzLDY0Ljk4NDQgIiBmaWxsPSJub25lIiBzdHlsZT0ic3Ryb2tlOiMxODE4MTg7c3Ryb2tlLXdpZHRoOjEuMDsiLz48cmVjdCBmaWxsPSIjRjFGMUYxIiBoZWlnaHQ9IjM0Ljk4NDQiIHJ4PSIxMi41IiByeT0iMTIuNSIgc3R5bGU9InN0cm9rZTojMTgxODE4O3N0cm9rZS13aWR0aDoxLjU7IiB3aWR0aD0iMTExIiB4PSIzOTMiIHk9IjIzOS45Mzc1Ii8+PHRleHQgZmlsbD0iIzAwMDAwMCIgZm9udC1mYW1pbHk9InNhbnMtc2VyaWYiIGZvbnQtc2l6ZT0iMTQiIGxlbmd0aEFkanVzdD0ic3BhY2luZyIgdGV4dExlbmd0aD0iOTEiIHg9IjQwMyIgeT0iMjYzLjE3MTkiPkthcmFrdGVyaXN0aWs8L3RleHQ+PHJlY3QgZmlsbD0iI0YxRjFGMSIgaGVpZ2h0PSIzNC45ODQ0IiByeD0iMTIuNSIgcnk9IjEyLjUiIHN0eWxlPSJzdHJva2U6IzE4MTgxODtzdHJva2Utd2lkdGg6MS41OyIgd2lkdGg9IjE2NCIgeD0iNTU0IiB5PSIxMjkuOTY4OCIvPjx0ZXh0IGZpbGw9IiMwMDAwMDAiIGZvbnQtZmFtaWx5PSJzYW5zLXNlcmlmIiBmb250LXNpemU9IjE0IiBsZW5ndGhBZGp1c3Q9InNwYWNpbmciIHRleHRMZW5ndGg9IjE0NCIgeD0iNTY0IiB5PSIxNTMuMjAzMSI+VGVwYXQgd2FrdHUgKFRpbWVseSk8L3RleHQ+PHBhdGggZD0iTTUwNCwyNTcuNDI5NyBMNTE0LDI1Ny40Mjk3IEM1MjksMjU3LjQyOTcgNTI5LDE0Ny40NjA5IDU0NCwxNDcuNDYwOSBMNTU0LDE0Ny40NjA5ICIgZmlsbD0ibm9uZSIgc3R5bGU9InN0cm9rZTojMTgxODE4O3N0cm9rZS13aWR0aDoxLjA7Ii8+PHJlY3QgZmlsbD0iI0YxRjFGMSIgaGVpZ2h0PSIzNC45ODQ0IiByeD0iMTIuNSIgcnk9IjEyLjUiIHN0eWxlPSJzdHJva2U6IzE4MTgxODtzdHJva2Utd2lkdGg6MS41OyIgd2lkdGg9IjE0MSIgeD0iNTU0IiB5PSIxODQuOTUzMSIvPjx0ZXh0IGZpbGw9IiMwMDAwMDAiIGZvbnQtZmFtaWx5PSJzYW5zLXNlcmlmIiBmb250LXNpemU9IjE0IiBsZW5ndGhBZGp1c3Q9InNwYWNpbmciIHRleHRMZW5ndGg9IjEyMSIgeD0iNTY0IiB5PSIyMDguMTg3NSI+QWt1cmF0IChBY2N1cmF0ZSk8L3RleHQ+PHBhdGggZD0iTTUwNCwyNTcuNDI5NyBMNTE0LDI1Ny40Mjk3IEM1MjksMjU3LjQyOTcgNTI5LDIwMi40NDUzIDU0NCwyMDIuNDQ1MyBMNTU0LDIwMi40NDUzICIgZmlsbD0ibm9uZSIgc3R5bGU9InN0cm9rZTojMTgxODE4O3N0cm9rZS13aWR0aDoxLjA7Ii8+PHJlY3QgZmlsbD0iI0YxRjFGMSIgaGVpZ2h0PSIzNC45ODQ0IiByeD0iMTIuNSIgcnk9IjEyLjUiIHN0eWxlPSJzdHJva2U6IzE4MTgxODtzdHJva2Utd2lkdGg6MS41OyIgd2lkdGg9IjE0MSIgeD0iNTU0IiB5PSIyMzkuOTM3NSIvPjx0ZXh0IGZpbGw9IiMwMDAwMDAiIGZvbnQtZmFtaWx5PSJzYW5zLXNlcmlmIiBmb250LXNpemU9IjE0IiBsZW5ndGhBZGp1c3Q9InNwYWNpbmciIHRleHRMZW5ndGg9IjEyMSIgeD0iNTY0IiB5PSIyNjMuMTcxOSI+UmluZ2thcyAoQ29uY2lzZSk8L3RleHQ+PHBhdGggZD0iTTUwNCwyNTcuNDI5NyBMNTE0LDI1Ny40Mjk3IEM1MjksMjU3LjQyOTcgNTI5LDI1Ny40Mjk3IDU0NCwyNTcuNDI5NyBMNTU0LDI1Ny40Mjk3ICIgZmlsbD0ibm9uZSIgc3R5bGU9InN0cm9rZTojMTgxODE4O3N0cm9rZS13aWR0aDoxLjA7Ii8+PHJlY3QgZmlsbD0iI0YxRjFGMSIgaGVpZ2h0PSIzNC45ODQ0IiByeD0iMTIuNSIgcnk9IjEyLjUiIHN0eWxlPSJzdHJva2U6IzE4MTgxODtzdHJva2Utd2lkdGg6MS41OyIgd2lkdGg9IjE0OCIgeD0iNTU0IiB5PSIyOTQuOTIxOSIvPjx0ZXh0IGZpbGw9IiMwMDAwMDAiIGZvbnQtZmFtaWx5PSJzYW5zLXNlcmlmIiBmb250LXNpemU9IjE0IiBsZW5ndGhBZGp1c3Q9InNwYWNpbmciIHRleHRMZW5ndGg9IjEyOCIgeD0iNTY0IiB5PSIzMTguMTU2MyI+UmVsZXZhbiAoUmVsZXZhbnQpPC90ZXh0PjxwYXRoIGQ9Ik01MDQsMjU3LjQyOTcgTDUxNCwyNTcuNDI5NyBDNTI5LDI1Ny40Mjk3IDUyOSwzMTIuNDE0MSA1NDQsMzEyLjQxNDEgTDU1NCwzMTIuNDE0MSAiIGZpbGw9Im5vbmUiIHN0eWxlPSJzdHJva2U6IzE4MTgxODtzdHJva2Utd2lkdGg6MS4wOyIvPjxyZWN0IGZpbGw9IiNGMUYxRjEiIGhlaWdodD0iMzQuOTg0NCIgcng9IjEyLjUiIHJ5PSIxMi41IiBzdHlsZT0ic3Ryb2tlOiMxODE4MTg7c3Ryb2tlLXdpZHRoOjEuNTsiIHdpZHRoPSIxNDkiIHg9IjU1NCIgeT0iMzQ5LjkwNjMiLz48dGV4dCBmaWxsPSIjMDAwMDAwIiBmb250LWZhbWlseT0ic2Fucy1zZXJpZiIgZm9udC1zaXplPSIxNCIgbGVuZ3RoQWRqdXN0PSJzcGFjaW5nIiB0ZXh0TGVuZ3RoPSIxMjkiIHg9IjU2NCIgeT0iMzczLjE0MDYiPkxlbmdrYXAgKENvbXBsZXRlKTwvdGV4dD48cGF0aCBkPSJNNTA0LDI1Ny40Mjk3IEw1MTQsMjU3LjQyOTcgQzUyOSwyNTcuNDI5NyA1MjksMzY3LjM5ODQgNTQ0LDM2Ny4zOTg0IEw1NTQsMzY3LjM5ODQgIiBmaWxsPSJub25lIiBzdHlsZT0ic3Ryb2tlOiMxODE4MTg7c3Ryb2tlLXdpZHRoOjEuMDsiLz48cGF0aCBkPSJNMzQzLDk3Mi4yMjY2IEwzNTMsOTcyLjIyNjYgQzM2OCw5NzIuMjI2NiAzNjgsMjU3LjQyOTcgMzgzLDI1Ny40Mjk3IEwzOTMsMjU3LjQyOTcgIiBmaWxsPSJub25lIiBzdHlsZT0ic3Ryb2tlOiMxODE4MTg7c3Ryb2tlLXdpZHRoOjEuMDsiLz48cmVjdCBmaWxsPSIjRjFGMUYxIiBoZWlnaHQ9IjM0Ljk4NDQiIHJ4PSIxMi41IiByeT0iMTIuNSIgc3R5bGU9InN0cm9rZTojMTgxODE4O3N0cm9rZS13aWR0aDoxLjU7IiB3aWR0aD0iNjIiIHg9IjM5MyIgeT0iNDMyLjM4MjgiLz48dGV4dCBmaWxsPSIjMDAwMDAwIiBmb250LWZhbWlseT0ic2Fucy1zZXJpZiIgZm9udC1zaXplPSIxNCIgbGVuZ3RoQWRqdXN0PSJzcGFjaW5nIiB0ZXh0TGVuZ3RoPSI0MiIgeD0iNDAzIiB5PSI0NTUuNjE3MiI+VHVqdWFuPC90ZXh0PjxyZWN0IGZpbGw9IiNGMUYxRjEiIGhlaWdodD0iMzQuOTg0NCIgcng9IjEyLjUiIHJ5PSIxMi41IiBzdHlsZT0ic3Ryb2tlOiMxODE4MTg7c3Ryb2tlLXdpZHRoOjEuNTsiIHdpZHRoPSIxNzQiIHg9IjUwNSIgeT0iNDA0Ljg5MDYiLz48dGV4dCBmaWxsPSIjMDAwMDAwIiBmb250LWZhbWlseT0ic2Fucy1zZXJpZiIgZm9udC1zaXplPSIxNCIgbGVuZ3RoQWRqdXN0PSJzcGFjaW5nIiB0ZXh0TGVuZ3RoPSIxNTQiIHg9IjUxNSIgeT0iNDI4LjEyNSI+TWVuaW5na2F0a2FuIGVmaXNpZW5zaTwvdGV4dD48cGF0aCBkPSJNNDU1LDQ0OS44NzUgTDQ2NSw0NDkuODc1IEM0ODAsNDQ5Ljg3NSA0ODAsNDIyLjM4MjggNDk1LDQyMi4zODI4IEw1MDUsNDIyLjM4MjggIiBmaWxsPSJub25lIiBzdHlsZT0ic3Ryb2tlOiMxODE4MTg7c3Ryb2tlLXdpZHRoOjEuMDsiLz48cmVjdCBmaWxsPSIjRjFGMUYxIiBoZWlnaHQ9IjM0Ljk4NDQiIHJ4PSIxMi41IiByeT0iMTIuNSIgc3R5bGU9InN0cm9rZTojMTgxODE4O3N0cm9rZS13aWR0aDoxLjU7IiB3aWR0aD0iMjY1IiB4PSI1MDUiIHk9IjQ1OS44NzUiLz48dGV4dCBmaWxsPSIjMDAwMDAwIiBmb250LWZhbWlseT0ic2Fucy1zZXJpZiIgZm9udC1zaXplPSIxNCIgbGVuZ3RoQWRqdXN0PSJzcGFjaW5nIiB0ZXh0TGVuZ3RoPSIyNDUiIHg9IjUxNSIgeT0iNDgzLjEwOTQiPk1lbmR1a3VuZyBwZXJlbmNhbmFhbiBTRE0gc3RyYXRlZ2lzPC90ZXh0PjxwYXRoIGQ9Ik00NTUsNDQ5Ljg3NSBMNDY1LDQ0OS44NzUgQzQ4MCw0NDkuODc1IDQ4MCw0NzcuMzY3MiA0OTUsNDc3LjM2NzIgTDUwNSw0NzcuMzY3MiAiIGZpbGw9Im5vbmUiIHN0eWxlPSJzdHJva2U6IzE4MTgxODtzdHJva2Utd2lkdGg6MS4wOyIvPjxwYXRoIGQ9Ik0zNDMsOTcyLjIyNjYgTDM1Myw5NzIuMjI2NiBDMzY4LDk3Mi4yMjY2IDM2OCw0NDkuODc1IDM4Myw0NDkuODc1IEwzOTMsNDQ5Ljg3NSAiIGZpbGw9Im5vbmUiIHN0eWxlPSJzdHJva2U6IzE4MTgxODtzdHJva2Utd2lkdGg6MS4wOyIvPjxyZWN0IGZpbGw9IiNGMUYxRjEiIGhlaWdodD0iMzQuOTg0NCIgcng9IjEyLjUiIHJ5PSIxMi41IiBzdHlsZT0ic3Ryb2tlOiMxODE4MTg7c3Ryb2tlLXdpZHRoOjEuNTsiIHdpZHRoPSI2MiIgeD0iMzkzIiB5PSI2NzkuODEyNSIvPjx0ZXh0IGZpbGw9IiMwMDAwMDAiIGZvbnQtZmFtaWx5PSJzYW5zLXNlcmlmIiBmb250LXNpemU9IjE0IiBsZW5ndGhBZGp1c3Q9InNwYWNpbmciIHRleHRMZW5ndGg9IjQyIiB4PSI0MDMiIHk9IjcwMy4wNDY5Ij5GdW5nc2k8L3RleHQ+PHJlY3QgZmlsbD0iI0YxRjFGMSIgaGVpZ2h0PSIzNC45ODQ0IiByeD0iMTIuNSIgcnk9IjEyLjUiIHN0eWxlPSJzdHJva2U6IzE4MTgxODtzdHJva2Utd2lkdGg6MS41OyIgd2lkdGg9IjE1NSIgeD0iNTA1IiB5PSI1MTQuODU5NCIvPjx0ZXh0IGZpbGw9IiMwMDAwMDAiIGZvbnQtZmFtaWx5PSJzYW5zLXNlcmlmIiBmb250LXNpemU9IjE0IiBsZW5ndGhBZGp1c3Q9InNwYWNpbmciIHRleHRMZW5ndGg9IjEzNSIgeD0iNTE1IiB5PSI1MzguMDkzOCI+U3RhZmZpbmcgRW1wbG95bWVudDwvdGV4dD48cmVjdCBmaWxsPSIjRjFGMUYxIiBoZWlnaHQ9IjM0Ljk4NDQiIHJ4PSIxMi41IiByeT0iMTIuNSIgc3R5bGU9InN0cm9rZTojMTgxODE4O3N0cm9rZS13aWR0aDoxLjU7IiB3aWR0aD0iMjY1IiB4PSI3MTAiIHk9IjUxNC44NTk0Ii8+PHRleHQgZmlsbD0iIzAwMDAwMCIgZm9udC1mYW1pbHk9InNhbnMtc2VyaWYiIGZvbnQtc2l6ZT0iMTQiIGxlbmd0aEFkanVzdD0ic3BhY2luZyIgdGV4dExlbmd0aD0iMjQ1IiB4PSI3MjAiIHk9IjUzOC4wOTM4Ij5QZXJlbmNhbmFhbiwgcGVuYXJpa2FuLCBzZWxla3NpIFNETTwvdGV4dD48cGF0aCBkPSJNNjYwLDUzMi4zNTE2IEw2NzAsNTMyLjM1MTYgQzY4NSw1MzIuMzUxNiA2ODUsNTMyLjM1MTYgNzAwLDUzMi4zNTE2IEw3MTAsNTMyLjM1MTYgIiBmaWxsPSJub25lIiBzdHlsZT0ic3Ryb2tlOiMxODE4MTg7c3Ryb2tlLXdpZHRoOjEuMDsiLz48cGF0aCBkPSJNNDU1LDY5Ny4zMDQ3IEw0NjUsNjk3LjMwNDcgQzQ4MCw2OTcuMzA0NyA0ODAsNTMyLjM1MTYgNDk1LDUzMi4zNTE2IEw1MDUsNTMyLjM1MTYgIiBmaWxsPSJub25lIiBzdHlsZT0ic3Ryb2tlOiMxODE4MTg7c3Ryb2tlLXdpZHRoOjEuMDsiLz48cmVjdCBmaWxsPSIjRjFGMUYxIiBoZWlnaHQ9IjM0Ljk4NDQiIHJ4PSIxMi41IiByeT0iMTIuNSIgc3R5bGU9InN0cm9rZTojMTgxODE4O3N0cm9rZS13aWR0aDoxLjU7IiB3aWR0aD0iMTc1IiB4PSI1MDUiIHk9IjU2OS44NDM4Ii8+PHRleHQgZmlsbD0iIzAwMDAwMCIgZm9udC1mYW1pbHk9InNhbnMtc2VyaWYiIGZvbnQtc2l6ZT0iMTQiIGxlbmd0aEFkanVzdD0ic3BhY2luZyIgdGV4dExlbmd0aD0iMTU1IiB4PSI1MTUiIHk9IjU5My4wNzgxIj5QZXJmb3JtYW5jZSBFdmFsdWF0aW9uPC90ZXh0PjxyZWN0IGZpbGw9IiNGMUYxRjEiIGhlaWdodD0iMzQuOTg0NCIgcng9IjEyLjUiIHJ5PSIxMi41IiBzdHlsZT0ic3Ryb2tlOiMxODE4MTg7c3Ryb2tlLXdpZHRoOjEuNTsiIHdpZHRoPSIyNzMiIHg9IjczMCIgeT0iNTY5Ljg0MzgiLz48dGV4dCBmaWxsPSIjMDAwMDAwIiBmb250LWZhbWlseT0ic2Fucy1zZXJpZiIgZm9udC1zaXplPSIxNCIgbGVuZ3RoQWRqdXN0PSJzcGFjaW5nIiB0ZXh0TGVuZ3RoPSIyNTMiIHg9Ijc0MCIgeT0iNTkzLjA3ODEiPkV2YWx1YXNpIGtpbmVyamEgb2xlaCBtYW5hamVyIGRhbiBIUjwvdGV4dD48cGF0aCBkPSJNNjgwLDU4Ny4zMzU5IEw2OTAsNTg3LjMzNTkgQzcwNSw1ODcuMzM1OSA3MDUsNTg3LjMzNTkgNzIwLDU4Ny4zMzU5IEw3MzAsNTg3LjMzNTkgIiBmaWxsPSJub25lIiBzdHlsZT0ic3Ryb2tlOiMxODE4MTg7c3Ryb2tlLXdpZHRoOjEuMDsiLz48cGF0aCBkPSJNNDU1LDY5Ny4zMDQ3IEw0NjUsNjk3LjMwNDcgQzQ4MCw2OTcuMzA0NyA0ODAsNTg3LjMzNTkgNDk1LDU4Ny4zMzU5IEw1MDUsNTg3LjMzNTkgIiBmaWxsPSJub25lIiBzdHlsZT0ic3Ryb2tlOiMxODE4MTg7c3Ryb2tlLXdpZHRoOjEuMDsiLz48cmVjdCBmaWxsPSIjRjFGMUYxIiBoZWlnaHQ9IjM0Ljk4NDQiIHJ4PSIxMi41IiByeT0iMTIuNSIgc3R5bGU9InN0cm9rZTojMTgxODE4O3N0cm9rZS13aWR0aDoxLjU7IiB3aWR0aD0iMTA1IiB4PSI1MDUiIHk9IjYyNC44MjgxIi8+PHRleHQgZmlsbD0iIzAwMDAwMCIgZm9udC1mYW1pbHk9InNhbnMtc2VyaWYiIGZvbnQtc2l6ZT0iMTQiIGxlbmd0aEFkanVzdD0ic3BhY2luZyIgdGV4dExlbmd0aD0iODUiIHg9IjUxNSIgeT0iNjQ4LjA2MjUiPkNvbXBlbnNhdGlvbjwvdGV4dD48cmVjdCBmaWxsPSIjRjFGMUYxIiBoZWlnaHQ9IjM0Ljk4NDQiIHJ4PSIxMi41IiByeT0iMTIuNSIgc3R5bGU9InN0cm9rZTojMTgxODE4O3N0cm9rZS13aWR0aDoxLjU7IiB3aWR0aD0iMjI1IiB4PSI2NjAiIHk9IjYyNC44MjgxIi8+PHRleHQgZmlsbD0iIzAwMDAwMCIgZm9udC1mYW1pbHk9InNhbnMtc2VyaWYiIGZvbnQtc2l6ZT0iMTQiIGxlbmd0aEFkanVzdD0ic3BhY2luZyIgdGV4dExlbmd0aD0iMjA1IiB4PSI2NzAiIHk9IjY0OC4wNjI1Ij5HYWppLCBib251cywgbWFuZmFhdCB0YW1iYWhhbjwvdGV4dD48cGF0aCBkPSJNNjEwLDY0Mi4zMjAzIEw2MjAsNjQyLjMyMDMgQzYzNSw2NDIuMzIwMyA2MzUsNjQyLjMyMDMgNjUwLDY0Mi4zMjAzIEw2NjAsNjQyLjMyMDMgIiBmaWxsPSJub25lIiBzdHlsZT0ic3Ryb2tlOiMxODE4MTg7c3Ryb2tlLXdpZHRoOjEuMDsiLz48cGF0aCBkPSJNNDU1LDY5Ny4zMDQ3IEw0NjUsNjk3LjMwNDcgQzQ4MCw2OTcuMzA0NyA0ODAsNjQyLjMyMDMgNDk1LDY0Mi4zMjAzIEw1MDUsNjQyLjMyMDMgIiBmaWxsPSJub25lIiBzdHlsZT0ic3Ryb2tlOiMxODE4MTg7c3Ryb2tlLXdpZHRoOjEuMDsiLz48cmVjdCBmaWxsPSIjRjFGMUYxIiBoZWlnaHQ9IjM0Ljk4NDQiIHJ4PSIxMi41IiByeT0iMTIuNSIgc3R5bGU9InN0cm9rZTojMTgxODE4O3N0cm9rZS13aWR0aDoxLjU7IiB3aWR0aD0iMTg5IiB4PSI1MDUiIHk9IjY3OS44MTI1Ii8+PHRleHQgZmlsbD0iIzAwMDAwMCIgZm9udC1mYW1pbHk9InNhbnMtc2VyaWYiIGZvbnQtc2l6ZT0iMTQiIGxlbmd0aEFkanVzdD0ic3BhY2luZyIgdGV4dExlbmd0aD0iMTY5IiB4PSI1MTUiIHk9IjcwMy4wNDY5Ij5UcmFpbmluZyBhbmQgRGV2ZWxvcG1lbnQ8L3RleHQ+PHJlY3QgZmlsbD0iI0YxRjFGMSIgaGVpZ2h0PSIzNC45ODQ0IiByeD0iMTIuNSIgcnk9IjEyLjUiIHN0eWxlPSJzdHJva2U6IzE4MTgxODtzdHJva2Utd2lkdGg6MS41OyIgd2lkdGg9IjI2MCIgeD0iNzQ0IiB5PSI2NzkuODEyNSIvPjx0ZXh0IGZpbGw9IiMwMDAwMDAiIGZvbnQtZmFtaWx5PSJzYW5zLXNlcmlmIiBmb250LXNpemU9IjE0IiBsZW5ndGhBZGp1c3Q9InNwYWNpbmciIHRleHRMZW5ndGg9IjI0MCIgeD0iNzU0IiB5PSI3MDMuMDQ2OSI+UHJvZ3JhbSBwZWxhdGloYW4gZGFuIHBlbmdlbWJhbmdhbjwvdGV4dD48cGF0aCBkPSJNNjk0LDY5Ny4zMDQ3IEw3MDQsNjk3LjMwNDcgQzcxOSw2OTcuMzA0NyA3MTksNjk3LjMwNDcgNzM0LDY5Ny4zMDQ3IEw3NDQsNjk3LjMwNDcgIiBmaWxsPSJub25lIiBzdHlsZT0ic3Ryb2tlOiMxODE4MTg7c3Ryb2tlLXdpZHRoOjEuMDsiLz48cGF0aCBkPSJNNDU1LDY5Ny4zMDQ3IEw0NjUsNjk3LjMwNDcgQzQ4MCw2OTcuMzA0NyA0ODAsNjk3LjMwNDcgNDk1LDY5Ny4zMDQ3IEw1MDUsNjk3LjMwNDcgIiBmaWxsPSJub25lIiBzdHlsZT0ic3Ryb2tlOiMxODE4MTg7c3Ryb2tlLXdpZHRoOjEuMDsiLz48cmVjdCBmaWxsPSIjRjFGMUYxIiBoZWlnaHQ9IjM0Ljk4NDQiIHJ4PSIxMi41IiByeT0iMTIuNSIgc3R5bGU9InN0cm9rZTojMTgxODE4O3N0cm9rZS13aWR0aDoxLjU7IiB3aWR0aD0iMTQ3IiB4PSI1MDUiIHk9IjczNC43OTY5Ii8+PHRleHQgZmlsbD0iIzAwMDAwMCIgZm9udC1mYW1pbHk9InNhbnMtc2VyaWYiIGZvbnQtc2l6ZT0iMTQiIGxlbmd0aEFkanVzdD0ic3BhY2luZyIgdGV4dExlbmd0aD0iMTI3IiB4PSI1MTUiIHk9Ijc1OC4wMzEzIj5FbXBsb3llZSBSZWxhdGlvbnM8L3RleHQ+PHJlY3QgZmlsbD0iI0YxRjFGMSIgaGVpZ2h0PSIzNC45ODQ0IiByeD0iMTIuNSIgcnk9IjEyLjUiIHN0eWxlPSJzdHJva2U6IzE4MTgxODtzdHJva2Utd2lkdGg6MS41OyIgd2lkdGg9IjI0NCIgeD0iNzAyIiB5PSI3MzQuNzk2OSIvPjx0ZXh0IGZpbGw9IiMwMDAwMDAiIGZvbnQtZmFtaWx5PSJzYW5zLXNlcmlmIiBmb250LXNpemU9IjE0IiBsZW5ndGhBZGp1c3Q9InNwYWNpbmciIHRleHRMZW5ndGg9IjIyNCIgeD0iNzEyIiB5PSI3NTguMDMxMyI+TmVnb3NpYXNpIGRlbmdhbiBzZXJpa2F0IHBla2VyamE8L3RleHQ+PHBhdGggZD0iTTY1Miw3NTIuMjg5MSBMNjYyLDc1Mi4yODkxIEM2NzcsNzUyLjI4OTEgNjc3LDc1Mi4yODkxIDY5Miw3NTIuMjg5MSBMNzAyLDc1Mi4yODkxICIgZmlsbD0ibm9uZSIgc3R5bGU9InN0cm9rZTojMTgxODE4O3N0cm9rZS13aWR0aDoxLjA7Ii8+PHBhdGggZD0iTTQ1NSw2OTcuMzA0NyBMNDY1LDY5Ny4zMDQ3IEM0ODAsNjk3LjMwNDcgNDgwLDc1Mi4yODkxIDQ5NSw3NTIuMjg5MSBMNTA1LDc1Mi4yODkxICIgZmlsbD0ibm9uZSIgc3R5bGU9InN0cm9rZTojMTgxODE4O3N0cm9rZS13aWR0aDoxLjA7Ii8+PHJlY3QgZmlsbD0iI0YxRjFGMSIgaGVpZ2h0PSIzNC45ODQ0IiByeD0iMTIuNSIgcnk9IjEyLjUiIHN0eWxlPSJzdHJva2U6IzE4MTgxODtzdHJva2Utd2lkdGg6MS41OyIgd2lkdGg9IjEzOSIgeD0iNTA1IiB5PSI3ODkuNzgxMyIvPjx0ZXh0IGZpbGw9IiMwMDAwMDAiIGZvbnQtZmFtaWx5PSJzYW5zLXNlcmlmIiBmb250LXNpemU9IjE0IiBsZW5ndGhBZGp1c3Q9InNwYWNpbmciIHRleHRMZW5ndGg9IjExOSIgeD0iNTE1IiB5PSI4MTMuMDE1NiI+U2FmZXR5IGFuZCBIZWFsdGg8L3RleHQ+PHJlY3QgZmlsbD0iI0YxRjFGMSIgaGVpZ2h0PSIzNC45ODQ0IiByeD0iMTIuNSIgcnk9IjEyLjUiIHN0eWxlPSJzdHJva2U6IzE4MTgxODtzdHJva2Utd2lkdGg6MS41OyIgd2lkdGg9IjE5NyIgeD0iNjk0IiB5PSI3ODkuNzgxMyIvPjx0ZXh0IGZpbGw9IiMwMDAwMDAiIGZvbnQtZmFtaWx5PSJzYW5zLXNlcmlmIiBmb250LXNpemU9IjE0IiBsZW5ndGhBZGp1c3Q9InNwYWNpbmciIHRleHRMZW5ndGg9IjE3NyIgeD0iNzA0IiB5PSI4MTMuMDE1NiI+UHJvZ3JhbSBrZXNlbGFtYXRhbiBrZXJqYTwvdGV4dD48cGF0aCBkPSJNNjQ0LDgwNy4yNzM0IEw2NTQsODA3LjI3MzQgQzY2OSw4MDcuMjczNCA2NjksODA3LjI3MzQgNjg0LDgwNy4yNzM0IEw2OTQsODA3LjI3MzQgIiBmaWxsPSJub25lIiBzdHlsZT0ic3Ryb2tlOiMxODE4MTg7c3Ryb2tlLXdpZHRoOjEuMDsiLz48cGF0aCBkPSJNNDU1LDY5Ny4zMDQ3IEw0NjUsNjk3LjMwNDcgQzQ4MCw2OTcuMzA0NyA0ODAsODA3LjI3MzQgNDk1LDgwNy4yNzM0IEw1MDUsODA3LjI3MzQgIiBmaWxsPSJub25lIiBzdHlsZT0ic3Ryb2tlOiMxODE4MTg7c3Ryb2tlLXdpZHRoOjEuMDsiLz48cmVjdCBmaWxsPSIjRjFGMUYxIiBoZWlnaHQ9IjM0Ljk4NDQiIHJ4PSIxMi41IiByeT0iMTIuNSIgc3R5bGU9InN0cm9rZTojMTgxODE4O3N0cm9rZS13aWR0aDoxLjU7IiB3aWR0aD0iMTQ2IiB4PSI1MDUiIHk9Ijg0NC43NjU2Ii8+PHRleHQgZmlsbD0iIzAwMDAwMCIgZm9udC1mYW1pbHk9InNhbnMtc2VyaWYiIGZvbnQtc2l6ZT0iMTQiIGxlbmd0aEFkanVzdD0ic3BhY2luZyIgdGV4dExlbmd0aD0iMTI2IiB4PSI1MTUiIHk9Ijg2OCI+UGVyc29ubmVsIFJlc2VhcmNoPC90ZXh0PjxyZWN0IGZpbGw9IiNGMUYxRjEiIGhlaWdodD0iMzQuOTg0NCIgcng9IjEyLjUiIHJ5PSIxMi41IiBzdHlsZT0ic3Ryb2tlOiMxODE4MTg7c3Ryb2tlLXdpZHRoOjEuNTsiIHdpZHRoPSIzMDEiIHg9IjcwMSIgeT0iODQ0Ljc2NTYiLz48dGV4dCBmaWxsPSIjMDAwMDAwIiBmb250LWZhbWlseT0ic2Fucy1zZXJpZiIgZm9udC1zaXplPSIxNCIgbGVuZ3RoQWRqdXN0PSJzcGFjaW5nIiB0ZXh0TGVuZ3RoPSIyODEiIHg9IjcxMSIgeT0iODY4Ij5BbmFsaXNpcyBtYXNhbGFoIGluZGl2aWR1IGRhbiBwZXJ1c2FoYWFuPC90ZXh0PjxwYXRoIGQ9Ik02NTEsODYyLjI1NzggTDY2MSw4NjIuMjU3OCBDNjc2LDg2Mi4yNTc4IDY3Niw4NjIuMjU3OCA2OTEsODYyLjI1NzggTDcwMSw4NjIuMjU3OCAiIGZpbGw9Im5vbmUiIHN0eWxlPSJzdHJva2U6IzE4MTgxODtzdHJva2Utd2lkdGg6MS4wOyIvPjxwYXRoIGQ9Ik00NTUsNjk3LjMwNDcgTDQ2NSw2OTcuMzA0NyBDNDgwLDY5Ny4zMDQ3IDQ4MCw4NjIuMjU3OCA0OTUsODYyLjI1NzggTDUwNSw4NjIuMjU3OCAiIGZpbGw9Im5vbmUiIHN0eWxlPSJzdHJva2U6IzE4MTgxODtzdHJva2Utd2lkdGg6MS4wOyIvPjxwYXRoIGQ9Ik0zNDMsOTcyLjIyNjYgTDM1Myw5NzIuMjI2NiBDMzY4LDk3Mi4yMjY2IDM2OCw2OTcuMzA0NyAzODMsNjk3LjMwNDcgTDM5Myw2OTcuMzA0NyAiIGZpbGw9Im5vbmUiIHN0eWxlPSJzdHJva2U6IzE4MTgxODtzdHJva2Utd2lkdGg6MS4wOyIvPjxyZWN0IGZpbGw9IiNGMUYxRjEiIGhlaWdodD0iMzQuOTg0NCIgcng9IjEyLjUiIHJ5PSIxMi41IiBzdHlsZT0ic3Ryb2tlOiMxODE4MTg7c3Ryb2tlLXdpZHRoOjEuNTsiIHdpZHRoPSI3NyIgeD0iMzkzIiB5PSI5NTQuNzM0NCIvPjx0ZXh0IGZpbGw9IiMwMDAwMDAiIGZvbnQtZmFtaWx5PSJzYW5zLXNlcmlmIiBmb250LXNpemU9IjE0IiBsZW5ndGhBZGp1c3Q9InNwYWNpbmciIHRleHRMZW5ndGg9IjU3IiB4PSI0MDMiIHk9Ijk3Ny45Njg4Ij5Lb21wb25lbjwvdGV4dD48cmVjdCBmaWxsPSIjRjFGMUYxIiBoZWlnaHQ9IjM0Ljk4NDQiIHJ4PSIxMi41IiByeT0iMTIuNSIgc3R5bGU9InN0cm9rZTojMTgxODE4O3N0cm9rZS13aWR0aDoxLjU7IiB3aWR0aD0iNTUiIHg9IjUyMCIgeT0iODk5Ljc1Ii8+PHRleHQgZmlsbD0iIzAwMDAwMCIgZm9udC1mYW1pbHk9InNhbnMtc2VyaWYiIGZvbnQtc2l6ZT0iMTQiIGxlbmd0aEFkanVzdD0ic3BhY2luZyIgdGV4dExlbmd0aD0iMzUiIHg9IjUzMCIgeT0iOTIyLjk4NDQiPklucHV0PC90ZXh0PjxyZWN0IGZpbGw9IiNGMUYxRjEiIGhlaWdodD0iMzQuOTg0NCIgcng9IjEyLjUiIHJ5PSIxMi41IiBzdHlsZT0ic3Ryb2tlOiMxODE4MTg7c3Ryb2tlLXdpZHRoOjEuNTsiIHdpZHRoPSIyNjgiIHg9IjYyNSIgeT0iODk5Ljc1Ii8+PHRleHQgZmlsbD0iIzAwMDAwMCIgZm9udC1mYW1pbHk9InNhbnMtc2VyaWYiIGZvbnQtc2l6ZT0iMTQiIGxlbmd0aEFkanVzdD0ic3BhY2luZyIgdGV4dExlbmd0aD0iMjQ4IiB4PSI2MzUiIHk9IjkyMi45ODQ0Ij5NZW1hc3Vra2FuIGRhdGEgU0RNIGtlIGRhbGFtIHNpc3RlbTwvdGV4dD48cGF0aCBkPSJNNTc1LDkxNy4yNDIyIEw1ODUsOTE3LjI0MjIgQzYwMCw5MTcuMjQyMiA2MDAsOTE3LjI0MjIgNjE1LDkxNy4yNDIyIEw2MjUsOTE3LjI0MjIgIiBmaWxsPSJub25lIiBzdHlsZT0ic3Ryb2tlOiMxODE4MTg7c3Ryb2tlLXdpZHRoOjEuMDsiLz48cGF0aCBkPSJNNDcwLDk3Mi4yMjY2IEw0ODAsOTcyLjIyNjYgQzQ5NSw5NzIuMjI2NiA0OTUsOTE3LjI0MjIgNTEwLDkxNy4yNDIyIEw1MjAsOTE3LjI0MjIgIiBmaWxsPSJub25lIiBzdHlsZT0ic3Ryb2tlOiMxODE4MTg7c3Ryb2tlLXdpZHRoOjEuMDsiLz48cmVjdCBmaWxsPSIjRjFGMUYxIiBoZWlnaHQ9IjM0Ljk4NDQiIHJ4PSIxMi41IiByeT0iMTIuNSIgc3R5bGU9InN0cm9rZTojMTgxODE4O3N0cm9rZS13aWR0aDoxLjU7IiB3aWR0aD0iOTEiIHg9IjUyMCIgeT0iOTU0LjczNDQiLz48dGV4dCBmaWxsPSIjMDAwMDAwIiBmb250LWZhbWlseT0ic2Fucy1zZXJpZiIgZm9udC1zaXplPSIxNCIgbGVuZ3RoQWRqdXN0PSJzcGFjaW5nIiB0ZXh0TGVuZ3RoPSI3MSIgeD0iNTMwIiB5PSI5NzcuOTY4OCI+UGVtcm9zZXNhbjwvdGV4dD48cmVjdCBmaWxsPSIjRjFGMUYxIiBoZWlnaHQ9IjM0Ljk4NDQiIHJ4PSIxMi41IiByeT0iMTIuNSIgc3R5bGU9InN0cm9rZTojMTgxODE4O3N0cm9rZS13aWR0aDoxLjU7IiB3aWR0aD0iMjMyIiB4PSI2NjEiIHk9Ijk1NC43MzQ0Ii8+PHRleHQgZmlsbD0iIzAwMDAwMCIgZm9udC1mYW1pbHk9InNhbnMtc2VyaWYiIGZvbnQtc2l6ZT0iMTQiIGxlbmd0aEFkanVzdD0ic3BhY2luZyIgdGV4dExlbmd0aD0iMjEyIiB4PSI2NzEiIHk9Ijk3Ny45Njg4Ij5NZW1wZXJiYXJ1aSBkYW4gbWVuZ2Vsb2xhIGRhdGE8L3RleHQ+PHBhdGggZD0iTTYxMSw5NzIuMjI2NiBMNjIxLDk3Mi4yMjY2IEM2MzYsOTcyLjIyNjYgNjM2LDk3Mi4yMjY2IDY1MSw5NzIuMjI2NiBMNjYxLDk3Mi4yMjY2ICIgZmlsbD0ibm9uZSIgc3R5bGU9InN0cm9rZTojMTgxODE4O3N0cm9rZS13aWR0aDoxLjA7Ii8+PHBhdGggZD0iTTQ3MCw5NzIuMjI2NiBMNDgwLDk3Mi4yMjY2IEM0OTUsOTcyLjIyNjYgNDk1LDk3Mi4yMjY2IDUxMCw5NzIuMjI2NiBMNTIwLDk3Mi4yMjY2ICIgZmlsbD0ibm9uZSIgc3R5bGU9InN0cm9rZTojMTgxODE4O3N0cm9rZS13aWR0aDoxLjA7Ii8+PHJlY3QgZmlsbD0iI0YxRjFGMSIgaGVpZ2h0PSIzNC45ODQ0IiByeD0iMTIuNSIgcnk9IjEyLjUiIHN0eWxlPSJzdHJva2U6IzE4MTgxODtzdHJva2Utd2lkdGg6MS41OyIgd2lkdGg9IjYyIiB4PSI1MjAiIHk9IjEwMDkuNzE4OCIvPjx0ZXh0IGZpbGw9IiMwMDAwMDAiIGZvbnQtZmFtaWx5PSJzYW5zLXNlcmlmIiBmb250LXNpemU9IjE0IiBsZW5ndGhBZGp1c3Q9InNwYWNpbmciIHRleHRMZW5ndGg9IjQyIiB4PSI1MzAiIHk9IjEwMzIuOTUzMSI+T3V0cHV0PC90ZXh0PjxyZWN0IGZpbGw9IiNGMUYxRjEiIGhlaWdodD0iMzQuOTg0NCIgcng9IjEyLjUiIHJ5PSIxMi41IiBzdHlsZT0ic3Ryb2tlOiMxODE4MTg7c3Ryb2tlLXdpZHRoOjEuNTsiIHdpZHRoPSIyODciIHg9IjYzMiIgeT0iMTAwOS43MTg4Ii8+PHRleHQgZmlsbD0iIzAwMDAwMCIgZm9udC1mYW1pbHk9InNhbnMtc2VyaWYiIGZvbnQtc2l6ZT0iMTQiIGxlbmd0aEFkanVzdD0ic3BhY2luZyIgdGV4dExlbmd0aD0iMjY3IiB4PSI2NDIiIHk9IjEwMzIuOTUzMSI+TWVuZ2hhc2lsa2FuIGxhcG9yYW4gZGFuIGluZm9ybWFzaSBTRE08L3RleHQ+PHBhdGggZD0iTTU4MiwxMDI3LjIxMDkgTDU5MiwxMDI3LjIxMDkgQzYwNywxMDI3LjIxMDkgNjA3LDEwMjcuMjEwOSA2MjIsMTAyNy4yMTA5IEw2MzIsMTAyNy4yMTA5ICIgZmlsbD0ibm9uZSIgc3R5bGU9InN0cm9rZTojMTgxODE4O3N0cm9rZS13aWR0aDoxLjA7Ii8+PHBhdGggZD0iTTQ3MCw5NzIuMjI2NiBMNDgwLDk3Mi4yMjY2IEM0OTUsOTcyLjIyNjYgNDk1LDEwMjcuMjEwOSA1MTAsMTAyNy4yMTA5IEw1MjAsMTAyNy4yMTA5ICIgZmlsbD0ibm9uZSIgc3R5bGU9InN0cm9rZTojMTgxODE4O3N0cm9rZS13aWR0aDoxLjA7Ii8+PHBhdGggZD0iTTM0Myw5NzIuMjI2NiBMMzUzLDk3Mi4yMjY2IEMzNjgsOTcyLjIyNjYgMzY4LDk3Mi4yMjY2IDM4Myw5NzIuMjI2NiBMMzkzLDk3Mi4yMjY2ICIgZmlsbD0ibm9uZSIgc3R5bGU9InN0cm9rZTojMTgxODE4O3N0cm9rZS13aWR0aDoxLjA7Ii8+PHJlY3QgZmlsbD0iI0YxRjFGMSIgaGVpZ2h0PSIzNC45ODQ0IiByeD0iMTIuNSIgcnk9IjEyLjUiIHN0eWxlPSJzdHJva2U6IzE4MTgxODtzdHJva2Utd2lkdGg6MS41OyIgd2lkdGg9IjU1IiB4PSIzOTMiIHk9IjEyODQuNjQwNiIvPjx0ZXh0IGZpbGw9IiMwMDAwMDAiIGZvbnQtZmFtaWx5PSJzYW5zLXNlcmlmIiBmb250LXNpemU9IjE0IiBsZW5ndGhBZGp1c3Q9InNwYWNpbmciIHRleHRMZW5ndGg9IjM1IiB4PSI0MDMiIHk9IjEzMDcuODc1Ij5Nb2RlbDwvdGV4dD48cmVjdCBmaWxsPSIjRjFGMUYxIiBoZWlnaHQ9IjM0Ljk4NDQiIHJ4PSIxMi41IiByeT0iMTIuNSIgc3R5bGU9InN0cm9rZTojMTgxODE4O3N0cm9rZS13aWR0aDoxLjU7IiB3aWR0aD0iNTUiIHg9IjQ5OCIgeT0iMTExOS42ODc1Ii8+PHRleHQgZmlsbD0iIzAwMDAwMCIgZm9udC1mYW1pbHk9InNhbnMtc2VyaWYiIGZvbnQtc2l6ZT0iMTQiIGxlbmd0aEFkanVzdD0ic3BhY2luZyIgdGV4dExlbmd0aD0iMzUiIHg9IjUwOCIgeT0iMTE0Mi45MjE5Ij5JbnB1dDwvdGV4dD48cmVjdCBmaWxsPSIjRjFGMUYxIiBoZWlnaHQ9IjM0Ljk4NDQiIHJ4PSIxMi41IiByeT0iMTIuNSIgc3R5bGU9InN0cm9rZTojMTgxODE4O3N0cm9rZS13aWR0aDoxLjU7IiB3aWR0aD0iMjQ4IiB4PSI2MDMiIHk9IjEwNjQuNzAzMSIvPjx0ZXh0IGZpbGw9IiMwMDAwMDAiIGZvbnQtZmFtaWx5PSJzYW5zLXNlcmlmIiBmb250LXNpemU9IjE0IiBsZW5ndGhBZGp1c3Q9InNwYWNpbmciIHRleHRMZW5ndGg9IjIyOCIgeD0iNjEzIiB5PSIxMDg3LjkzNzUiPlNpc3RlbSBJbmZvcm1hc2kgQWt1bnRhbnNpIChTSUEpPC90ZXh0PjxwYXRoIGQ9Ik01NTMsMTEzNy4xNzk3IEw1NjMsMTEzNy4xNzk3IEM1NzgsMTEzNy4xNzk3IDU3OCwxMDgyLjE5NTMgNTkzLDEwODIuMTk1MyBMNjAzLDEwODIuMTk1MyAiIGZpbGw9Im5vbmUiIHN0eWxlPSJzdHJva2U6IzE4MTgxODtzdHJva2Utd2lkdGg6MS4wOyIvPjxyZWN0IGZpbGw9IiNGMUYxRjEiIGhlaWdodD0iMzQuOTg0NCIgcng9IjEyLjUiIHJ5PSIxMi41IiBzdHlsZT0ic3Ryb2tlOiMxODE4MTg7c3Ryb2tlLXdpZHRoOjEuNTsiIHdpZHRoPSIyMzEiIHg9IjYwMyIgeT0iMTExOS42ODc1Ii8+PHRleHQgZmlsbD0iIzAwMDAwMCIgZm9udC1mYW1pbHk9InNhbnMtc2VyaWYiIGZvbnQtc2l6ZT0iMTQiIGxlbmd0aEFkanVzdD0ic3BhY2luZyIgdGV4dExlbmd0aD0iMjExIiB4PSI2MTMiIHk9IjExNDIuOTIxOSI+UGVuZWxpdGlhbiBTdW1iZXIgRGF5YSBNYW51c2lhPC90ZXh0PjxwYXRoIGQ9Ik01NTMsMTEzNy4xNzk3IEw1NjMsMTEzNy4xNzk3IEM1NzgsMTEzNy4xNzk3IDU3OCwxMTM3LjE3OTcgNTkzLDExMzcuMTc5NyBMNjAzLDExMzcuMTc5NyAiIGZpbGw9Im5vbmUiIHN0eWxlPSJzdHJva2U6IzE4MTgxODtzdHJva2Utd2lkdGg6MS4wOyIvPjxyZWN0IGZpbGw9IiNGMUYxRjEiIGhlaWdodD0iMzQuOTg0NCIgcng9IjEyLjUiIHJ5PSIxMi41IiBzdHlsZT0ic3Ryb2tlOiMxODE4MTg7c3Ryb2tlLXdpZHRoOjEuNTsiIHdpZHRoPSIyMjQiIHg9IjYwMyIgeT0iMTE3NC42NzE5Ii8+PHRleHQgZmlsbD0iIzAwMDAwMCIgZm9udC1mYW1pbHk9InNhbnMtc2VyaWYiIGZvbnQtc2l6ZT0iMTQiIGxlbmd0aEFkanVzdD0ic3BhY2luZyIgdGV4dExlbmd0aD0iMjA0IiB4PSI2MTMiIHk9IjExOTcuOTA2MyI+SW50ZWxpamVuIFN1bWJlciBEYXlhIE1hbnVzaWE8L3RleHQ+PHBhdGggZD0iTTU1MywxMTM3LjE3OTcgTDU2MywxMTM3LjE3OTcgQzU3OCwxMTM3LjE3OTcgNTc4LDExOTIuMTY0MSA1OTMsMTE5Mi4xNjQxIEw2MDMsMTE5Mi4xNjQxICIgZmlsbD0ibm9uZSIgc3R5bGU9InN0cm9rZTojMTgxODE4O3N0cm9rZS13aWR0aDoxLjA7Ii8+PHBhdGggZD0iTTQ0OCwxMzAyLjEzMjggTDQ1OCwxMzAyLjEzMjggQzQ3MywxMzAyLjEzMjggNDczLDExMzcuMTc5NyA0ODgsMTEzNy4xNzk3IEw0OTgsMTEzNy4xNzk3ICIgZmlsbD0ibm9uZSIgc3R5bGU9InN0cm9rZTojMTgxODE4O3N0cm9rZS13aWR0aDoxLjA7Ii8+PHJlY3QgZmlsbD0iI0YxRjFGMSIgaGVpZ2h0PSIzNC45ODQ0IiByeD0iMTIuNSIgcnk9IjEyLjUiIHN0eWxlPSJzdHJva2U6IzE4MTgxODtzdHJva2Utd2lkdGg6MS41OyIgd2lkdGg9IjYyIiB4PSI0OTgiIHk9IjEzNjcuMTE3MiIvPjx0ZXh0IGZpbGw9IiMwMDAwMDAiIGZvbnQtZmFtaWx5PSJzYW5zLXNlcmlmIiBmb250LXNpemU9IjE0IiBsZW5ndGhBZGp1c3Q9InNwYWNpbmciIHRleHRMZW5ndGg9IjQyIiB4PSI1MDgiIHk9IjEzOTAuMzUxNiI+T3V0cHV0PC90ZXh0PjxyZWN0IGZpbGw9IiNGMUYxRjEiIGhlaWdodD0iMzQuOTg0NCIgcng9IjEyLjUiIHJ5PSIxMi41IiBzdHlsZT0ic3Ryb2tlOiMxODE4MTg7c3Ryb2tlLXdpZHRoOjEuNTsiIHdpZHRoPSIxMzkiIHg9IjYxMCIgeT0iMTIyOS42NTYzIi8+PHRleHQgZmlsbD0iIzAwMDAwMCIgZm9udC1mYW1pbHk9InNhbnMtc2VyaWYiIGZvbnQtc2l6ZT0iMTQiIGxlbmd0aEFkanVzdD0ic3BhY2luZyIgdGV4dExlbmd0aD0iMTE5IiB4PSI2MjAiIHk9IjEyNTIuODkwNiI+UGVyZW5jYW5hYW4gS2VyamE8L3RleHQ+PHBhdGggZD0iTTU2MCwxMzg0LjYwOTQgTDU3MCwxMzg0LjYwOTQgQzU4NSwxMzg0LjYwOTQgNTg1LDEyNDcuMTQ4NCA2MDAsMTI0Ny4xNDg0IEw2MTAsMTI0Ny4xNDg0ICIgZmlsbD0ibm9uZSIgc3R5bGU9InN0cm9rZTojMTgxODE4O3N0cm9rZS13aWR0aDoxLjA7Ii8+PHJlY3QgZmlsbD0iI0YxRjFGMSIgaGVpZ2h0PSIzNC45ODQ0IiByeD0iMTIuNSIgcnk9IjEyLjUiIHN0eWxlPSJzdHJva2U6IzE4MTgxODtzdHJva2Utd2lkdGg6MS41OyIgd2lkdGg9IjkwIiB4PSI2MTAiIHk9IjEyODQuNjQwNiIvPjx0ZXh0IGZpbGw9IiMwMDAwMDAiIGZvbnQtZmFtaWx5PSJzYW5zLXNlcmlmIiBmb250LXNpemU9IjE0IiBsZW5ndGhBZGp1c3Q9InNwYWNpbmciIHRleHRMZW5ndGg9IjcwIiB4PSI2MjAiIHk9IjEzMDcuODc1Ij5QZXJla3J1dGFuPC90ZXh0PjxwYXRoIGQ9Ik01NjAsMTM4NC42MDk0IEw1NzAsMTM4NC42MDk0IEM1ODUsMTM4NC42MDk0IDU4NSwxMzAyLjEzMjggNjAwLDEzMDIuMTMyOCBMNjEwLDEzMDIuMTMyOCAiIGZpbGw9Im5vbmUiIHN0eWxlPSJzdHJva2U6IzE4MTgxODtzdHJva2Utd2lkdGg6MS4wOyIvPjxyZWN0IGZpbGw9IiNGMUYxRjEiIGhlaWdodD0iMzQuOTg0NCIgcng9IjEyLjUiIHJ5PSIxMi41IiBzdHlsZT0ic3Ryb2tlOiMxODE4MTg7c3Ryb2tlLXdpZHRoOjEuNTsiIHdpZHRoPSIxODkiIHg9IjYxMCIgeT0iMTMzOS42MjUiLz48dGV4dCBmaWxsPSIjMDAwMDAwIiBmb250LWZhbWlseT0ic2Fucy1zZXJpZiIgZm9udC1zaXplPSIxNCIgbGVuZ3RoQWRqdXN0PSJzcGFjaW5nIiB0ZXh0TGVuZ3RoPSIxNjkiIHg9IjYyMCIgeT0iMTM2Mi44NTk0Ij5NYW5hamVtZW4gQW5na2F0YW4gS2VyamE8L3RleHQ+PHBhdGggZD0iTTU2MCwxMzg0LjYwOTQgTDU3MCwxMzg0LjYwOTQgQzU4NSwxMzg0LjYwOTQgNTg1LDEzNTcuMTE3MiA2MDAsMTM1Ny4xMTcyIEw2MTAsMTM1Ny4xMTcyICIgZmlsbD0ibm9uZSIgc3R5bGU9InN0cm9rZTojMTgxODE4O3N0cm9rZS13aWR0aDoxLjA7Ii8+PHJlY3QgZmlsbD0iI0YxRjFGMSIgaGVpZ2h0PSIzNC45ODQ0IiByeD0iMTIuNSIgcnk9IjEyLjUiIHN0eWxlPSJzdHJva2U6IzE4MTgxODtzdHJva2Utd2lkdGg6MS41OyIgd2lkdGg9IjgzIiB4PSI2MTAiIHk9IjEzOTQuNjA5NCIvPjx0ZXh0IGZpbGw9IiMwMDAwMDAiIGZvbnQtZmFtaWx5PSJzYW5zLXNlcmlmIiBmb250LXNpemU9IjE0IiBsZW5ndGhBZGp1c3Q9InNwYWNpbmciIHRleHRMZW5ndGg9IjYzIiB4PSI2MjAiIHk9IjE0MTcuODQzOCI+VHVuamFuZ2FuPC90ZXh0PjxwYXRoIGQ9Ik01NjAsMTM4NC42MDk0IEw1NzAsMTM4NC42MDk0IEM1ODUsMTM4NC42MDk0IDU4NSwxNDEyLjEwMTYgNjAwLDE0MTIuMTAxNiBMNjEwLDE0MTIuMTAxNiAiIGZpbGw9Im5vbmUiIHN0eWxlPSJzdHJva2U6IzE4MTgxODtzdHJva2Utd2lkdGg6MS4wOyIvPjxyZWN0IGZpbGw9IiNGMUYxRjEiIGhlaWdodD0iMzQuOTg0NCIgcng9IjEyLjUiIHJ5PSIxMi41IiBzdHlsZT0ic3Ryb2tlOiMxODE4MTg7c3Ryb2tlLXdpZHRoOjEuNTsiIHdpZHRoPSI2OSIgeD0iNjEwIiB5PSIxNDQ5LjU5MzgiLz48dGV4dCBmaWxsPSIjMDAwMDAwIiBmb250LWZhbWlseT0ic2Fucy1zZXJpZiIgZm9udC1zaXplPSIxNCIgbGVuZ3RoQWRqdXN0PSJzcGFjaW5nIiB0ZXh0TGVuZ3RoPSI0OSIgeD0iNjIwIiB5PSIxNDcyLjgyODEiPkJlbmVmaXQ8L3RleHQ+PHBhdGggZD0iTTU2MCwxMzg0LjYwOTQgTDU3MCwxMzg0LjYwOTQgQzU4NSwxMzg0LjYwOTQgNTg1LDE0NjcuMDg1OSA2MDAsMTQ2Ny4wODU5IEw2MTAsMTQ2Ny4wODU5ICIgZmlsbD0ibm9uZSIgc3R5bGU9InN0cm9rZTojMTgxODE4O3N0cm9rZS13aWR0aDoxLjA7Ii8+PHJlY3QgZmlsbD0iI0YxRjFGMSIgaGVpZ2h0PSIzNC45ODQ0IiByeD0iMTIuNSIgcnk9IjEyLjUiIHN0eWxlPSJzdHJva2U6IzE4MTgxODtzdHJva2Utd2lkdGg6MS41OyIgd2lkdGg9IjE2MCIgeD0iNjEwIiB5PSIxNTA0LjU3ODEiLz48dGV4dCBmaWxsPSIjMDAwMDAwIiBmb250LWZhbWlseT0ic2Fucy1zZXJpZiIgZm9udC1zaXplPSIxNCIgbGVuZ3RoQWRqdXN0PSJzcGFjaW5nIiB0ZXh0TGVuZ3RoPSIxNDAiIHg9IjYyMCIgeT0iMTUyNy44MTI1Ij5QZWxhcG9yYW4gTGluZ2t1bmdhbjwvdGV4dD48cGF0aCBkPSJNNTYwLDEzODQuNjA5NCBMNTcwLDEzODQuNjA5NCBDNTg1LDEzODQuNjA5NCA1ODUsMTUyMi4wNzAzIDYwMCwxNTIyLjA3MDMgTDYxMCwxNTIyLjA3MDMgIiBmaWxsPSJub25lIiBzdHlsZT0ic3Ryb2tlOiMxODE4MTg7c3Ryb2tlLXdpZHRoOjEuMDsiLz48cGF0aCBkPSJNNDQ4LDEzMDIuMTMyOCBMNDU4LDEzMDIuMTMyOCBDNDczLDEzMDIuMTMyOCA0NzMsMTM4NC42MDk0IDQ4OCwxMzg0LjYwOTQgTDQ5OCwxMzg0LjYwOTQgIiBmaWxsPSJub25lIiBzdHlsZT0ic3Ryb2tlOiMxODE4MTg7c3Ryb2tlLXdpZHRoOjEuMDsiLz48cGF0aCBkPSJNMzQzLDk3Mi4yMjY2IEwzNTMsOTcyLjIyNjYgQzM2OCw5NzIuMjI2NiAzNjgsMTMwMi4xMzI4IDM4MywxMzAyLjEzMjggTDM5MywxMzAyLjEzMjggIiBmaWxsPSJub25lIiBzdHlsZT0ic3Ryb2tlOiMxODE4MTg7c3Ryb2tlLXdpZHRoOjEuMDsiLz48cmVjdCBmaWxsPSIjRjFGMUYxIiBoZWlnaHQ9IjM0Ljk4NDQiIHJ4PSIxMi41IiByeT0iMTIuNSIgc3R5bGU9InN0cm9rZTojMTgxODE4O3N0cm9rZS13aWR0aDoxLjU7IiB3aWR0aD0iMTE4IiB4PSIzOTMiIHk9IjE3MjQuNTE1NiIvPjx0ZXh0IGZpbGw9IiMwMDAwMDAiIGZvbnQtZmFtaWx5PSJzYW5zLXNlcmlmIiBmb250LXNpemU9IjE0IiBsZW5ndGhBZGp1c3Q9InNwYWNpbmciIHRleHRMZW5ndGg9Ijk4IiB4PSI0MDMiIHk9IjE3NDcuNzUiPlBlbmdvbGFoYW4gU0RNPC90ZXh0PjxyZWN0IGZpbGw9IiNGMUYxRjEiIGhlaWdodD0iMzQuOTg0NCIgcng9IjEyLjUiIHJ5PSIxMi41IiBzdHlsZT0ic3Ryb2tlOiMxODE4MTg7c3Ryb2tlLXdpZHRoOjEuNTsiIHdpZHRoPSIxMjUiIHg9IjU2MSIgeT0iMTU1OS41NjI1Ii8+PHRleHQgZmlsbD0iIzAwMDAwMCIgZm9udC1mYW1pbHk9InNhbnMtc2VyaWYiIGZvbnQtc2l6ZT0iMTQiIGxlbmd0aEFkanVzdD0ic3BhY2luZyIgdGV4dExlbmd0aD0iMTA1IiB4PSI1NzEiIHk9IjE1ODIuNzk2OSI+UGVyZW5jYW5hYW4gU0RNPC90ZXh0PjxyZWN0IGZpbGw9IiNGMUYxRjEiIGhlaWdodD0iMzQuOTg0NCIgcng9IjEyLjUiIHJ5PSIxMi41IiBzdHlsZT0ic3Ryb2tlOiMxODE4MTg7c3Ryb2tlLXdpZHRoOjEuNTsiIHdpZHRoPSIyNzkiIHg9IjczNiIgeT0iMTU1OS41NjI1Ii8+PHRleHQgZmlsbD0iIzAwMDAwMCIgZm9udC1mYW1pbHk9InNhbnMtc2VyaWYiIGZvbnQtc2l6ZT0iMTQiIGxlbmd0aEFkanVzdD0ic3BhY2luZyIgdGV4dExlbmd0aD0iMjU5IiB4PSI3NDYiIHk9IjE1ODIuNzk2OSI+QW5hbGlzaXMga2VhaGxpYW4sIHBhc2FyIHRlbmFnYSBrZXJqYTwvdGV4dD48cGF0aCBkPSJNNjg2LDE1NzcuMDU0NyBMNjk2LDE1NzcuMDU0NyBDNzExLDE1NzcuMDU0NyA3MTEsMTU3Ny4wNTQ3IDcyNiwxNTc3LjA1NDcgTDczNiwxNTc3LjA1NDcgIiBmaWxsPSJub25lIiBzdHlsZT0ic3Ryb2tlOiMxODE4MTg7c3Ryb2tlLXdpZHRoOjEuMDsiLz48cGF0aCBkPSJNNTExLDE3NDIuMDA3OCBMNTIxLDE3NDIuMDA3OCBDNTM2LDE3NDIuMDA3OCA1MzYsMTU3Ny4wNTQ3IDU1MSwxNTc3LjA1NDcgTDU2MSwxNTc3LjA1NDcgIiBmaWxsPSJub25lIiBzdHlsZT0ic3Ryb2tlOiMxODE4MTg7c3Ryb2tlLXdpZHRoOjEuMDsiLz48cmVjdCBmaWxsPSIjRjFGMUYxIiBoZWlnaHQ9IjM0Ljk4NDQiIHJ4PSIxMi41IiByeT0iMTIuNSIgc3R5bGU9InN0cm9rZTojMTgxODE4O3N0cm9rZS13aWR0aDoxLjU7IiB3aWR0aD0iOTEiIHg9IjU2MSIgeT0iMTYxNC41NDY5Ii8+PHRleHQgZmlsbD0iIzAwMDAwMCIgZm9udC1mYW1pbHk9InNhbnMtc2VyaWYiIGZvbnQtc2l6ZT0iMTQiIGxlbmd0aEFkanVzdD0ic3BhY2luZyIgdGV4dExlbmd0aD0iNzEiIHg9IjU3MSIgeT0iMTYzNy43ODEzIj5QZW5lcmltYWFuPC90ZXh0PjxyZWN0IGZpbGw9IiNGMUYxRjEiIGhlaWdodD0iMzQuOTg0NCIgcng9IjEyLjUiIHJ5PSIxMi41IiBzdHlsZT0ic3Ryb2tlOiMxODE4MTg7c3Ryb2tlLXdpZHRoOjEuNTsiIHdpZHRoPSIxNjEiIHg9IjcwMiIgeT0iMTYxNC41NDY5Ii8+PHRleHQgZmlsbD0iIzAwMDAwMCIgZm9udC1mYW1pbHk9InNhbnMtc2VyaWYiIGZvbnQtc2l6ZT0iMTQiIGxlbmd0aEFkanVzdD0ic3BhY2luZyIgdGV4dExlbmd0aD0iMTQxIiB4PSI3MTIiIHk9IjE2MzcuNzgxMyI+UHJvc2VzIHJla3J1dG1lbiBTRE08L3RleHQ+PHBhdGggZD0iTTY1MiwxNjMyLjAzOTEgTDY2MiwxNjMyLjAzOTEgQzY3NywxNjMyLjAzOTEgNjc3LDE2MzIuMDM5MSA2OTIsMTYzMi4wMzkxIEw3MDIsMTYzMi4wMzkxICIgZmlsbD0ibm9uZSIgc3R5bGU9InN0cm9rZTojMTgxODE4O3N0cm9rZS13aWR0aDoxLjA7Ii8+PHBhdGggZD0iTTUxMSwxNzQyLjAwNzggTDUyMSwxNzQyLjAwNzggQzUzNiwxNzQyLjAwNzggNTM2LDE2MzIuMDM5MSA1NTEsMTYzMi4wMzkxIEw1NjEsMTYzMi4wMzkxICIgZmlsbD0ibm9uZSIgc3R5bGU9InN0cm9rZTojMTgxODE4O3N0cm9rZS13aWR0aDoxLjA7Ii8+PHJlY3QgZmlsbD0iI0YxRjFGMSIgaGVpZ2h0PSIzNC45ODQ0IiByeD0iMTIuNSIgcnk9IjEyLjUiIHN0eWxlPSJzdHJva2U6IzE4MTgxODtzdHJva2Utd2lkdGg6MS41OyIgd2lkdGg9Ijg0IiB4PSI1NjEiIHk9IjE2NjkuNTMxMyIvPjx0ZXh0IGZpbGw9IiMwMDAwMDAiIGZvbnQtZmFtaWx5PSJzYW5zLXNlcmlmIiBmb250LXNpemU9IjE0IiBsZW5ndGhBZGp1c3Q9InNwYWNpbmciIHRleHRMZW5ndGg9IjY0IiB4PSI1NzEiIHk9IjE2OTIuNzY1NiI+UGVtaWxpaGFuPC90ZXh0PjxyZWN0IGZpbGw9IiNGMUYxRjEiIGhlaWdodD0iMzQuOTg0NCIgcng9IjEyLjUiIHJ5PSIxMi41IiBzdHlsZT0ic3Ryb2tlOiMxODE4MTg7c3Ryb2tlLXdpZHRoOjEuNTsiIHdpZHRoPSIyNDQiIHg9IjY5NSIgeT0iMTY2OS41MzEzIi8+PHRleHQgZmlsbD0iIzAwMDAwMCIgZm9udC1mYW1pbHk9InNhbnMtc2VyaWYiIGZvbnQtc2l6ZT0iMTQiIGxlbmd0aEFkanVzdD0ic3BhY2luZyIgdGV4dExlbmd0aD0iMjI0IiB4PSI3MDUiIHk9IjE2OTIuNzY1NiI+U2VsZWtzaSBTRE0gYmVyZGFzYXJrYW4gZXZhbHVhc2k8L3RleHQ+PHBhdGggZD0iTTY0NSwxNjg3LjAyMzQgTDY1NSwxNjg3LjAyMzQgQzY3MCwxNjg3LjAyMzQgNjcwLDE2ODcuMDIzNCA2ODUsMTY4Ny4wMjM0IEw2OTUsMTY4Ny4wMjM0ICIgZmlsbD0ibm9uZSIgc3R5bGU9InN0cm9rZTojMTgxODE4O3N0cm9rZS13aWR0aDoxLjA7Ii8+PHBhdGggZD0iTTUxMSwxNzQyLjAwNzggTDUyMSwxNzQyLjAwNzggQzUzNiwxNzQyLjAwNzggNTM2LDE2ODcuMDIzNCA1NTEsMTY4Ny4wMjM0IEw1NjEsMTY4Ny4wMjM0ICIgZmlsbD0ibm9uZSIgc3R5bGU9InN0cm9rZTojMTgxODE4O3N0cm9rZS13aWR0aDoxLjA7Ii8+PHJlY3QgZmlsbD0iI0YxRjFGMSIgaGVpZ2h0PSIzNC45ODQ0IiByeD0iMTIuNSIgcnk9IjEyLjUiIHN0eWxlPSJzdHJva2U6IzE4MTgxODtzdHJva2Utd2lkdGg6MS41OyIgd2lkdGg9Ijk3IiB4PSI1NjEiIHk9IjE3MjQuNTE1NiIvPjx0ZXh0IGZpbGw9IiMwMDAwMDAiIGZvbnQtZmFtaWx5PSJzYW5zLXNlcmlmIiBmb250LXNpemU9IjE0IiBsZW5ndGhBZGp1c3Q9InNwYWNpbmciIHRleHRMZW5ndGg9Ijc3IiB4PSI1NzEiIHk9IjE3NDcuNzUiPlNvc2lhbGlzYXNpPC90ZXh0PjxyZWN0IGZpbGw9IiNGMUYxRjEiIGhlaWdodD0iMzQuOTg0NCIgcng9IjEyLjUiIHJ5PSIxMi41IiBzdHlsZT0ic3Ryb2tlOiMxODE4MTg7c3Ryb2tlLXdpZHRoOjEuNTsiIHdpZHRoPSIxMzkiIHg9IjcwOCIgeT0iMTcyNC41MTU2Ii8+PHRleHQgZmlsbD0iIzAwMDAwMCIgZm9udC1mYW1pbHk9InNhbnMtc2VyaWYiIGZvbnQtc2l6ZT0iMTQiIGxlbmd0aEFkanVzdD0ic3BhY2luZyIgdGV4dExlbmd0aD0iMTE5IiB4PSI3MTgiIHk9IjE3NDcuNzUiPkFkYXB0YXNpIFNETSBiYXJ1PC90ZXh0PjxwYXRoIGQ9Ik02NTgsMTc0Mi4wMDc4IEw2NjgsMTc0Mi4wMDc4IEM2ODMsMTc0Mi4wMDc4IDY4MywxNzQyLjAwNzggNjk4LDE3NDIuMDA3OCBMNzA4LDE3NDIuMDA3OCAiIGZpbGw9Im5vbmUiIHN0eWxlPSJzdHJva2U6IzE4MTgxODtzdHJva2Utd2lkdGg6MS4wOyIvPjxwYXRoIGQ9Ik01MTEsMTc0Mi4wMDc4IEw1MjEsMTc0Mi4wMDc4IEM1MzYsMTc0Mi4wMDc4IDUzNiwxNzQyLjAwNzggNTUxLDE3NDIuMDA3OCBMNTYxLDE3NDIuMDA3OCAiIGZpbGw9Im5vbmUiIHN0eWxlPSJzdHJva2U6IzE4MTgxODtzdHJva2Utd2lkdGg6MS4wOyIvPjxyZWN0IGZpbGw9IiNGMUYxRjEiIGhlaWdodD0iMzQuOTg0NCIgcng9IjEyLjUiIHJ5PSIxMi41IiBzdHlsZT0ic3Ryb2tlOiMxODE4MTg7c3Ryb2tlLXdpZHRoOjEuNTsiIHdpZHRoPSIyMDMiIHg9IjU2MSIgeT0iMTc3OS41Ii8+PHRleHQgZmlsbD0iIzAwMDAwMCIgZm9udC1mYW1pbHk9InNhbnMtc2VyaWYiIGZvbnQtc2l6ZT0iMTQiIGxlbmd0aEFkanVzdD0ic3BhY2luZyIgdGV4dExlbmd0aD0iMTgzIiB4PSI1NzEiIHk9IjE4MDIuNzM0NCI+UGVsYXRpaGFuIGRhbiBQZW5nZW1iYW5nYW48L3RleHQ+PHJlY3QgZmlsbD0iI0YxRjFGMSIgaGVpZ2h0PSIzNC45ODQ0IiByeD0iMTIuNSIgcnk9IjEyLjUiIHN0eWxlPSJzdHJva2U6IzE4MTgxODtzdHJva2Utd2lkdGg6MS41OyIgd2lkdGg9IjE4OCIgeD0iODE0IiB5PSIxNzc5LjUiLz48dGV4dCBmaWxsPSIjMDAwMDAwIiBmb250LWZhbWlseT0ic2Fucy1zZXJpZiIgZm9udC1zaXplPSIxNCIgbGVuZ3RoQWRqdXN0PSJzcGFjaW5nIiB0ZXh0TGVuZ3RoPSIxNjgiIHg9IjgyNCIgeT0iMTgwMi43MzQ0Ij5NZW5pbmdrYXRrYW4ga2luZXJqYSBTRE08L3RleHQ+PHBhdGggZD0iTTc2NCwxNzk2Ljk5MjIgTDc3NCwxNzk2Ljk5MjIgQzc4OSwxNzk2Ljk5MjIgNzg5LDE3OTYuOTkyMiA4MDQsMTc5Ni45OTIyIEw4MTQsMTc5Ni45OTIyICIgZmlsbD0ibm9uZSIgc3R5bGU9InN0cm9rZTojMTgxODE4O3N0cm9rZS13aWR0aDoxLjA7Ii8+PHBhdGggZD0iTTUxMSwxNzQyLjAwNzggTDUyMSwxNzQyLjAwNzggQzUzNiwxNzQyLjAwNzggNTM2LDE3OTYuOTkyMiA1NTEsMTc5Ni45OTIyIEw1NjEsMTc5Ni45OTIyICIgZmlsbD0ibm9uZSIgc3R5bGU9InN0cm9rZTojMTgxODE4O3N0cm9rZS13aWR0aDoxLjA7Ii8+PHJlY3QgZmlsbD0iI0YxRjFGMSIgaGVpZ2h0PSIzNC45ODQ0IiByeD0iMTIuNSIgcnk9IjEyLjUiIHN0eWxlPSJzdHJva2U6IzE4MTgxODtzdHJva2Utd2lkdGg6MS41OyIgd2lkdGg9IjEyNSIgeD0iNTYxIiB5PSIxODM0LjQ4NDQiLz48dGV4dCBmaWxsPSIjMDAwMDAwIiBmb250LWZhbWlseT0ic2Fucy1zZXJpZiIgZm9udC1zaXplPSIxNCIgbGVuZ3RoQWRqdXN0PSJzcGFjaW5nIiB0ZXh0TGVuZ3RoPSIxMDUiIHg9IjU3MSIgeT0iMTg1Ny43MTg4Ij5QZW5pbGFpYW4gS2VyamE8L3RleHQ+PHJlY3QgZmlsbD0iI0YxRjFGMSIgaGVpZ2h0PSIzNC45ODQ0IiByeD0iMTIuNSIgcnk9IjEyLjUiIHN0eWxlPSJzdHJva2U6IzE4MTgxODtzdHJva2Utd2lkdGg6MS41OyIgd2lkdGg9IjMwMCIgeD0iNzM2IiB5PSIxODM0LjQ4NDQiLz48dGV4dCBmaWxsPSIjMDAwMDAwIiBmb250LWZhbWlseT0ic2Fucy1zZXJpZiIgZm9udC1zaXplPSIxNCIgbGVuZ3RoQWRqdXN0PSJzcGFjaW5nIiB0ZXh0TGVuZ3RoPSIyODAiIHg9Ijc0NiIgeT0iMTg1Ny43MTg4Ij5FdmFsdWFzaSBraW5lcmphIGRlbmdhbiBzdGFuZGFyIHRlcnRlbnR1PC90ZXh0PjxwYXRoIGQ9Ik02ODYsMTg1MS45NzY2IEw2OTYsMTg1MS45NzY2IEM3MTEsMTg1MS45NzY2IDcxMSwxODUxLjk3NjYgNzI2LDE4NTEuOTc2NiBMNzM2LDE4NTEuOTc2NiAiIGZpbGw9Im5vbmUiIHN0eWxlPSJzdHJva2U6IzE4MTgxODtzdHJva2Utd2lkdGg6MS4wOyIvPjxwYXRoIGQ9Ik01MTEsMTc0Mi4wMDc4IEw1MjEsMTc0Mi4wMDc4IEM1MzYsMTc0Mi4wMDc4IDUzNiwxODUxLjk3NjYgNTUxLDE4NTEuOTc2NiBMNTYxLDE4NTEuOTc2NiAiIGZpbGw9Im5vbmUiIHN0eWxlPSJzdHJva2U6IzE4MTgxODtzdHJva2Utd2lkdGg6MS4wOyIvPjxyZWN0IGZpbGw9IiNGMUYxRjEiIGhlaWdodD0iMzQuOTg0NCIgcng9IjEyLjUiIHJ5PSIxMi41IiBzdHlsZT0ic3Ryb2tlOiMxODE4MTg7c3Ryb2tlLXdpZHRoOjEuNTsiIHdpZHRoPSIyMDQiIHg9IjU2MSIgeT0iMTg4OS40Njg4Ii8+PHRleHQgZmlsbD0iIzAwMDAwMCIgZm9udC1mYW1pbHk9InNhbnMtc2VyaWYiIGZvbnQtc2l6ZT0iMTQiIGxlbmd0aEFkanVzdD0ic3BhY2luZyIgdGV4dExlbmd0aD0iMTg0IiB4PSI1NzEiIHk9IjE5MTIuNzAzMSI+UHJvbW9zaSwgTXV0YXNpLCBQZW1lY2F0YW48L3RleHQ+PHJlY3QgZmlsbD0iI0YxRjFGMSIgaGVpZ2h0PSIzNC45ODQ0IiByeD0iMTIuNSIgcnk9IjEyLjUiIHN0eWxlPSJzdHJva2U6IzE4MTgxODtzdHJva2Utd2lkdGg6MS41OyIgd2lkdGg9IjI1MSIgeD0iODE1IiB5PSIxODg5LjQ2ODgiLz48dGV4dCBmaWxsPSIjMDAwMDAwIiBmb250LWZhbWlseT0ic2Fucy1zZXJpZiIgZm9udC1zaXplPSIxNCIgbGVuZ3RoQWRqdXN0PSJzcGFjaW5nIiB0ZXh0TGVuZ3RoPSIyMzEiIHg9IjgyNSIgeT0iMTkxMi43MDMxIj5QZW5pbGFpYW4gbmlsYWkgU0RNIGRpIG9yZ2FuaXNhc2k8L3RleHQ+PHBhdGggZD0iTTc2NSwxOTA2Ljk2MDkgTDc3NSwxOTA2Ljk2MDkgQzc5MCwxOTA2Ljk2MDkgNzkwLDE5MDYuOTYwOSA4MDUsMTkwNi45NjA5IEw4MTUsMTkwNi45NjA5ICIgZmlsbD0ibm9uZSIgc3R5bGU9InN0cm9rZTojMTgxODE4O3N0cm9rZS13aWR0aDoxLjA7Ii8+PHBhdGggZD0iTTUxMSwxNzQyLjAwNzggTDUyMSwxNzQyLjAwNzggQzUzNiwxNzQyLjAwNzggNTM2LDE5MDYuOTYwOSA1NTEsMTkwNi45NjA5IEw1NjEsMTkwNi45NjA5ICIgZmlsbD0ibm9uZSIgc3R5bGU9InN0cm9rZTojMTgxODE4O3N0cm9rZS13aWR0aDoxLjA7Ii8+PHBhdGggZD0iTTM0Myw5NzIuMjI2NiBMMzUzLDk3Mi4yMjY2IEMzNjgsOTcyLjIyNjYgMzY4LDE3NDIuMDA3OCAzODMsMTc0Mi4wMDc4IEwzOTMsMTc0Mi4wMDc4ICIgZmlsbD0ibm9uZSIgc3R5bGU9InN0cm9rZTojMTgxODE4O3N0cm9rZS13aWR0aDoxLjA7Ii8+PCEtLVNSQz1bVExOQlNqZkE0RHRwNVJ0NGJFRG83NVZnYmJTWG5lY25oSGtOOFRjdEtHRTNIWkVnVVAzWXh0RGM5RjdBbEhpT1pSZkZkcHh6cTFTVnM4TFFjUkJjUFoyWWNWOTFRZmdRZk5LclVxTXBNQi1CZW1kbGMwZXNxSWtjdU1td2NuR05XejY4TmlNaW4wTjUxYXlaQWlKaWY1SFNpSTZybnVXY244ZmdEaG9ITVdwMWNPUUZSekZQSFV6S25ZZ1E1TjRMcjVPNXpiR2E2b3pEbVlSeVliZDBkU3JiVmdYUzNFYlNzUmVIdW43WmFhZ2pobkFaUHRRMDRPVDRMOU5udno5bWVELXVaSklTZ3JocWhXcXloZ0IzYy01dWlLVzdRTV9WYjViTGUzMnlqc1FYVjd5aE1oUjhRaldUR2RsejhpY3VJU1ByZXdONWU3ZFNuOENZNkl5YUlNSWZsMDlYVFBSdEtPOVA3MXlJZFBObzJVbVJCM2dGTVUzYjRkM3FXNjFzMW9yM2themJFNTc4aTVETEVkZ0doTDhMOXlNV2l5ajVDR2tYWG90aG80NVBxc0FxcHAya2IxNnRPUjlRcmJ0TDc5TVd6bFlNR1V1eHJHLWt0dGMzMmhuUmpDVGJ5YldvUDByU2xfRXdhczdrTTJLWFk0cjk0emNBamlxSFZNVE5aY2ltcnEyNUpteE5mRHUyWGJicjg2dE04Z2FPRVJmbHRWLUxiS0xWV2RlZm9IWGZmX20zNEFnS0lRaVRCb05pU2xuN09IdE1mdzRoV0xQU0NfZ0EzYXhHb3JqWkgyRWE1dFFCcGNqaU1BRUs3aWJ3cmhuNml2VmV0MzlzbjV0cUkzdEpmY1Y4UE9zcUFLbkQ0eGthMnU1cGhBZ1NSVTFTLTRmbTFXdG9VR3V4M2hNcE5ab1JsSHkybEJFQkFhVWhhcXBRUWl1bXNVTDczNFRYcDZlRFJOR0FmQmNuaGZGdEM5empUcjFYSXo3ZEJGelEyMVdRMHY1bW1YZU9OX0p6MXVyS01XRl9qSjFRY3dhOWlEZDhfdmdTcTN4Z1E3aGt3ejVVanpGVlBSVFZBa0N5UFFWTXlzV3MtX09QcUxVbU5BZnpXNXdDYnBJV2lKRkI2bXJZaGpqSDc5bnB3VXdFTWcwSU5ja0wxbV9EdTJYV181UHlxYUlPOXJMcEotQ3JidkZRSEJmenM1VFFRUk5reE1RN3VJTmVMSVJxbDRNd0dNdFJFZEstWTdKRnU1TG80eFh0R3ZTQy1jbUZhX0x3RGJiZFF3ZlYwMFRVSGNiTWZ6aC1qSXh3c0tDRG9ZbzNXbkFYMi16aVJURU1CY0I4c25nZm9lQnRQSm40b0YtUFV3ZDhFWTJza050MWlrbV9LdUROWkdOeWl0WVhCVU9KVXUwLU5qclN0em5VdEd2ZGNGZm51LVp3Q3RzeWxWbHF3VXhjY2h1TlNxZ2xCbVBGbDZMd0dfX1k4dDE3RngxV2RZUkZfR0t6Y0Fyb3JrSXJ6RkloRTFYeWxsdG1MR05LbW80VV9JZTY0cmJvcjA0VTJyajJqcGx3RVZfc3VQXzEybklEbDA4c25sdFUwalZqeTZ4czFtMDBdLS0+PC9nPjwvc3ZnPg==;" vertex="1" parent="1">
            <mxGeometry x="-160" y="-750" width="1084" height="1946" as="geometry" />
          </mxCell>
        </UserObject>
        <UserObject label="" plantUmlData="{&quot;data&quot;:&quot;@startmindmap\n* Sistem Informasi Sumber Daya Manusia (SISDM)\n** Identitas Makalah\n*** Judul: Sistem Informasi Sumber Daya Manusia\n**** Penulis: Margaretha Ayu Triyuliana\n**** Dosen Pembimbing: Saifuddin Zuhri, S.Sos, M.SI\n**** Institusi: Politeknik Pratama Mulia Surakarta\n**** Tahun: 2019\n** Kata Pengantar\n*** Syukur atas penyelesaian makalah\n**** Penulis mengucapkan terima kasih kepada Tuhan dan semua pihak yang mendukung dalam menyelesaikan tugas ini.\n*** Terima kasih kepada dosen pembimbing\n**** Terima kasih atas bantuan moral dan materi dari dosen pembimbing dalam menyelesaikan makalah.\n*** Harapan untuk saran dan kritik membangun\n**** Penulis berharap makalah ini dapat memberikan manfaat dan menerima masukan yang konstruktif.\n** BAB I: Pendahuluan\n*** Latar Belakang\n**** Informasi sebagai solusi permasalahan\n***** Data menjadi informasi yang dapat digunakan untuk memecahkan masalah apabila dikelola dengan baik.\n**** Sistem informasi untuk SDM berbasis teknologi\n***** Teknologi komputer memungkinkan pengelolaan data SDM secara efisien dan efektif.\n**** SDM sebagai aset berharga perusahaan\n***** SDM adalah sumber daya yang menentukan kesuksesan organisasi, sehingga penting untuk dikelola dengan baik.\n**** Teknologi komputer untuk efisiensi pengelolaan SDM\n***** Teknologi memungkinkan pengolahan data SDM seperti gaji, absensi, dan pengelolaan karyawan secara lebih cepat.\n*** Rumusan Masalah\n**** Apa itu SISDM?\n***** Pertanyaan yang mencoba mengklarifikasi pengertian dan pentingnya Sistem Informasi Sumber Daya Manusia (SISDM).\n**** Apa fungsi, tujuan, dan komponen SISDM?\n***** Fungsi SISDM dalam organisasi, tujuan yang ingin dicapai, dan komponen utama dari sistem ini.\n**** Bagaimana pengembangan dan penggunaan SISDM?\n***** Proses pengembangan sistem ini serta cara manajer memanfaatkan sistem ini dalam pengambilan keputusan.\n*** Tujuan Makalah\n**** Memenuhi tugas mata kuliah\n***** Tujuan pertama adalah untuk memenuhi kewajiban akademik dalam mata kuliah Sistem Informasi Manajemen.\n**** Meningkatkan wawasan dan kreativitas\n***** Makalah ini bertujuan untuk memberikan wawasan lebih dalam mengenai aplikasi SISDM di dunia nyata.\n**** Memahami fungsi dan manfaat SISDM\n***** Penulis berharap makalah ini dapat membantu pembaca memahami fungsi strategis SISDM.\n** BAB II: Pembahasan\n*** Definisi SISDM\n**** Pengertian menurut beberapa ahli\n***** SISDM adalah sistem yang mengumpulkan, memelihara, dan melaporkan data SDM untuk mendukung keputusan manajerial.\n**** Sistem terintegrasi untuk mendukung keputusan SDM\n***** SISDM memungkinkan pengumpulan dan pengolahan data SDM dalam satu sistem yang terintegrasi.\n*** Fungsi SISDM\n**** Perekrutan dan penerimaan\n***** Fungsi ini mencakup proses mencari dan memilih pegawai yang sesuai dengan kebutuhan perusahaan.\n**** Pendidikan dan pelatihan\n***** SDM menyelenggarakan program pendidikan dan pelatihan untuk meningkatkan keterampilan dan pengetahuan pegawai.\n**** Manajemen data\n***** Fungsi manajemen data melibatkan pengolahan informasi SDM yang ada untuk memenuhi kebutuhan informasi organisasi.\n**** Penghentian dan administrasi tunjangan\n***** Fungsi ini mengelola data terkait penghentian hubungan kerja dan administrasi tunjangan bagi pegawai.\n*** Tujuan SISDM\n**** Meningkatkan efisiensi\n***** Dengan adanya otomatisasi pengolahan data, proses SDM menjadi lebih efisien dan terhindar dari kesalahan manual.\n**** Mendukung perencanaan strategis SDM\n***** SISDM memungkinkan perencanaan SDM yang lebih akurat dan mendukung keputusan berbasis data.\n*** Komponen SISDM\n**** Input: Memasukkan data personalia\n***** Proses pengumpulan data pegawai, termasuk data pribadi dan riwayat kerja ke dalam sistem.\n**** Pemrosesan: Memelihara dan memperbarui data\n***** Data yang ada diperbaharui secara berkala untuk memastikan akurasi dan relevansi informasi.\n**** Output: Menghasilkan laporan dan statistik SDM\n***** Data yang sudah diproses digunakan untuk menghasilkan laporan yang digunakan dalam pengambilan keputusan manajerial.\n*** Model SISDM\n**** Subsistem Input\n***** Sistem Informasi Akuntansi\n****** Data yang digunakan dalam HRIS mencakup informasi pribadi pegawai dan elemen keuangan yang terkait.\n***** Penelitian SDM\n****** Mengumpulkan data melalui proyek penelitian untuk mendukung keputusan terkait pengelolaan SDM.\n***** Intelijen SDM\n****** Mengumpulkan informasi eksternal yang berhubungan dengan pasar tenaga kerja dan tren SDM.\n**** Subsistem Output\n***** Perencanaan kerja, perekrutan, manajemen angkatan kerja\n****** Proses merencanakan kebutuhan tenaga kerja jangka panjang dan pendek.\n***** Tunjangan, benefit, pelaporan lingkungan\n****** Sistem ini menghasilkan informasi terkait penggajian, tunjangan, dan kesejahteraan pegawai.\n*** Tahap Pengembangan SISDM\n**** Workgroup Information Systems\n***** Sistem ini mengorganisir kelompok kerja untuk bekerja sama dalam proyek pengembangan SISDM.\n**** Dukungan manajerial dan integrasi teknologi\n***** Peran manajer dalam mendukung dan mengintegrasikan teknologi dalam pengelolaan SISDM.\n*** Proses Pengolahan SDM\n**** Perencanaan, penerimaan, pemilihan, sosialisasi\n***** Proses untuk memastikan organisasi memiliki SDM yang sesuai dengan kebutuhan.\n**** Pelatihan dan pengembangan\n***** Proses pelatihan untuk meningkatkan kemampuan karyawan agar sesuai dengan tuntutan pekerjaan.\n**** Penilaian kerja, promosi, mutasi, pemecatan\n***** Mengelola penilaian kinerja karyawan dan memberikan keputusan terkait promosi atau pemecatan.\n*** Penggunaan SISDM oleh Manajer\n**** Menggunakan output subsistem\n***** Manajer menggunakan informasi yang dihasilkan oleh SISDM untuk membuat keputusan strategis mengenai SDM.\n**** Mendukung keputusan strategis perusahaan\n***** Penggunaan data SDM dalam pengambilan keputusan terkait kebijakan organisasi.\n** Studi Kasus: PT KAI\n*** Permasalahan SDM di PT KAI\n**** Defisit keuangan, efisiensi rendah, kualitas buruk\n***** Permasalahan yang dihadapi oleh PT KAI pada tahun 2009 yang berdampak pada kinerja perusahaan.\n*** Solusi Transformasi SDM\n**** Komitmen manajemen, reorganisasi\n***** Langkah-langkah yang diambil untuk memperbaiki pengelolaan SDM melalui perubahan struktural dan kebijakan.\n**** Perubahan kesejahteraan, rekrutmen profesional\n***** Perubahan dalam struktur kesejahteraan karyawan dan rekrutmen yang lebih profesional untuk mendukung transformasi.\n**** Penerapan teknologi informasi (SAP)\n***** Implementasi sistem SAP untuk mengelola SDM dan mempercepat proses administrasi.\n*** Dampak Transformasi\n**** Peningkatan kualitas layanan dan efisiensi\n***** Dengan transformasi SDM, PT KAI berhasil meningkatkan kualitas layanan dan efisiensi operasional.\n**** Sistem nilai dan budaya kerja baru\n***** PT KAI mengadopsi nilai-nilai baru untuk mendukung transformasi dan meningkatkan kinerja perusahaan.\n** BAB III: Kesimpulan dan Saran\n*** Kesimpulan\n**** SISDM mendukung efisiensi dan keputusan SDM\n***** Sistem ini membantu organisasi mengelola SDM dengan lebih efisien dan berbasis data.\n**** Pentingnya penggunaan teknologi dalam pengelolaan SDM\n***** Teknologi informasi memudahkan pengelolaan SDM, meningkatkan akurasi dan kecepatan pengambilan keputusan.\n*** Saran\n**** Perusahaan membutuhkan SISDM untuk tata kelola SDM yang baik\n***** Setiap perusahaan perlu menggunakan SISDM untuk mengelola SDM secara lebih efisien dan terorganisir.\n@endmindmap\n&quot;,&quot;format&quot;:&quot;svg&quot;}" id="xRCC4wiyabmJcX214EyI-2">
          <mxCell style="shape=image;noLabel=1;verticalAlign=top;aspect=fixed;imageAspect=0;image=data:image/svg+xml,PD94bWwgdmVyc2lvbj0iMS4wIiBlbmNvZGluZz0idXMtYXNjaWkiIHN0YW5kYWxvbmU9Im5vIj8+PHN2ZyB4bWxucz0iaHR0cDovL3d3dy53My5vcmcvMjAwMC9zdmciIHhtbG5zOnhsaW5rPSJodHRwOi8vd3d3LnczLm9yZy8xOTk5L3hsaW5rIiBjb250ZW50U3R5bGVUeXBlPSJ0ZXh0L2NzcyIgaGVpZ2h0PSIyNzE2cHgiIHByZXNlcnZlQXNwZWN0UmF0aW89Im5vbmUiIHN0eWxlPSJ3aWR0aDoyMDU2cHg7aGVpZ2h0OjI3MTZweDtiYWNrZ3JvdW5kOiNGRkZGRkY7IiB2ZXJzaW9uPSIxLjEiIHZpZXdCb3g9IjAgMCAyMDU2IDI3MTYiIHdpZHRoPSIyMDU2cHgiIHpvb21BbmRQYW49Im1hZ25pZnkiPjxkZWZzLz48Zz48cmVjdCBmaWxsPSIjRjFGMUYxIiBoZWlnaHQ9IjM0Ljk4NDQiIHJ4PSIxMi41IiByeT0iMTIuNSIgc3R5bGU9InN0cm9rZTojMTgxODE4O3N0cm9rZS13aWR0aDoxLjU7IiB3aWR0aD0iMzMzIiB4PSIxMCIgeT0iMTMzOS42MjUiLz48dGV4dCBmaWxsPSIjMDAwMDAwIiBmb250LWZhbWlseT0ic2Fucy1zZXJpZiIgZm9udC1zaXplPSIxNCIgbGVuZ3RoQWRqdXN0PSJzcGFjaW5nIiB0ZXh0TGVuZ3RoPSIzMTMiIHg9IjIwIiB5PSIxMzYyLjg1OTQiPlNpc3RlbSBJbmZvcm1hc2kgU3VtYmVyIERheWEgTWFudXNpYSAoU0lTRE0pPC90ZXh0PjxyZWN0IGZpbGw9IiNGMUYxRjEiIGhlaWdodD0iMzQuOTg0NCIgcng9IjEyLjUiIHJ5PSIxMi41IiBzdHlsZT0ic3Ryb2tlOiMxODE4MTg7c3Ryb2tlLXdpZHRoOjEuNTsiIHdpZHRoPSIxMzkiIHg9IjM5MyIgeT0iMTAyLjQ3NjYiLz48dGV4dCBmaWxsPSIjMDAwMDAwIiBmb250LWZhbWlseT0ic2Fucy1zZXJpZiIgZm9udC1zaXplPSIxNCIgbGVuZ3RoQWRqdXN0PSJzcGFjaW5nIiB0ZXh0TGVuZ3RoPSIxMTkiIHg9IjQwMyIgeT0iMTI1LjcxMDkiPklkZW50aXRhcyBNYWthbGFoPC90ZXh0PjxyZWN0IGZpbGw9IiNGMUYxRjEiIGhlaWdodD0iMzQuOTg0NCIgcng9IjEyLjUiIHJ5PSIxMi41IiBzdHlsZT0ic3Ryb2tlOiMxODE4MTg7c3Ryb2tlLXdpZHRoOjEuNTsiIHdpZHRoPSIzMjUiIHg9IjU4MiIgeT0iMTAyLjQ3NjYiLz48dGV4dCBmaWxsPSIjMDAwMDAwIiBmb250LWZhbWlseT0ic2Fucy1zZXJpZiIgZm9udC1zaXplPSIxNCIgbGVuZ3RoQWRqdXN0PSJzcGFjaW5nIiB0ZXh0TGVuZ3RoPSIzMDUiIHg9IjU5MiIgeT0iMTI1LjcxMDkiPkp1ZHVsOiBTaXN0ZW0gSW5mb3JtYXNpIFN1bWJlciBEYXlhIE1hbnVzaWE8L3RleHQ+PHJlY3QgZmlsbD0iI0YxRjFGMSIgaGVpZ2h0PSIzNC45ODQ0IiByeD0iMTIuNSIgcnk9IjEyLjUiIHN0eWxlPSJzdHJva2U6IzE4MTgxODtzdHJva2Utd2lkdGg6MS41OyIgd2lkdGg9IjI1OCIgeD0iOTU3IiB5PSIyMCIvPjx0ZXh0IGZpbGw9IiMwMDAwMDAiIGZvbnQtZmFtaWx5PSJzYW5zLXNlcmlmIiBmb250LXNpemU9IjE0IiBsZW5ndGhBZGp1c3Q9InNwYWNpbmciIHRleHRMZW5ndGg9IjIzOCIgeD0iOTY3IiB5PSI0My4yMzQ0Ij5QZW51bGlzOiBNYXJnYXJldGhhIEF5dSBUcml5dWxpYW5hPC90ZXh0PjxwYXRoIGQ9Ik05MDcsMTE5Ljk2ODggTDkxNywxMTkuOTY4OCBDOTMyLDExOS45Njg4IDkzMiwzNy40OTIyIDk0NywzNy40OTIyIEw5NTcsMzcuNDkyMiAiIGZpbGw9Im5vbmUiIHN0eWxlPSJzdHJva2U6IzE4MTgxODtzdHJva2Utd2lkdGg6MS4wOyIvPjxyZWN0IGZpbGw9IiNGMUYxRjEiIGhlaWdodD0iMzQuOTg0NCIgcng9IjEyLjUiIHJ5PSIxMi41IiBzdHlsZT0ic3Ryb2tlOiMxODE4MTg7c3Ryb2tlLXdpZHRoOjEuNTsiIHdpZHRoPSIzNDQiIHg9Ijk1NyIgeT0iNzQuOTg0NCIvPjx0ZXh0IGZpbGw9IiMwMDAwMDAiIGZvbnQtZmFtaWx5PSJzYW5zLXNlcmlmIiBmb250LXNpemU9IjE0IiBsZW5ndGhBZGp1c3Q9InNwYWNpbmciIHRleHRMZW5ndGg9IjMyNCIgeD0iOTY3IiB5PSI5OC4yMTg4Ij5Eb3NlbiBQZW1iaW1iaW5nOiBTYWlmdWRkaW4gWnVocmksIFMuU29zLCBNLlNJPC90ZXh0PjxwYXRoIGQ9Ik05MDcsMTE5Ljk2ODggTDkxNywxMTkuOTY4OCBDOTMyLDExOS45Njg4IDkzMiw5Mi40NzY2IDk0Nyw5Mi40NzY2IEw5NTcsOTIuNDc2NiAiIGZpbGw9Im5vbmUiIHN0eWxlPSJzdHJva2U6IzE4MTgxODtzdHJva2Utd2lkdGg6MS4wOyIvPjxyZWN0IGZpbGw9IiNGMUYxRjEiIGhlaWdodD0iMzQuOTg0NCIgcng9IjEyLjUiIHJ5PSIxMi41IiBzdHlsZT0ic3Ryb2tlOiMxODE4MTg7c3Ryb2tlLXdpZHRoOjEuNTsiIHdpZHRoPSIzMzYiIHg9Ijk1NyIgeT0iMTI5Ljk2ODgiLz48dGV4dCBmaWxsPSIjMDAwMDAwIiBmb250LWZhbWlseT0ic2Fucy1zZXJpZiIgZm9udC1zaXplPSIxNCIgbGVuZ3RoQWRqdXN0PSJzcGFjaW5nIiB0ZXh0TGVuZ3RoPSIzMTYiIHg9Ijk2NyIgeT0iMTUzLjIwMzEiPkluc3RpdHVzaTogUG9saXRla25payBQcmF0YW1hIE11bGlhIFN1cmFrYXJ0YTwvdGV4dD48cGF0aCBkPSJNOTA3LDExOS45Njg4IEw5MTcsMTE5Ljk2ODggQzkzMiwxMTkuOTY4OCA5MzIsMTQ3LjQ2MDkgOTQ3LDE0Ny40NjA5IEw5NTcsMTQ3LjQ2MDkgIiBmaWxsPSJub25lIiBzdHlsZT0ic3Ryb2tlOiMxODE4MTg7c3Ryb2tlLXdpZHRoOjEuMDsiLz48cmVjdCBmaWxsPSIjRjFGMUYxIiBoZWlnaHQ9IjM0Ljk4NDQiIHJ4PSIxMi41IiByeT0iMTIuNSIgc3R5bGU9InN0cm9rZTojMTgxODE4O3N0cm9rZS13aWR0aDoxLjU7IiB3aWR0aD0iOTciIHg9Ijk1NyIgeT0iMTg0Ljk1MzEiLz48dGV4dCBmaWxsPSIjMDAwMDAwIiBmb250LWZhbWlseT0ic2Fucy1zZXJpZiIgZm9udC1zaXplPSIxNCIgbGVuZ3RoQWRqdXN0PSJzcGFjaW5nIiB0ZXh0TGVuZ3RoPSI3NyIgeD0iOTY3IiB5PSIyMDguMTg3NSI+VGFodW46IDIwMTk8L3RleHQ+PHBhdGggZD0iTTkwNywxMTkuOTY4OCBMOTE3LDExOS45Njg4IEM5MzIsMTE5Ljk2ODggOTMyLDIwMi40NDUzIDk0NywyMDIuNDQ1MyBMOTU3LDIwMi40NDUzICIgZmlsbD0ibm9uZSIgc3R5bGU9InN0cm9rZTojMTgxODE4O3N0cm9rZS13aWR0aDoxLjA7Ii8+PHBhdGggZD0iTTUzMiwxMTkuOTY4OCBMNTQyLDExOS45Njg4IEM1NTcsMTE5Ljk2ODggNTU3LDExOS45Njg4IDU3MiwxMTkuOTY4OCBMNTgyLDExOS45Njg4ICIgZmlsbD0ibm9uZSIgc3R5bGU9InN0cm9rZTojMTgxODE4O3N0cm9rZS13aWR0aDoxLjA7Ii8+PHBhdGggZD0iTTM0MywxMzU3LjExNzIgTDM1MywxMzU3LjExNzIgQzM2OCwxMzU3LjExNzIgMzY4LDExOS45Njg4IDM4MywxMTkuOTY4OCBMMzkzLDExOS45Njg4ICIgZmlsbD0ibm9uZSIgc3R5bGU9InN0cm9rZTojMTgxODE4O3N0cm9rZS13aWR0aDoxLjA7Ii8+PHJlY3QgZmlsbD0iI0YxRjFGMSIgaGVpZ2h0PSIzNC45ODQ0IiByeD0iMTIuNSIgcnk9IjEyLjUiIHN0eWxlPSJzdHJva2U6IzE4MTgxODtzdHJva2Utd2lkdGg6MS41OyIgd2lkdGg9IjExOCIgeD0iMzkzIiB5PSIyOTQuOTIxOSIvPjx0ZXh0IGZpbGw9IiMwMDAwMDAiIGZvbnQtZmFtaWx5PSJzYW5zLXNlcmlmIiBmb250LXNpemU9IjE0IiBsZW5ndGhBZGp1c3Q9InNwYWNpbmciIHRleHRMZW5ndGg9Ijk4IiB4PSI0MDMiIHk9IjMxOC4xNTYzIj5LYXRhIFBlbmdhbnRhcjwvdGV4dD48cmVjdCBmaWxsPSIjRjFGMUYxIiBoZWlnaHQ9IjM0Ljk4NDQiIHJ4PSIxMi41IiByeT0iMTIuNSIgc3R5bGU9InN0cm9rZTojMTgxODE4O3N0cm9rZS13aWR0aDoxLjU7IiB3aWR0aD0iMjQ1IiB4PSI1NjEiIHk9IjIzOS45Mzc1Ii8+PHRleHQgZmlsbD0iIzAwMDAwMCIgZm9udC1mYW1pbHk9InNhbnMtc2VyaWYiIGZvbnQtc2l6ZT0iMTQiIGxlbmd0aEFkanVzdD0ic3BhY2luZyIgdGV4dExlbmd0aD0iMjI1IiB4PSI1NzEiIHk9IjI2My4xNzE5Ij5TeXVrdXIgYXRhcyBwZW55ZWxlc2FpYW4gbWFrYWxhaDwvdGV4dD48cmVjdCBmaWxsPSIjRjFGMUYxIiBoZWlnaHQ9IjM0Ljk4NDQiIHJ4PSIxMi41IiByeT0iMTIuNSIgc3R5bGU9InN0cm9rZTojMTgxODE4O3N0cm9rZS13aWR0aDoxLjU7IiB3aWR0aD0iNzc1IiB4PSI4NTYiIHk9IjIzOS45Mzc1Ii8+PHRleHQgZmlsbD0iIzAwMDAwMCIgZm9udC1mYW1pbHk9InNhbnMtc2VyaWYiIGZvbnQtc2l6ZT0iMTQiIGxlbmd0aEFkanVzdD0ic3BhY2luZyIgdGV4dExlbmd0aD0iNzU1IiB4PSI4NjYiIHk9IjI2My4xNzE5Ij5QZW51bGlzIG1lbmd1Y2Fwa2FuIHRlcmltYSBrYXNpaCBrZXBhZGEgVHVoYW4gZGFuIHNlbXVhIHBpaGFrIHlhbmcgbWVuZHVrdW5nIGRhbGFtIG1lbnllbGVzYWlrYW4gdHVnYXMgaW5pLjwvdGV4dD48cGF0aCBkPSJNODA2LDI1Ny40Mjk3IEw4MTYsMjU3LjQyOTcgQzgzMSwyNTcuNDI5NyA4MzEsMjU3LjQyOTcgODQ2LDI1Ny40Mjk3IEw4NTYsMjU3LjQyOTcgIiBmaWxsPSJub25lIiBzdHlsZT0ic3Ryb2tlOiMxODE4MTg7c3Ryb2tlLXdpZHRoOjEuMDsiLz48cGF0aCBkPSJNNTExLDMxMi40MTQxIEw1MjEsMzEyLjQxNDEgQzUzNiwzMTIuNDE0MSA1MzYsMjU3LjQyOTcgNTUxLDI1Ny40Mjk3IEw1NjEsMjU3LjQyOTcgIiBmaWxsPSJub25lIiBzdHlsZT0ic3Ryb2tlOiMxODE4MTg7c3Ryb2tlLXdpZHRoOjEuMDsiLz48cmVjdCBmaWxsPSIjRjFGMUYxIiBoZWlnaHQ9IjM0Ljk4NDQiIHJ4PSIxMi41IiByeT0iMTIuNSIgc3R5bGU9InN0cm9rZTojMTgxODE4O3N0cm9rZS13aWR0aDoxLjU7IiB3aWR0aD0iMjc1IiB4PSI1NjEiIHk9IjI5NC45MjE5Ii8+PHRleHQgZmlsbD0iIzAwMDAwMCIgZm9udC1mYW1pbHk9InNhbnMtc2VyaWYiIGZvbnQtc2l6ZT0iMTQiIGxlbmd0aEFkanVzdD0ic3BhY2luZyIgdGV4dExlbmd0aD0iMjU1IiB4PSI1NzEiIHk9IjMxOC4xNTYzIj5UZXJpbWEga2FzaWgga2VwYWRhIGRvc2VuIHBlbWJpbWJpbmc8L3RleHQ+PHJlY3QgZmlsbD0iI0YxRjFGMSIgaGVpZ2h0PSIzNC45ODQ0IiByeD0iMTIuNSIgcnk9IjEyLjUiIHN0eWxlPSJzdHJva2U6IzE4MTgxODtzdHJva2Utd2lkdGg6MS41OyIgd2lkdGg9IjY3OSIgeD0iODg2IiB5PSIyOTQuOTIxOSIvPjx0ZXh0IGZpbGw9IiMwMDAwMDAiIGZvbnQtZmFtaWx5PSJzYW5zLXNlcmlmIiBmb250LXNpemU9IjE0IiBsZW5ndGhBZGp1c3Q9InNwYWNpbmciIHRleHRMZW5ndGg9IjY1OSIgeD0iODk2IiB5PSIzMTguMTU2MyI+VGVyaW1hIGthc2loIGF0YXMgYmFudHVhbiBtb3JhbCBkYW4gbWF0ZXJpIGRhcmkgZG9zZW4gcGVtYmltYmluZyBkYWxhbSBtZW55ZWxlc2Fpa2FuIG1ha2FsYWguPC90ZXh0PjxwYXRoIGQ9Ik04MzYsMzEyLjQxNDEgTDg0NiwzMTIuNDE0MSBDODYxLDMxMi40MTQxIDg2MSwzMTIuNDE0MSA4NzYsMzEyLjQxNDEgTDg4NiwzMTIuNDE0MSAiIGZpbGw9Im5vbmUiIHN0eWxlPSJzdHJva2U6IzE4MTgxODtzdHJva2Utd2lkdGg6MS4wOyIvPjxwYXRoIGQ9Ik01MTEsMzEyLjQxNDEgTDUyMSwzMTIuNDE0MSBDNTM2LDMxMi40MTQxIDUzNiwzMTIuNDE0MSA1NTEsMzEyLjQxNDEgTDU2MSwzMTIuNDE0MSAiIGZpbGw9Im5vbmUiIHN0eWxlPSJzdHJva2U6IzE4MTgxODtzdHJva2Utd2lkdGg6MS4wOyIvPjxyZWN0IGZpbGw9IiNGMUYxRjEiIGhlaWdodD0iMzQuOTg0NCIgcng9IjEyLjUiIHJ5PSIxMi41IiBzdHlsZT0ic3Ryb2tlOiMxODE4MTg7c3Ryb2tlLXdpZHRoOjEuNTsiIHdpZHRoPSIzMDIiIHg9IjU2MSIgeT0iMzQ5LjkwNjMiLz48dGV4dCBmaWxsPSIjMDAwMDAwIiBmb250LWZhbWlseT0ic2Fucy1zZXJpZiIgZm9udC1zaXplPSIxNCIgbGVuZ3RoQWRqdXN0PSJzcGFjaW5nIiB0ZXh0TGVuZ3RoPSIyODIiIHg9IjU3MSIgeT0iMzczLjE0MDYiPkhhcmFwYW4gdW50dWsgc2FyYW4gZGFuIGtyaXRpayBtZW1iYW5ndW48L3RleHQ+PHJlY3QgZmlsbD0iI0YxRjFGMSIgaGVpZ2h0PSIzNC45ODQ0IiByeD0iMTIuNSIgcnk9IjEyLjUiIHN0eWxlPSJzdHJva2U6IzE4MTgxODtzdHJva2Utd2lkdGg6MS41OyIgd2lkdGg9IjY3MSIgeD0iOTEzIiB5PSIzNDkuOTA2MyIvPjx0ZXh0IGZpbGw9IiMwMDAwMDAiIGZvbnQtZmFtaWx5PSJzYW5zLXNlcmlmIiBmb250LXNpemU9IjE0IiBsZW5ndGhBZGp1c3Q9InNwYWNpbmciIHRleHRMZW5ndGg9IjY1MSIgeD0iOTIzIiB5PSIzNzMuMTQwNiI+UGVudWxpcyBiZXJoYXJhcCBtYWthbGFoIGluaSBkYXBhdCBtZW1iZXJpa2FuIG1hbmZhYXQgZGFuIG1lbmVyaW1hIG1hc3VrYW4geWFuZyBrb25zdHJ1a3RpZi48L3RleHQ+PHBhdGggZD0iTTg2MywzNjcuMzk4NCBMODczLDM2Ny4zOTg0IEM4ODgsMzY3LjM5ODQgODg4LDM2Ny4zOTg0IDkwMywzNjcuMzk4NCBMOTEzLDM2Ny4zOTg0ICIgZmlsbD0ibm9uZSIgc3R5bGU9InN0cm9rZTojMTgxODE4O3N0cm9rZS13aWR0aDoxLjA7Ii8+PHBhdGggZD0iTTUxMSwzMTIuNDE0MSBMNTIxLDMxMi40MTQxIEM1MzYsMzEyLjQxNDEgNTM2LDM2Ny4zOTg0IDU1MSwzNjcuMzk4NCBMNTYxLDM2Ny4zOTg0ICIgZmlsbD0ibm9uZSIgc3R5bGU9InN0cm9rZTojMTgxODE4O3N0cm9rZS13aWR0aDoxLjA7Ii8+PHBhdGggZD0iTTM0MywxMzU3LjExNzIgTDM1MywxMzU3LjExNzIgQzM2OCwxMzU3LjExNzIgMzY4LDMxMi40MTQxIDM4MywzMTIuNDE0MSBMMzkzLDMxMi40MTQxICIgZmlsbD0ibm9uZSIgc3R5bGU9InN0cm9rZTojMTgxODE4O3N0cm9rZS13aWR0aDoxLjA7Ii8+PHJlY3QgZmlsbD0iI0YxRjFGMSIgaGVpZ2h0PSIzNC45ODQ0IiByeD0iMTIuNSIgcnk9IjEyLjUiIHN0eWxlPSJzdHJva2U6IzE4MTgxODtzdHJva2Utd2lkdGg6MS41OyIgd2lkdGg9IjE0NiIgeD0iMzkzIiB5PSI2NTIuMzIwMyIvPjx0ZXh0IGZpbGw9IiMwMDAwMDAiIGZvbnQtZmFtaWx5PSJzYW5zLXNlcmlmIiBmb250LXNpemU9IjE0IiBsZW5ndGhBZGp1c3Q9InNwYWNpbmciIHRleHRMZW5ndGg9IjEyNiIgeD0iNDAzIiB5PSI2NzUuNTU0NyI+QkFCIEk6IFBlbmRhaHVsdWFuPC90ZXh0PjxyZWN0IGZpbGw9IiNGMUYxRjEiIGhlaWdodD0iMzQuOTg0NCIgcng9IjEyLjUiIHJ5PSIxMi41IiBzdHlsZT0ic3Ryb2tlOiMxODE4MTg7c3Ryb2tlLXdpZHRoOjEuNTsiIHdpZHRoPSIxMTgiIHg9IjU4OSIgeT0iNDg3LjM2NzIiLz48dGV4dCBmaWxsPSIjMDAwMDAwIiBmb250LWZhbWlseT0ic2Fucy1zZXJpZiIgZm9udC1zaXplPSIxNCIgbGVuZ3RoQWRqdXN0PSJzcGFjaW5nIiB0ZXh0TGVuZ3RoPSI5OCIgeD0iNTk5IiB5PSI1MTAuNjAxNiI+TGF0YXIgQmVsYWthbmc8L3RleHQ+PHJlY3QgZmlsbD0iI0YxRjFGMSIgaGVpZ2h0PSIzNC45ODQ0IiByeD0iMTIuNSIgcnk9IjEyLjUiIHN0eWxlPSJzdHJva2U6IzE4MTgxODtzdHJva2Utd2lkdGg6MS41OyIgd2lkdGg9IjI4MSIgeD0iNzU3IiB5PSI0MDQuODkwNiIvPjx0ZXh0IGZpbGw9IiMwMDAwMDAiIGZvbnQtZmFtaWx5PSJzYW5zLXNlcmlmIiBmb250LXNpemU9IjE0IiBsZW5ndGhBZGp1c3Q9InNwYWNpbmciIHRleHRMZW5ndGg9IjI2MSIgeD0iNzY3IiB5PSI0MjguMTI1Ij5JbmZvcm1hc2kgc2ViYWdhaSBzb2x1c2kgcGVybWFzYWxhaGFuPC90ZXh0PjxyZWN0IGZpbGw9IiNGMUYxRjEiIGhlaWdodD0iMzQuOTg0NCIgcng9IjEyLjUiIHJ5PSIxMi41IiBzdHlsZT0ic3Ryb2tlOiMxODE4MTg7c3Ryb2tlLXdpZHRoOjEuNTsiIHdpZHRoPSI3MTEiIHg9IjEwODgiIHk9IjQwNC44OTA2Ii8+PHRleHQgZmlsbD0iIzAwMDAwMCIgZm9udC1mYW1pbHk9InNhbnMtc2VyaWYiIGZvbnQtc2l6ZT0iMTQiIGxlbmd0aEFkanVzdD0ic3BhY2luZyIgdGV4dExlbmd0aD0iNjkxIiB4PSIxMDk4IiB5PSI0MjguMTI1Ij5EYXRhIG1lbmphZGkgaW5mb3JtYXNpIHlhbmcgZGFwYXQgZGlndW5ha2FuIHVudHVrIG1lbWVjYWhrYW4gbWFzYWxhaCBhcGFiaWxhIGRpa2Vsb2xhIGRlbmdhbiBiYWlrLjwvdGV4dD48cGF0aCBkPSJNMTAzOCw0MjIuMzgyOCBMMTA0OCw0MjIuMzgyOCBDMTA2Myw0MjIuMzgyOCAxMDYzLDQyMi4zODI4IDEwNzgsNDIyLjM4MjggTDEwODgsNDIyLjM4MjggIiBmaWxsPSJub25lIiBzdHlsZT0ic3Ryb2tlOiMxODE4MTg7c3Ryb2tlLXdpZHRoOjEuMDsiLz48cGF0aCBkPSJNNzA3LDUwNC44NTk0IEw3MTcsNTA0Ljg1OTQgQzczMiw1MDQuODU5NCA3MzIsNDIyLjM4MjggNzQ3LDQyMi4zODI4IEw3NTcsNDIyLjM4MjggIiBmaWxsPSJub25lIiBzdHlsZT0ic3Ryb2tlOiMxODE4MTg7c3Ryb2tlLXdpZHRoOjEuMDsiLz48cmVjdCBmaWxsPSIjRjFGMUYxIiBoZWlnaHQ9IjM0Ljk4NDQiIHJ4PSIxMi41IiByeT0iMTIuNSIgc3R5bGU9InN0cm9rZTojMTgxODE4O3N0cm9rZS13aWR0aDoxLjU7IiB3aWR0aD0iMzM3IiB4PSI3NTciIHk9IjQ1OS44NzUiLz48dGV4dCBmaWxsPSIjMDAwMDAwIiBmb250LWZhbWlseT0ic2Fucy1zZXJpZiIgZm9udC1zaXplPSIxNCIgbGVuZ3RoQWRqdXN0PSJzcGFjaW5nIiB0ZXh0TGVuZ3RoPSIzMTciIHg9Ijc2NyIgeT0iNDgzLjEwOTQiPlNpc3RlbSBpbmZvcm1hc2kgdW50dWsgU0RNIGJlcmJhc2lzIHRla25vbG9naTwvdGV4dD48cmVjdCBmaWxsPSIjRjFGMUYxIiBoZWlnaHQ9IjM0Ljk4NDQiIHJ4PSIxMi41IiByeT0iMTIuNSIgc3R5bGU9InN0cm9rZTojMTgxODE4O3N0cm9rZS13aWR0aDoxLjU7IiB3aWR0aD0iNTgzIiB4PSIxMTQ0IiB5PSI0NTkuODc1Ii8+PHRleHQgZmlsbD0iIzAwMDAwMCIgZm9udC1mYW1pbHk9InNhbnMtc2VyaWYiIGZvbnQtc2l6ZT0iMTQiIGxlbmd0aEFkanVzdD0ic3BhY2luZyIgdGV4dExlbmd0aD0iNTYzIiB4PSIxMTU0IiB5PSI0ODMuMTA5NCI+VGVrbm9sb2dpIGtvbXB1dGVyIG1lbXVuZ2tpbmthbiBwZW5nZWxvbGFhbiBkYXRhIFNETSBzZWNhcmEgZWZpc2llbiBkYW4gZWZla3RpZi48L3RleHQ+PHBhdGggZD0iTTEwOTQsNDc3LjM2NzIgTDExMDQsNDc3LjM2NzIgQzExMTksNDc3LjM2NzIgMTExOSw0NzcuMzY3MiAxMTM0LDQ3Ny4zNjcyIEwxMTQ0LDQ3Ny4zNjcyICIgZmlsbD0ibm9uZSIgc3R5bGU9InN0cm9rZTojMTgxODE4O3N0cm9rZS13aWR0aDoxLjA7Ii8+PHBhdGggZD0iTTcwNyw1MDQuODU5NCBMNzE3LDUwNC44NTk0IEM3MzIsNTA0Ljg1OTQgNzMyLDQ3Ny4zNjcyIDc0Nyw0NzcuMzY3MiBMNzU3LDQ3Ny4zNjcyICIgZmlsbD0ibm9uZSIgc3R5bGU9InN0cm9rZTojMTgxODE4O3N0cm9rZS13aWR0aDoxLjA7Ii8+PHJlY3QgZmlsbD0iI0YxRjFGMSIgaGVpZ2h0PSIzNC45ODQ0IiByeD0iMTIuNSIgcnk9IjEyLjUiIHN0eWxlPSJzdHJva2U6IzE4MTgxODtzdHJva2Utd2lkdGg6MS41OyIgd2lkdGg9IjI3MiIgeD0iNzU3IiB5PSI1MTQuODU5NCIvPjx0ZXh0IGZpbGw9IiMwMDAwMDAiIGZvbnQtZmFtaWx5PSJzYW5zLXNlcmlmIiBmb250LXNpemU9IjE0IiBsZW5ndGhBZGp1c3Q9InNwYWNpbmciIHRleHRMZW5ndGg9IjI1MiIgeD0iNzY3IiB5PSI1MzguMDkzOCI+U0RNIHNlYmFnYWkgYXNldCBiZXJoYXJnYSBwZXJ1c2FoYWFuPC90ZXh0PjxyZWN0IGZpbGw9IiNGMUYxRjEiIGhlaWdodD0iMzQuOTg0NCIgcng9IjEyLjUiIHJ5PSIxMi41IiBzdHlsZT0ic3Ryb2tlOiMxODE4MTg7c3Ryb2tlLXdpZHRoOjEuNTsiIHdpZHRoPSI3NjQiIHg9IjEwNzkiIHk9IjUxNC44NTk0Ii8+PHRleHQgZmlsbD0iIzAwMDAwMCIgZm9udC1mYW1pbHk9InNhbnMtc2VyaWYiIGZvbnQtc2l6ZT0iMTQiIGxlbmd0aEFkanVzdD0ic3BhY2luZyIgdGV4dExlbmd0aD0iNzQ0IiB4PSIxMDg5IiB5PSI1MzguMDkzOCI+U0RNIGFkYWxhaCBzdW1iZXIgZGF5YSB5YW5nIG1lbmVudHVrYW4ga2VzdWtzZXNhbiBvcmdhbmlzYXNpLCBzZWhpbmdnYSBwZW50aW5nIHVudHVrIGRpa2Vsb2xhIGRlbmdhbiBiYWlrLjwvdGV4dD48cGF0aCBkPSJNMTAyOSw1MzIuMzUxNiBMMTAzOSw1MzIuMzUxNiBDMTA1NCw1MzIuMzUxNiAxMDU0LDUzMi4zNTE2IDEwNjksNTMyLjM1MTYgTDEwNzksNTMyLjM1MTYgIiBmaWxsPSJub25lIiBzdHlsZT0ic3Ryb2tlOiMxODE4MTg7c3Ryb2tlLXdpZHRoOjEuMDsiLz48cGF0aCBkPSJNNzA3LDUwNC44NTk0IEw3MTcsNTA0Ljg1OTQgQzczMiw1MDQuODU5NCA3MzIsNTMyLjM1MTYgNzQ3LDUzMi4zNTE2IEw3NTcsNTMyLjM1MTYgIiBmaWxsPSJub25lIiBzdHlsZT0ic3Ryb2tlOiMxODE4MTg7c3Ryb2tlLXdpZHRoOjEuMDsiLz48cmVjdCBmaWxsPSIjRjFGMUYxIiBoZWlnaHQ9IjM0Ljk4NDQiIHJ4PSIxMi41IiByeT0iMTIuNSIgc3R5bGU9InN0cm9rZTojMTgxODE4O3N0cm9rZS13aWR0aDoxLjU7IiB3aWR0aD0iMzcxIiB4PSI3NTciIHk9IjU2OS44NDM4Ii8+PHRleHQgZmlsbD0iIzAwMDAwMCIgZm9udC1mYW1pbHk9InNhbnMtc2VyaWYiIGZvbnQtc2l6ZT0iMTQiIGxlbmd0aEFkanVzdD0ic3BhY2luZyIgdGV4dExlbmd0aD0iMzUxIiB4PSI3NjciIHk9IjU5My4wNzgxIj5UZWtub2xvZ2kga29tcHV0ZXIgdW50dWsgZWZpc2llbnNpIHBlbmdlbG9sYWFuIFNETTwvdGV4dD48cmVjdCBmaWxsPSIjRjFGMUYxIiBoZWlnaHQ9IjM0Ljk4NDQiIHJ4PSIxMi41IiByeT0iMTIuNSIgc3R5bGU9InN0cm9rZTojMTgxODE4O3N0cm9rZS13aWR0aDoxLjU7IiB3aWR0aD0iNzkzIiB4PSIxMTc4IiB5PSI1NjkuODQzOCIvPjx0ZXh0IGZpbGw9IiMwMDAwMDAiIGZvbnQtZmFtaWx5PSJzYW5zLXNlcmlmIiBmb250LXNpemU9IjE0IiBsZW5ndGhBZGp1c3Q9InNwYWNpbmciIHRleHRMZW5ndGg9Ijc3MyIgeD0iMTE4OCIgeT0iNTkzLjA3ODEiPlRla25vbG9naSBtZW11bmdraW5rYW4gcGVuZ29sYWhhbiBkYXRhIFNETSBzZXBlcnRpIGdhamksIGFic2Vuc2ksIGRhbiBwZW5nZWxvbGFhbiBrYXJ5YXdhbiBzZWNhcmEgbGViaWggY2VwYXQuPC90ZXh0PjxwYXRoIGQ9Ik0xMTI4LDU4Ny4zMzU5IEwxMTM4LDU4Ny4zMzU5IEMxMTUzLDU4Ny4zMzU5IDExNTMsNTg3LjMzNTkgMTE2OCw1ODcuMzM1OSBMMTE3OCw1ODcuMzM1OSAiIGZpbGw9Im5vbmUiIHN0eWxlPSJzdHJva2U6IzE4MTgxODtzdHJva2Utd2lkdGg6MS4wOyIvPjxwYXRoIGQ9Ik03MDcsNTA0Ljg1OTQgTDcxNyw1MDQuODU5NCBDNzMyLDUwNC44NTk0IDczMiw1ODcuMzM1OSA3NDcsNTg3LjMzNTkgTDc1Nyw1ODcuMzM1OSAiIGZpbGw9Im5vbmUiIHN0eWxlPSJzdHJva2U6IzE4MTgxODtzdHJva2Utd2lkdGg6MS4wOyIvPjxwYXRoIGQ9Ik01MzksNjY5LjgxMjUgTDU0OSw2NjkuODEyNSBDNTY0LDY2OS44MTI1IDU2NCw1MDQuODU5NCA1NzksNTA0Ljg1OTQgTDU4OSw1MDQuODU5NCAiIGZpbGw9Im5vbmUiIHN0eWxlPSJzdHJva2U6IzE4MTgxODtzdHJva2Utd2lkdGg6MS4wOyIvPjxyZWN0IGZpbGw9IiNGMUYxRjEiIGhlaWdodD0iMzQuOTg0NCIgcng9IjEyLjUiIHJ5PSIxMi41IiBzdHlsZT0ic3Ryb2tlOiMxODE4MTg7c3Ryb2tlLXdpZHRoOjEuNTsiIHdpZHRoPSIxMjYiIHg9IjU4OSIgeT0iNjc5LjgxMjUiLz48dGV4dCBmaWxsPSIjMDAwMDAwIiBmb250LWZhbWlseT0ic2Fucy1zZXJpZiIgZm9udC1zaXplPSIxNCIgbGVuZ3RoQWRqdXN0PSJzcGFjaW5nIiB0ZXh0TGVuZ3RoPSIxMDYiIHg9IjU5OSIgeT0iNzAzLjA0NjkiPlJ1bXVzYW4gTWFzYWxhaDwvdGV4dD48cmVjdCBmaWxsPSIjRjFGMUYxIiBoZWlnaHQ9IjM0Ljk4NDQiIHJ4PSIxMi41IiByeT0iMTIuNSIgc3R5bGU9InN0cm9rZTojMTgxODE4O3N0cm9rZS13aWR0aDoxLjU7IiB3aWR0aD0iMTE4IiB4PSI3NjUiIHk9IjYyNC44MjgxIi8+PHRleHQgZmlsbD0iIzAwMDAwMCIgZm9udC1mYW1pbHk9InNhbnMtc2VyaWYiIGZvbnQtc2l6ZT0iMTQiIGxlbmd0aEFkanVzdD0ic3BhY2luZyIgdGV4dExlbmd0aD0iOTgiIHg9Ijc3NSIgeT0iNjQ4LjA2MjUiPkFwYSBpdHUgU0lTRE0/PC90ZXh0PjxyZWN0IGZpbGw9IiNGMUYxRjEiIGhlaWdodD0iMzQuOTg0NCIgcng9IjEyLjUiIHJ5PSIxMi41IiBzdHlsZT0ic3Ryb2tlOiMxODE4MTg7c3Ryb2tlLXdpZHRoOjEuNTsiIHdpZHRoPSI4MDQiIHg9IjkzMyIgeT0iNjI0LjgyODEiLz48dGV4dCBmaWxsPSIjMDAwMDAwIiBmb250LWZhbWlseT0ic2Fucy1zZXJpZiIgZm9udC1zaXplPSIxNCIgbGVuZ3RoQWRqdXN0PSJzcGFjaW5nIiB0ZXh0TGVuZ3RoPSI3ODQiIHg9Ijk0MyIgeT0iNjQ4LjA2MjUiPlBlcnRhbnlhYW4geWFuZyBtZW5jb2JhIG1lbmdrbGFyaWZpa2FzaSBwZW5nZXJ0aWFuIGRhbiBwZW50aW5nbnlhIFNpc3RlbSBJbmZvcm1hc2kgU3VtYmVyIERheWEgTWFudXNpYSAoU0lTRE0pLjwvdGV4dD48cGF0aCBkPSJNODgzLDY0Mi4zMjAzIEw4OTMsNjQyLjMyMDMgQzkwOCw2NDIuMzIwMyA5MDgsNjQyLjMyMDMgOTIzLDY0Mi4zMjAzIEw5MzMsNjQyLjMyMDMgIiBmaWxsPSJub25lIiBzdHlsZT0ic3Ryb2tlOiMxODE4MTg7c3Ryb2tlLXdpZHRoOjEuMDsiLz48cGF0aCBkPSJNNzE1LDY5Ny4zMDQ3IEw3MjUsNjk3LjMwNDcgQzc0MCw2OTcuMzA0NyA3NDAsNjQyLjMyMDMgNzU1LDY0Mi4zMjAzIEw3NjUsNjQyLjMyMDMgIiBmaWxsPSJub25lIiBzdHlsZT0ic3Ryb2tlOiMxODE4MTg7c3Ryb2tlLXdpZHRoOjEuMDsiLz48cmVjdCBmaWxsPSIjRjFGMUYxIiBoZWlnaHQ9IjM0Ljk4NDQiIHJ4PSIxMi41IiByeT0iMTIuNSIgc3R5bGU9InN0cm9rZTojMTgxODE4O3N0cm9rZS13aWR0aDoxLjU7IiB3aWR0aD0iMjk0IiB4PSI3NjUiIHk9IjY3OS44MTI1Ii8+PHRleHQgZmlsbD0iIzAwMDAwMCIgZm9udC1mYW1pbHk9InNhbnMtc2VyaWYiIGZvbnQtc2l6ZT0iMTQiIGxlbmd0aEFkanVzdD0ic3BhY2luZyIgdGV4dExlbmd0aD0iMjc0IiB4PSI3NzUiIHk9IjcwMy4wNDY5Ij5BcGEgZnVuZ3NpLCB0dWp1YW4sIGRhbiBrb21wb25lbiBTSVNETT88L3RleHQ+PHJlY3QgZmlsbD0iI0YxRjFGMSIgaGVpZ2h0PSIzNC45ODQ0IiByeD0iMTIuNSIgcnk9IjEyLjUiIHN0eWxlPSJzdHJva2U6IzE4MTgxODtzdHJva2Utd2lkdGg6MS41OyIgd2lkdGg9IjY3NSIgeD0iMTEwOSIgeT0iNjc5LjgxMjUiLz48dGV4dCBmaWxsPSIjMDAwMDAwIiBmb250LWZhbWlseT0ic2Fucy1zZXJpZiIgZm9udC1zaXplPSIxNCIgbGVuZ3RoQWRqdXN0PSJzcGFjaW5nIiB0ZXh0TGVuZ3RoPSI2NTUiIHg9IjExMTkiIHk9IjcwMy4wNDY5Ij5GdW5nc2kgU0lTRE0gZGFsYW0gb3JnYW5pc2FzaSwgdHVqdWFuIHlhbmcgaW5naW4gZGljYXBhaSwgZGFuIGtvbXBvbmVuIHV0YW1hIGRhcmkgc2lzdGVtIGluaS48L3RleHQ+PHBhdGggZD0iTTEwNTksNjk3LjMwNDcgTDEwNjksNjk3LjMwNDcgQzEwODQsNjk3LjMwNDcgMTA4NCw2OTcuMzA0NyAxMDk5LDY5Ny4zMDQ3IEwxMTA5LDY5Ny4zMDQ3ICIgZmlsbD0ibm9uZSIgc3R5bGU9InN0cm9rZTojMTgxODE4O3N0cm9rZS13aWR0aDoxLjA7Ii8+PHBhdGggZD0iTTcxNSw2OTcuMzA0NyBMNzI1LDY5Ny4zMDQ3IEM3NDAsNjk3LjMwNDcgNzQwLDY5Ny4zMDQ3IDc1NSw2OTcuMzA0NyBMNzY1LDY5Ny4zMDQ3ICIgZmlsbD0ibm9uZSIgc3R5bGU9InN0cm9rZTojMTgxODE4O3N0cm9rZS13aWR0aDoxLjA7Ii8+PHJlY3QgZmlsbD0iI0YxRjFGMSIgaGVpZ2h0PSIzNC45ODQ0IiByeD0iMTIuNSIgcnk9IjEyLjUiIHN0eWxlPSJzdHJva2U6IzE4MTgxODtzdHJva2Utd2lkdGg6MS41OyIgd2lkdGg9IjMzMCIgeD0iNzY1IiB5PSI3MzQuNzk2OSIvPjx0ZXh0IGZpbGw9IiMwMDAwMDAiIGZvbnQtZmFtaWx5PSJzYW5zLXNlcmlmIiBmb250LXNpemU9IjE0IiBsZW5ndGhBZGp1c3Q9InNwYWNpbmciIHRleHRMZW5ndGg9IjMxMCIgeD0iNzc1IiB5PSI3NTguMDMxMyI+QmFnYWltYW5hIHBlbmdlbWJhbmdhbiBkYW4gcGVuZ2d1bmFhbiBTSVNETT88L3RleHQ+PHJlY3QgZmlsbD0iI0YxRjFGMSIgaGVpZ2h0PSIzNC45ODQ0IiByeD0iMTIuNSIgcnk9IjEyLjUiIHN0eWxlPSJzdHJva2U6IzE4MTgxODtzdHJva2Utd2lkdGg6MS41OyIgd2lkdGg9Ijc0MiIgeD0iMTE0NSIgeT0iNzM0Ljc5NjkiLz48dGV4dCBmaWxsPSIjMDAwMDAwIiBmb250LWZhbWlseT0ic2Fucy1zZXJpZiIgZm9udC1zaXplPSIxNCIgbGVuZ3RoQWRqdXN0PSJzcGFjaW5nIiB0ZXh0TGVuZ3RoPSI3MjIiIHg9IjExNTUiIHk9Ijc1OC4wMzEzIj5Qcm9zZXMgcGVuZ2VtYmFuZ2FuIHNpc3RlbSBpbmkgc2VydGEgY2FyYSBtYW5hamVyIG1lbWFuZmFhdGthbiBzaXN0ZW0gaW5pIGRhbGFtIHBlbmdhbWJpbGFuIGtlcHV0dXNhbi48L3RleHQ+PHBhdGggZD0iTTEwOTUsNzUyLjI4OTEgTDExMDUsNzUyLjI4OTEgQzExMjAsNzUyLjI4OTEgMTEyMCw3NTIuMjg5MSAxMTM1LDc1Mi4yODkxIEwxMTQ1LDc1Mi4yODkxICIgZmlsbD0ibm9uZSIgc3R5bGU9InN0cm9rZTojMTgxODE4O3N0cm9rZS13aWR0aDoxLjA7Ii8+PHBhdGggZD0iTTcxNSw2OTcuMzA0NyBMNzI1LDY5Ny4zMDQ3IEM3NDAsNjk3LjMwNDcgNzQwLDc1Mi4yODkxIDc1NSw3NTIuMjg5MSBMNzY1LDc1Mi4yODkxICIgZmlsbD0ibm9uZSIgc3R5bGU9InN0cm9rZTojMTgxODE4O3N0cm9rZS13aWR0aDoxLjA7Ii8+PHBhdGggZD0iTTUzOSw2NjkuODEyNSBMNTQ5LDY2OS44MTI1IEM1NjQsNjY5LjgxMjUgNTY0LDY5Ny4zMDQ3IDU3OSw2OTcuMzA0NyBMNTg5LDY5Ny4zMDQ3ICIgZmlsbD0ibm9uZSIgc3R5bGU9InN0cm9rZTojMTgxODE4O3N0cm9rZS13aWR0aDoxLjA7Ii8+PHJlY3QgZmlsbD0iI0YxRjFGMSIgaGVpZ2h0PSIzNC45ODQ0IiByeD0iMTIuNSIgcnk9IjEyLjUiIHN0eWxlPSJzdHJva2U6IzE4MTgxODtzdHJva2Utd2lkdGg6MS41OyIgd2lkdGg9IjExOCIgeD0iNTg5IiB5PSI4NDQuNzY1NiIvPjx0ZXh0IGZpbGw9IiMwMDAwMDAiIGZvbnQtZmFtaWx5PSJzYW5zLXNlcmlmIiBmb250LXNpemU9IjE0IiBsZW5ndGhBZGp1c3Q9InNwYWNpbmciIHRleHRMZW5ndGg9Ijk4IiB4PSI1OTkiIHk9Ijg2OCI+VHVqdWFuIE1ha2FsYWg8L3RleHQ+PHJlY3QgZmlsbD0iI0YxRjFGMSIgaGVpZ2h0PSIzNC45ODQ0IiByeD0iMTIuNSIgcnk9IjEyLjUiIHN0eWxlPSJzdHJva2U6IzE4MTgxODtzdHJva2Utd2lkdGg6MS41OyIgd2lkdGg9IjIwNCIgeD0iNzU3IiB5PSI3ODkuNzgxMyIvPjx0ZXh0IGZpbGw9IiMwMDAwMDAiIGZvbnQtZmFtaWx5PSJzYW5zLXNlcmlmIiBmb250LXNpemU9IjE0IiBsZW5ndGhBZGp1c3Q9InNwYWNpbmciIHRleHRMZW5ndGg9IjE4NCIgeD0iNzY3IiB5PSI4MTMuMDE1NiI+TWVtZW51aGkgdHVnYXMgbWF0YSBrdWxpYWg8L3RleHQ+PHJlY3QgZmlsbD0iI0YxRjFGMSIgaGVpZ2h0PSIzNC45ODQ0IiByeD0iMTIuNSIgcnk9IjEyLjUiIHN0eWxlPSJzdHJva2U6IzE4MTgxODtzdHJva2Utd2lkdGg6MS41OyIgd2lkdGg9IjczNyIgeD0iMTAxMSIgeT0iNzg5Ljc4MTMiLz48dGV4dCBmaWxsPSIjMDAwMDAwIiBmb250LWZhbWlseT0ic2Fucy1zZXJpZiIgZm9udC1zaXplPSIxNCIgbGVuZ3RoQWRqdXN0PSJzcGFjaW5nIiB0ZXh0TGVuZ3RoPSI3MTciIHg9IjEwMjEiIHk9IjgxMy4wMTU2Ij5UdWp1YW4gcGVydGFtYSBhZGFsYWggdW50dWsgbWVtZW51aGkga2V3YWppYmFuIGFrYWRlbWlrIGRhbGFtIG1hdGEga3VsaWFoIFNpc3RlbSBJbmZvcm1hc2kgTWFuYWplbWVuLjwvdGV4dD48cGF0aCBkPSJNOTYxLDgwNy4yNzM0IEw5NzEsODA3LjI3MzQgQzk4Niw4MDcuMjczNCA5ODYsODA3LjI3MzQgMTAwMSw4MDcuMjczNCBMMTAxMSw4MDcuMjczNCAiIGZpbGw9Im5vbmUiIHN0eWxlPSJzdHJva2U6IzE4MTgxODtzdHJva2Utd2lkdGg6MS4wOyIvPjxwYXRoIGQ9Ik03MDcsODYyLjI1NzggTDcxNyw4NjIuMjU3OCBDNzMyLDg2Mi4yNTc4IDczMiw4MDcuMjczNCA3NDcsODA3LjI3MzQgTDc1Nyw4MDcuMjczNCAiIGZpbGw9Im5vbmUiIHN0eWxlPSJzdHJva2U6IzE4MTgxODtzdHJva2Utd2lkdGg6MS4wOyIvPjxyZWN0IGZpbGw9IiNGMUYxRjEiIGhlaWdodD0iMzQuOTg0NCIgcng9IjEyLjUiIHJ5PSIxMi41IiBzdHlsZT0ic3Ryb2tlOiMxODE4MTg7c3Ryb2tlLXdpZHRoOjEuNTsiIHdpZHRoPSIyNzQiIHg9Ijc1NyIgeT0iODQ0Ljc2NTYiLz48dGV4dCBmaWxsPSIjMDAwMDAwIiBmb250LWZhbWlseT0ic2Fucy1zZXJpZiIgZm9udC1zaXplPSIxNCIgbGVuZ3RoQWRqdXN0PSJzcGFjaW5nIiB0ZXh0TGVuZ3RoPSIyNTQiIHg9Ijc2NyIgeT0iODY4Ij5NZW5pbmdrYXRrYW4gd2F3YXNhbiBkYW4ga3JlYXRpdml0YXM8L3RleHQ+PHJlY3QgZmlsbD0iI0YxRjFGMSIgaGVpZ2h0PSIzNC45ODQ0IiByeD0iMTIuNSIgcnk9IjEyLjUiIHN0eWxlPSJzdHJva2U6IzE4MTgxODtzdHJva2Utd2lkdGg6MS41OyIgd2lkdGg9IjcxMiIgeD0iMTA4MSIgeT0iODQ0Ljc2NTYiLz48dGV4dCBmaWxsPSIjMDAwMDAwIiBmb250LWZhbWlseT0ic2Fucy1zZXJpZiIgZm9udC1zaXplPSIxNCIgbGVuZ3RoQWRqdXN0PSJzcGFjaW5nIiB0ZXh0TGVuZ3RoPSI2OTIiIHg9IjEwOTEiIHk9Ijg2OCI+TWFrYWxhaCBpbmkgYmVydHVqdWFuIHVudHVrIG1lbWJlcmlrYW4gd2F3YXNhbiBsZWJpaCBkYWxhbSBtZW5nZW5haSBhcGxpa2FzaSBTSVNETSBkaSBkdW5pYSBueWF0YS48L3RleHQ+PHBhdGggZD0iTTEwMzEsODYyLjI1NzggTDEwNDEsODYyLjI1NzggQzEwNTYsODYyLjI1NzggMTA1Niw4NjIuMjU3OCAxMDcxLDg2Mi4yNTc4IEwxMDgxLDg2Mi4yNTc4ICIgZmlsbD0ibm9uZSIgc3R5bGU9InN0cm9rZTojMTgxODE4O3N0cm9rZS13aWR0aDoxLjA7Ii8+PHBhdGggZD0iTTcwNyw4NjIuMjU3OCBMNzE3LDg2Mi4yNTc4IEM3MzIsODYyLjI1NzggNzMyLDg2Mi4yNTc4IDc0Nyw4NjIuMjU3OCBMNzU3LDg2Mi4yNTc4ICIgZmlsbD0ibm9uZSIgc3R5bGU9InN0cm9rZTojMTgxODE4O3N0cm9rZS13aWR0aDoxLjA7Ii8+PHJlY3QgZmlsbD0iI0YxRjFGMSIgaGVpZ2h0PSIzNC45ODQ0IiByeD0iMTIuNSIgcnk9IjEyLjUiIHN0eWxlPSJzdHJva2U6IzE4MTgxODtzdHJva2Utd2lkdGg6MS41OyIgd2lkdGg9IjI1NCIgeD0iNzU3IiB5PSI4OTkuNzUiLz48dGV4dCBmaWxsPSIjMDAwMDAwIiBmb250LWZhbWlseT0ic2Fucy1zZXJpZiIgZm9udC1zaXplPSIxNCIgbGVuZ3RoQWRqdXN0PSJzcGFjaW5nIiB0ZXh0TGVuZ3RoPSIyMzQiIHg9Ijc2NyIgeT0iOTIyLjk4NDQiPk1lbWFoYW1pIGZ1bmdzaSBkYW4gbWFuZmFhdCBTSVNETTwvdGV4dD48cmVjdCBmaWxsPSIjRjFGMUYxIiBoZWlnaHQ9IjM0Ljk4NDQiIHJ4PSIxMi41IiByeT0iMTIuNSIgc3R5bGU9InN0cm9rZTojMTgxODE4O3N0cm9rZS13aWR0aDoxLjU7IiB3aWR0aD0iNjE1IiB4PSIxMDYxIiB5PSI4OTkuNzUiLz48dGV4dCBmaWxsPSIjMDAwMDAwIiBmb250LWZhbWlseT0ic2Fucy1zZXJpZiIgZm9udC1zaXplPSIxNCIgbGVuZ3RoQWRqdXN0PSJzcGFjaW5nIiB0ZXh0TGVuZ3RoPSI1OTUiIHg9IjEwNzEiIHk9IjkyMi45ODQ0Ij5QZW51bGlzIGJlcmhhcmFwIG1ha2FsYWggaW5pIGRhcGF0IG1lbWJhbnR1IHBlbWJhY2EgbWVtYWhhbWkgZnVuZ3NpIHN0cmF0ZWdpcyBTSVNETS48L3RleHQ+PHBhdGggZD0iTTEwMTEsOTE3LjI0MjIgTDEwMjEsOTE3LjI0MjIgQzEwMzYsOTE3LjI0MjIgMTAzNiw5MTcuMjQyMiAxMDUxLDkxNy4yNDIyIEwxMDYxLDkxNy4yNDIyICIgZmlsbD0ibm9uZSIgc3R5bGU9InN0cm9rZTojMTgxODE4O3N0cm9rZS13aWR0aDoxLjA7Ii8+PHBhdGggZD0iTTcwNyw4NjIuMjU3OCBMNzE3LDg2Mi4yNTc4IEM3MzIsODYyLjI1NzggNzMyLDkxNy4yNDIyIDc0Nyw5MTcuMjQyMiBMNzU3LDkxNy4yNDIyICIgZmlsbD0ibm9uZSIgc3R5bGU9InN0cm9rZTojMTgxODE4O3N0cm9rZS13aWR0aDoxLjA7Ii8+PHBhdGggZD0iTTUzOSw2NjkuODEyNSBMNTQ5LDY2OS44MTI1IEM1NjQsNjY5LjgxMjUgNTY0LDg2Mi4yNTc4IDU3OSw4NjIuMjU3OCBMNTg5LDg2Mi4yNTc4ICIgZmlsbD0ibm9uZSIgc3R5bGU9InN0cm9rZTojMTgxODE4O3N0cm9rZS13aWR0aDoxLjA7Ii8+PHBhdGggZD0iTTM0MywxMzU3LjExNzIgTDM1MywxMzU3LjExNzIgQzM2OCwxMzU3LjExNzIgMzY4LDY2OS44MTI1IDM4Myw2NjkuODEyNSBMMzkzLDY2OS44MTI1ICIgZmlsbD0ibm9uZSIgc3R5bGU9InN0cm9rZTojMTgxODE4O3N0cm9rZS13aWR0aDoxLjA7Ii8+PHJlY3QgZmlsbD0iI0YxRjFGMSIgaGVpZ2h0PSIzNC45ODQ0IiByeD0iMTIuNSIgcnk9IjEyLjUiIHN0eWxlPSJzdHJva2U6IzE4MTgxODtzdHJva2Utd2lkdGg6MS41OyIgd2lkdGg9IjE0NyIgeD0iMzkzIiB5PSIxNTU5LjU2MjUiLz48dGV4dCBmaWxsPSIjMDAwMDAwIiBmb250LWZhbWlseT0ic2Fucy1zZXJpZiIgZm9udC1zaXplPSIxNCIgbGVuZ3RoQWRqdXN0PSJzcGFjaW5nIiB0ZXh0TGVuZ3RoPSIxMjciIHg9IjQwMyIgeT0iMTU4Mi43OTY5Ij5CQUIgSUk6IFBlbWJhaGFzYW48L3RleHQ+PHJlY3QgZmlsbD0iI0YxRjFGMSIgaGVpZ2h0PSIzNC45ODQ0IiByeD0iMTIuNSIgcnk9IjEyLjUiIHN0eWxlPSJzdHJva2U6IzE4MTgxODtzdHJva2Utd2lkdGg6MS41OyIgd2lkdGg9IjExOCIgeD0iNTkwIiB5PSI5ODIuMjI2NiIvPjx0ZXh0IGZpbGw9IiMwMDAwMDAiIGZvbnQtZmFtaWx5PSJzYW5zLXNlcmlmIiBmb250LXNpemU9IjE0IiBsZW5ndGhBZGp1c3Q9InNwYWNpbmciIHRleHRMZW5ndGg9Ijk4IiB4PSI2MDAiIHk9IjEwMDUuNDYwOSI+RGVmaW5pc2kgU0lTRE08L3RleHQ+PHJlY3QgZmlsbD0iI0YxRjFGMSIgaGVpZ2h0PSIzNC45ODQ0IiByeD0iMTIuNSIgcnk9IjEyLjUiIHN0eWxlPSJzdHJva2U6IzE4MTgxODtzdHJva2Utd2lkdGg6MS41OyIgd2lkdGg9IjI0NSIgeD0iNzU4IiB5PSI5NTQuNzM0NCIvPjx0ZXh0IGZpbGw9IiMwMDAwMDAiIGZvbnQtZmFtaWx5PSJzYW5zLXNlcmlmIiBmb250LXNpemU9IjE0IiBsZW5ndGhBZGp1c3Q9InNwYWNpbmciIHRleHRMZW5ndGg9IjIyNSIgeD0iNzY4IiB5PSI5NzcuOTY4OCI+UGVuZ2VydGlhbiBtZW51cnV0IGJlYmVyYXBhIGFobGk8L3RleHQ+PHJlY3QgZmlsbD0iI0YxRjFGMSIgaGVpZ2h0PSIzNC45ODQ0IiByeD0iMTIuNSIgcnk9IjEyLjUiIHN0eWxlPSJzdHJva2U6IzE4MTgxODtzdHJva2Utd2lkdGg6MS41OyIgd2lkdGg9IjgxMiIgeD0iMTA1MyIgeT0iOTU0LjczNDQiLz48dGV4dCBmaWxsPSIjMDAwMDAwIiBmb250LWZhbWlseT0ic2Fucy1zZXJpZiIgZm9udC1zaXplPSIxNCIgbGVuZ3RoQWRqdXN0PSJzcGFjaW5nIiB0ZXh0TGVuZ3RoPSI3OTIiIHg9IjEwNjMiIHk9Ijk3Ny45Njg4Ij5TSVNETSBhZGFsYWggc2lzdGVtIHlhbmcgbWVuZ3VtcHVsa2FuLCBtZW1lbGloYXJhLCBkYW4gbWVsYXBvcmthbiBkYXRhIFNETSB1bnR1ayBtZW5kdWt1bmcga2VwdXR1c2FuIG1hbmFqZXJpYWwuPC90ZXh0PjxwYXRoIGQ9Ik0xMDAzLDk3Mi4yMjY2IEwxMDEzLDk3Mi4yMjY2IEMxMDI4LDk3Mi4yMjY2IDEwMjgsOTcyLjIyNjYgMTA0Myw5NzIuMjI2NiBMMTA1Myw5NzIuMjI2NiAiIGZpbGw9Im5vbmUiIHN0eWxlPSJzdHJva2U6IzE4MTgxODtzdHJva2Utd2lkdGg6MS4wOyIvPjxwYXRoIGQ9Ik03MDgsOTk5LjcxODggTDcxOCw5OTkuNzE4OCBDNzMzLDk5OS43MTg4IDczMyw5NzIuMjI2NiA3NDgsOTcyLjIyNjYgTDc1OCw5NzIuMjI2NiAiIGZpbGw9Im5vbmUiIHN0eWxlPSJzdHJva2U6IzE4MTgxODtzdHJva2Utd2lkdGg6MS4wOyIvPjxyZWN0IGZpbGw9IiNGMUYxRjEiIGhlaWdodD0iMzQuOTg0NCIgcng9IjEyLjUiIHJ5PSIxMi41IiBzdHlsZT0ic3Ryb2tlOiMxODE4MTg7c3Ryb2tlLXdpZHRoOjEuNTsiIHdpZHRoPSIzNjUiIHg9Ijc1OCIgeT0iMTAwOS43MTg4Ii8+PHRleHQgZmlsbD0iIzAwMDAwMCIgZm9udC1mYW1pbHk9InNhbnMtc2VyaWYiIGZvbnQtc2l6ZT0iMTQiIGxlbmd0aEFkanVzdD0ic3BhY2luZyIgdGV4dExlbmd0aD0iMzQ1IiB4PSI3NjgiIHk9IjEwMzIuOTUzMSI+U2lzdGVtIHRlcmludGVncmFzaSB1bnR1ayBtZW5kdWt1bmcga2VwdXR1c2FuIFNETTwvdGV4dD48cmVjdCBmaWxsPSIjRjFGMUYxIiBoZWlnaHQ9IjM0Ljk4NDQiIHJ4PSIxMi41IiByeT0iMTIuNSIgc3R5bGU9InN0cm9rZTojMTgxODE4O3N0cm9rZS13aWR0aDoxLjU7IiB3aWR0aD0iNjYyIiB4PSIxMTczIiB5PSIxMDA5LjcxODgiLz48dGV4dCBmaWxsPSIjMDAwMDAwIiBmb250LWZhbWlseT0ic2Fucy1zZXJpZiIgZm9udC1zaXplPSIxNCIgbGVuZ3RoQWRqdXN0PSJzcGFjaW5nIiB0ZXh0TGVuZ3RoPSI2NDIiIHg9IjExODMiIHk9IjEwMzIuOTUzMSI+U0lTRE0gbWVtdW5na2lua2FuIHBlbmd1bXB1bGFuIGRhbiBwZW5nb2xhaGFuIGRhdGEgU0RNIGRhbGFtIHNhdHUgc2lzdGVtIHlhbmcgdGVyaW50ZWdyYXNpLjwvdGV4dD48cGF0aCBkPSJNMTEyMywxMDI3LjIxMDkgTDExMzMsMTAyNy4yMTA5IEMxMTQ4LDEwMjcuMjEwOSAxMTQ4LDEwMjcuMjEwOSAxMTYzLDEwMjcuMjEwOSBMMTE3MywxMDI3LjIxMDkgIiBmaWxsPSJub25lIiBzdHlsZT0ic3Ryb2tlOiMxODE4MTg7c3Ryb2tlLXdpZHRoOjEuMDsiLz48cGF0aCBkPSJNNzA4LDk5OS43MTg4IEw3MTgsOTk5LjcxODggQzczMyw5OTkuNzE4OCA3MzMsMTAyNy4yMTA5IDc0OCwxMDI3LjIxMDkgTDc1OCwxMDI3LjIxMDkgIiBmaWxsPSJub25lIiBzdHlsZT0ic3Ryb2tlOiMxODE4MTg7c3Ryb2tlLXdpZHRoOjEuMDsiLz48cGF0aCBkPSJNNTQwLDE1NzcuMDU0NyBMNTUwLDE1NzcuMDU0NyBDNTY1LDE1NzcuMDU0NyA1NjUsOTk5LjcxODggNTgwLDk5OS43MTg4IEw1OTAsOTk5LjcxODggIiBmaWxsPSJub25lIiBzdHlsZT0ic3Ryb2tlOiMxODE4MTg7c3Ryb2tlLXdpZHRoOjEuMDsiLz48cmVjdCBmaWxsPSIjRjFGMUYxIiBoZWlnaHQ9IjM0Ljk4NDQiIHJ4PSIxMi41IiByeT0iMTIuNSIgc3R5bGU9InN0cm9rZTojMTgxODE4O3N0cm9rZS13aWR0aDoxLjU7IiB3aWR0aD0iMTA0IiB4PSI1OTAiIHk9IjExNDcuMTc5NyIvPjx0ZXh0IGZpbGw9IiMwMDAwMDAiIGZvbnQtZmFtaWx5PSJzYW5zLXNlcmlmIiBmb250LXNpemU9IjE0IiBsZW5ndGhBZGp1c3Q9InNwYWNpbmciIHRleHRMZW5ndGg9Ijg0IiB4PSI2MDAiIHk9IjExNzAuNDE0MSI+RnVuZ3NpIFNJU0RNPC90ZXh0PjxyZWN0IGZpbGw9IiNGMUYxRjEiIGhlaWdodD0iMzQuOTg0NCIgcng9IjEyLjUiIHJ5PSIxMi41IiBzdHlsZT0ic3Ryb2tlOiMxODE4MTg7c3Ryb2tlLXdpZHRoOjEuNTsiIHdpZHRoPSIxOTYiIHg9Ijc0NCIgeT0iMTA2NC43MDMxIi8+PHRleHQgZmlsbD0iIzAwMDAwMCIgZm9udC1mYW1pbHk9InNhbnMtc2VyaWYiIGZvbnQtc2l6ZT0iMTQiIGxlbmd0aEFkanVzdD0ic3BhY2luZyIgdGV4dExlbmd0aD0iMTc2IiB4PSI3NTQiIHk9IjEwODcuOTM3NSI+UGVyZWtydXRhbiBkYW4gcGVuZXJpbWFhbjwvdGV4dD48cmVjdCBmaWxsPSIjRjFGMUYxIiBoZWlnaHQ9IjM0Ljk4NDQiIHJ4PSIxMi41IiByeT0iMTIuNSIgc3R5bGU9InN0cm9rZTojMTgxODE4O3N0cm9rZS13aWR0aDoxLjU7IiB3aWR0aD0iNjkwIiB4PSI5OTAiIHk9IjEwNjQuNzAzMSIvPjx0ZXh0IGZpbGw9IiMwMDAwMDAiIGZvbnQtZmFtaWx5PSJzYW5zLXNlcmlmIiBmb250LXNpemU9IjE0IiBsZW5ndGhBZGp1c3Q9InNwYWNpbmciIHRleHRMZW5ndGg9IjY3MCIgeD0iMTAwMCIgeT0iMTA4Ny45Mzc1Ij5GdW5nc2kgaW5pIG1lbmNha3VwIHByb3NlcyBtZW5jYXJpIGRhbiBtZW1pbGloIHBlZ2F3YWkgeWFuZyBzZXN1YWkgZGVuZ2FuIGtlYnV0dWhhbiBwZXJ1c2FoYWFuLjwvdGV4dD48cGF0aCBkPSJNOTQwLDEwODIuMTk1MyBMOTUwLDEwODIuMTk1MyBDOTY1LDEwODIuMTk1MyA5NjUsMTA4Mi4xOTUzIDk4MCwxMDgyLjE5NTMgTDk5MCwxMDgyLjE5NTMgIiBmaWxsPSJub25lIiBzdHlsZT0ic3Ryb2tlOiMxODE4MTg7c3Ryb2tlLXdpZHRoOjEuMDsiLz48cGF0aCBkPSJNNjk0LDExNjQuNjcxOSBMNzA0LDExNjQuNjcxOSBDNzE5LDExNjQuNjcxOSA3MTksMTA4Mi4xOTUzIDczNCwxMDgyLjE5NTMgTDc0NCwxMDgyLjE5NTMgIiBmaWxsPSJub25lIiBzdHlsZT0ic3Ryb2tlOiMxODE4MTg7c3Ryb2tlLXdpZHRoOjEuMDsiLz48cmVjdCBmaWxsPSIjRjFGMUYxIiBoZWlnaHQ9IjM0Ljk4NDQiIHJ4PSIxMi41IiByeT0iMTIuNSIgc3R5bGU9InN0cm9rZTojMTgxODE4O3N0cm9rZS13aWR0aDoxLjU7IiB3aWR0aD0iMTg4IiB4PSI3NDQiIHk9IjExMTkuNjg3NSIvPjx0ZXh0IGZpbGw9IiMwMDAwMDAiIGZvbnQtZmFtaWx5PSJzYW5zLXNlcmlmIiBmb250LXNpemU9IjE0IiBsZW5ndGhBZGp1c3Q9InNwYWNpbmciIHRleHRMZW5ndGg9IjE2OCIgeD0iNzU0IiB5PSIxMTQyLjkyMTkiPlBlbmRpZGlrYW4gZGFuIHBlbGF0aWhhbjwvdGV4dD48cmVjdCBmaWxsPSIjRjFGMUYxIiBoZWlnaHQ9IjM0Ljk4NDQiIHJ4PSIxMi41IiByeT0iMTIuNSIgc3R5bGU9InN0cm9rZTojMTgxODE4O3N0cm9rZS13aWR0aDoxLjU7IiB3aWR0aD0iNzk1IiB4PSI5ODIiIHk9IjExMTkuNjg3NSIvPjx0ZXh0IGZpbGw9IiMwMDAwMDAiIGZvbnQtZmFtaWx5PSJzYW5zLXNlcmlmIiBmb250LXNpemU9IjE0IiBsZW5ndGhBZGp1c3Q9InNwYWNpbmciIHRleHRMZW5ndGg9Ijc3NSIgeD0iOTkyIiB5PSIxMTQyLjkyMTkiPlNETSBtZW55ZWxlbmdnYXJha2FuIHByb2dyYW0gcGVuZGlkaWthbiBkYW4gcGVsYXRpaGFuIHVudHVrIG1lbmluZ2thdGthbiBrZXRlcmFtcGlsYW4gZGFuIHBlbmdldGFodWFuIHBlZ2F3YWkuPC90ZXh0PjxwYXRoIGQ9Ik05MzIsMTEzNy4xNzk3IEw5NDIsMTEzNy4xNzk3IEM5NTcsMTEzNy4xNzk3IDk1NywxMTM3LjE3OTcgOTcyLDExMzcuMTc5NyBMOTgyLDExMzcuMTc5NyAiIGZpbGw9Im5vbmUiIHN0eWxlPSJzdHJva2U6IzE4MTgxODtzdHJva2Utd2lkdGg6MS4wOyIvPjxwYXRoIGQ9Ik02OTQsMTE2NC42NzE5IEw3MDQsMTE2NC42NzE5IEM3MTksMTE2NC42NzE5IDcxOSwxMTM3LjE3OTcgNzM0LDExMzcuMTc5NyBMNzQ0LDExMzcuMTc5NyAiIGZpbGw9Im5vbmUiIHN0eWxlPSJzdHJva2U6IzE4MTgxODtzdHJva2Utd2lkdGg6MS4wOyIvPjxyZWN0IGZpbGw9IiNGMUYxRjEiIGhlaWdodD0iMzQuOTg0NCIgcng9IjEyLjUiIHJ5PSIxMi41IiBzdHlsZT0ic3Ryb2tlOiMxODE4MTg7c3Ryb2tlLXdpZHRoOjEuNTsiIHdpZHRoPSIxMTkiIHg9Ijc0NCIgeT0iMTE3NC42NzE5Ii8+PHRleHQgZmlsbD0iIzAwMDAwMCIgZm9udC1mYW1pbHk9InNhbnMtc2VyaWYiIGZvbnQtc2l6ZT0iMTQiIGxlbmd0aEFkanVzdD0ic3BhY2luZyIgdGV4dExlbmd0aD0iOTkiIHg9Ijc1NCIgeT0iMTE5Ny45MDYzIj5NYW5hamVtZW4gZGF0YTwvdGV4dD48cmVjdCBmaWxsPSIjRjFGMUYxIiBoZWlnaHQ9IjM0Ljk4NDQiIHJ4PSIxMi41IiByeT0iMTIuNSIgc3R5bGU9InN0cm9rZTojMTgxODE4O3N0cm9rZS13aWR0aDoxLjU7IiB3aWR0aD0iODE4IiB4PSI5MTMiIHk9IjExNzQuNjcxOSIvPjx0ZXh0IGZpbGw9IiMwMDAwMDAiIGZvbnQtZmFtaWx5PSJzYW5zLXNlcmlmIiBmb250LXNpemU9IjE0IiBsZW5ndGhBZGp1c3Q9InNwYWNpbmciIHRleHRMZW5ndGg9Ijc5OCIgeD0iOTIzIiB5PSIxMTk3LjkwNjMiPkZ1bmdzaSBtYW5hamVtZW4gZGF0YSBtZWxpYmF0a2FuIHBlbmdvbGFoYW4gaW5mb3JtYXNpIFNETSB5YW5nIGFkYSB1bnR1ayBtZW1lbnVoaSBrZWJ1dHVoYW4gaW5mb3JtYXNpIG9yZ2FuaXNhc2kuPC90ZXh0PjxwYXRoIGQ9Ik04NjMsMTE5Mi4xNjQxIEw4NzMsMTE5Mi4xNjQxIEM4ODgsMTE5Mi4xNjQxIDg4OCwxMTkyLjE2NDEgOTAzLDExOTIuMTY0MSBMOTEzLDExOTIuMTY0MSAiIGZpbGw9Im5vbmUiIHN0eWxlPSJzdHJva2U6IzE4MTgxODtzdHJva2Utd2lkdGg6MS4wOyIvPjxwYXRoIGQ9Ik02OTQsMTE2NC42NzE5IEw3MDQsMTE2NC42NzE5IEM3MTksMTE2NC42NzE5IDcxOSwxMTkyLjE2NDEgNzM0LDExOTIuMTY0MSBMNzQ0LDExOTIuMTY0MSAiIGZpbGw9Im5vbmUiIHN0eWxlPSJzdHJva2U6IzE4MTgxODtzdHJva2Utd2lkdGg6MS4wOyIvPjxyZWN0IGZpbGw9IiNGMUYxRjEiIGhlaWdodD0iMzQuOTg0NCIgcng9IjEyLjUiIHJ5PSIxMi41IiBzdHlsZT0ic3Ryb2tlOiMxODE4MTg7c3Ryb2tlLXdpZHRoOjEuNTsiIHdpZHRoPSIyODciIHg9Ijc0NCIgeT0iMTIyOS42NTYzIi8+PHRleHQgZmlsbD0iIzAwMDAwMCIgZm9udC1mYW1pbHk9InNhbnMtc2VyaWYiIGZvbnQtc2l6ZT0iMTQiIGxlbmd0aEFkanVzdD0ic3BhY2luZyIgdGV4dExlbmd0aD0iMjY3IiB4PSI3NTQiIHk9IjEyNTIuODkwNiI+UGVuZ2hlbnRpYW4gZGFuIGFkbWluaXN0cmFzaSB0dW5qYW5nYW48L3RleHQ+PHJlY3QgZmlsbD0iI0YxRjFGMSIgaGVpZ2h0PSIzNC45ODQ0IiByeD0iMTIuNSIgcnk9IjEyLjUiIHN0eWxlPSJzdHJva2U6IzE4MTgxODtzdHJva2Utd2lkdGg6MS41OyIgd2lkdGg9IjczMCIgeD0iMTA4MSIgeT0iMTIyOS42NTYzIi8+PHRleHQgZmlsbD0iIzAwMDAwMCIgZm9udC1mYW1pbHk9InNhbnMtc2VyaWYiIGZvbnQtc2l6ZT0iMTQiIGxlbmd0aEFkanVzdD0ic3BhY2luZyIgdGV4dExlbmd0aD0iNzEwIiB4PSIxMDkxIiB5PSIxMjUyLjg5MDYiPkZ1bmdzaSBpbmkgbWVuZ2Vsb2xhIGRhdGEgdGVya2FpdCBwZW5naGVudGlhbiBodWJ1bmdhbiBrZXJqYSBkYW4gYWRtaW5pc3RyYXNpIHR1bmphbmdhbiBiYWdpIHBlZ2F3YWkuPC90ZXh0PjxwYXRoIGQ9Ik0xMDMxLDEyNDcuMTQ4NCBMMTA0MSwxMjQ3LjE0ODQgQzEwNTYsMTI0Ny4xNDg0IDEwNTYsMTI0Ny4xNDg0IDEwNzEsMTI0Ny4xNDg0IEwxMDgxLDEyNDcuMTQ4NCAiIGZpbGw9Im5vbmUiIHN0eWxlPSJzdHJva2U6IzE4MTgxODtzdHJva2Utd2lkdGg6MS4wOyIvPjxwYXRoIGQ9Ik02OTQsMTE2NC42NzE5IEw3MDQsMTE2NC42NzE5IEM3MTksMTE2NC42NzE5IDcxOSwxMjQ3LjE0ODQgNzM0LDEyNDcuMTQ4NCBMNzQ0LDEyNDcuMTQ4NCAiIGZpbGw9Im5vbmUiIHN0eWxlPSJzdHJva2U6IzE4MTgxODtzdHJva2Utd2lkdGg6MS4wOyIvPjxwYXRoIGQ9Ik01NDAsMTU3Ny4wNTQ3IEw1NTAsMTU3Ny4wNTQ3IEM1NjUsMTU3Ny4wNTQ3IDU2NSwxMTY0LjY3MTkgNTgwLDExNjQuNjcxOSBMNTkwLDExNjQuNjcxOSAiIGZpbGw9Im5vbmUiIHN0eWxlPSJzdHJva2U6IzE4MTgxODtzdHJva2Utd2lkdGg6MS4wOyIvPjxyZWN0IGZpbGw9IiNGMUYxRjEiIGhlaWdodD0iMzQuOTg0NCIgcng9IjEyLjUiIHJ5PSIxMi41IiBzdHlsZT0ic3Ryb2tlOiMxODE4MTg7c3Ryb2tlLXdpZHRoOjEuNTsiIHdpZHRoPSIxMDQiIHg9IjU5MCIgeT0iMTMxMi4xMzI4Ii8+PHRleHQgZmlsbD0iIzAwMDAwMCIgZm9udC1mYW1pbHk9InNhbnMtc2VyaWYiIGZvbnQtc2l6ZT0iMTQiIGxlbmd0aEFkanVzdD0ic3BhY2luZyIgdGV4dExlbmd0aD0iODQiIHg9IjYwMCIgeT0iMTMzNS4zNjcyIj5UdWp1YW4gU0lTRE08L3RleHQ+PHJlY3QgZmlsbD0iI0YxRjFGMSIgaGVpZ2h0PSIzNC45ODQ0IiByeD0iMTIuNSIgcnk9IjEyLjUiIHN0eWxlPSJzdHJva2U6IzE4MTgxODtzdHJva2Utd2lkdGg6MS41OyIgd2lkdGg9IjE3NCIgeD0iNzQ0IiB5PSIxMjg0LjY0MDYiLz48dGV4dCBmaWxsPSIjMDAwMDAwIiBmb250LWZhbWlseT0ic2Fucy1zZXJpZiIgZm9udC1zaXplPSIxNCIgbGVuZ3RoQWRqdXN0PSJzcGFjaW5nIiB0ZXh0TGVuZ3RoPSIxNTQiIHg9Ijc1NCIgeT0iMTMwNy44NzUiPk1lbmluZ2thdGthbiBlZmlzaWVuc2k8L3RleHQ+PHJlY3QgZmlsbD0iI0YxRjFGMSIgaGVpZ2h0PSIzNC45ODQ0IiByeD0iMTIuNSIgcnk9IjEyLjUiIHN0eWxlPSJzdHJva2U6IzE4MTgxODtzdHJva2Utd2lkdGg6MS41OyIgd2lkdGg9IjgwNyIgeD0iOTY4IiB5PSIxMjg0LjY0MDYiLz48dGV4dCBmaWxsPSIjMDAwMDAwIiBmb250LWZhbWlseT0ic2Fucy1zZXJpZiIgZm9udC1zaXplPSIxNCIgbGVuZ3RoQWRqdXN0PSJzcGFjaW5nIiB0ZXh0TGVuZ3RoPSI3ODciIHg9Ijk3OCIgeT0iMTMwNy44NzUiPkRlbmdhbiBhZGFueWEgb3RvbWF0aXNhc2kgcGVuZ29sYWhhbiBkYXRhLCBwcm9zZXMgU0RNIG1lbmphZGkgbGViaWggZWZpc2llbiBkYW4gdGVyaGluZGFyIGRhcmkga2VzYWxhaGFuIG1hbnVhbC48L3RleHQ+PHBhdGggZD0iTTkxOCwxMzAyLjEzMjggTDkyOCwxMzAyLjEzMjggQzk0MywxMzAyLjEzMjggOTQzLDEzMDIuMTMyOCA5NTgsMTMwMi4xMzI4IEw5NjgsMTMwMi4xMzI4ICIgZmlsbD0ibm9uZSIgc3R5bGU9InN0cm9rZTojMTgxODE4O3N0cm9rZS13aWR0aDoxLjA7Ii8+PHBhdGggZD0iTTY5NCwxMzI5LjYyNSBMNzA0LDEzMjkuNjI1IEM3MTksMTMyOS42MjUgNzE5LDEzMDIuMTMyOCA3MzQsMTMwMi4xMzI4IEw3NDQsMTMwMi4xMzI4ICIgZmlsbD0ibm9uZSIgc3R5bGU9InN0cm9rZTojMTgxODE4O3N0cm9rZS13aWR0aDoxLjA7Ii8+PHJlY3QgZmlsbD0iI0YxRjFGMSIgaGVpZ2h0PSIzNC45ODQ0IiByeD0iMTIuNSIgcnk9IjEyLjUiIHN0eWxlPSJzdHJva2U6IzE4MTgxODtzdHJva2Utd2lkdGg6MS41OyIgd2lkdGg9IjI2NSIgeD0iNzQ0IiB5PSIxMzM5LjYyNSIvPjx0ZXh0IGZpbGw9IiMwMDAwMDAiIGZvbnQtZmFtaWx5PSJzYW5zLXNlcmlmIiBmb250LXNpemU9IjE0IiBsZW5ndGhBZGp1c3Q9InNwYWNpbmciIHRleHRMZW5ndGg9IjI0NSIgeD0iNzU0IiB5PSIxMzYyLjg1OTQiPk1lbmR1a3VuZyBwZXJlbmNhbmFhbiBzdHJhdGVnaXMgU0RNPC90ZXh0PjxyZWN0IGZpbGw9IiNGMUYxRjEiIGhlaWdodD0iMzQuOTg0NCIgcng9IjEyLjUiIHJ5PSIxMi41IiBzdHlsZT0ic3Ryb2tlOiMxODE4MTg7c3Ryb2tlLXdpZHRoOjEuNTsiIHdpZHRoPSI2NjAiIHg9IjEwNTkiIHk9IjEzMzkuNjI1Ii8+PHRleHQgZmlsbD0iIzAwMDAwMCIgZm9udC1mYW1pbHk9InNhbnMtc2VyaWYiIGZvbnQtc2l6ZT0iMTQiIGxlbmd0aEFkanVzdD0ic3BhY2luZyIgdGV4dExlbmd0aD0iNjQwIiB4PSIxMDY5IiB5PSIxMzYyLjg1OTQiPlNJU0RNIG1lbXVuZ2tpbmthbiBwZXJlbmNhbmFhbiBTRE0geWFuZyBsZWJpaCBha3VyYXQgZGFuIG1lbmR1a3VuZyBrZXB1dHVzYW4gYmVyYmFzaXMgZGF0YS48L3RleHQ+PHBhdGggZD0iTTEwMDksMTM1Ny4xMTcyIEwxMDE5LDEzNTcuMTE3MiBDMTAzNCwxMzU3LjExNzIgMTAzNCwxMzU3LjExNzIgMTA0OSwxMzU3LjExNzIgTDEwNTksMTM1Ny4xMTcyICIgZmlsbD0ibm9uZSIgc3R5bGU9InN0cm9rZTojMTgxODE4O3N0cm9rZS13aWR0aDoxLjA7Ii8+PHBhdGggZD0iTTY5NCwxMzI5LjYyNSBMNzA0LDEzMjkuNjI1IEM3MTksMTMyOS42MjUgNzE5LDEzNTcuMTE3MiA3MzQsMTM1Ny4xMTcyIEw3NDQsMTM1Ny4xMTcyICIgZmlsbD0ibm9uZSIgc3R5bGU9InN0cm9rZTojMTgxODE4O3N0cm9rZS13aWR0aDoxLjA7Ii8+PHBhdGggZD0iTTU0MCwxNTc3LjA1NDcgTDU1MCwxNTc3LjA1NDcgQzU2NSwxNTc3LjA1NDcgNTY1LDEzMjkuNjI1IDU4MCwxMzI5LjYyNSBMNTkwLDEzMjkuNjI1ICIgZmlsbD0ibm9uZSIgc3R5bGU9InN0cm9rZTojMTgxODE4O3N0cm9rZS13aWR0aDoxLjA7Ii8+PHJlY3QgZmlsbD0iI0YxRjFGMSIgaGVpZ2h0PSIzNC45ODQ0IiByeD0iMTIuNSIgcnk9IjEyLjUiIHN0eWxlPSJzdHJva2U6IzE4MTgxODtzdHJva2Utd2lkdGg6MS41OyIgd2lkdGg9IjExOSIgeD0iNTkwIiB5PSIxNDQ5LjU5MzgiLz48dGV4dCBmaWxsPSIjMDAwMDAwIiBmb250LWZhbWlseT0ic2Fucy1zZXJpZiIgZm9udC1zaXplPSIxNCIgbGVuZ3RoQWRqdXN0PSJzcGFjaW5nIiB0ZXh0TGVuZ3RoPSI5OSIgeD0iNjAwIiB5PSIxNDcyLjgyODEiPktvbXBvbmVuIFNJU0RNPC90ZXh0PjxyZWN0IGZpbGw9IiNGMUYxRjEiIGhlaWdodD0iMzQuOTg0NCIgcng9IjEyLjUiIHJ5PSIxMi41IiBzdHlsZT0ic3Ryb2tlOiMxODE4MTg7c3Ryb2tlLXdpZHRoOjEuNTsiIHdpZHRoPSIyNTIiIHg9Ijc1OSIgeT0iMTM5NC42MDk0Ii8+PHRleHQgZmlsbD0iIzAwMDAwMCIgZm9udC1mYW1pbHk9InNhbnMtc2VyaWYiIGZvbnQtc2l6ZT0iMTQiIGxlbmd0aEFkanVzdD0ic3BhY2luZyIgdGV4dExlbmd0aD0iMjMyIiB4PSI3NjkiIHk9IjE0MTcuODQzOCI+SW5wdXQ6IE1lbWFzdWtrYW4gZGF0YSBwZXJzb25hbGlhPC90ZXh0PjxyZWN0IGZpbGw9IiNGMUYxRjEiIGhlaWdodD0iMzQuOTg0NCIgcng9IjEyLjUiIHJ5PSIxMi41IiBzdHlsZT0ic3Ryb2tlOiMxODE4MTg7c3Ryb2tlLXdpZHRoOjEuNTsiIHdpZHRoPSI2NDkiIHg9IjEwNjEiIHk9IjEzOTQuNjA5NCIvPjx0ZXh0IGZpbGw9IiMwMDAwMDAiIGZvbnQtZmFtaWx5PSJzYW5zLXNlcmlmIiBmb250LXNpemU9IjE0IiBsZW5ndGhBZGp1c3Q9InNwYWNpbmciIHRleHRMZW5ndGg9IjYyOSIgeD0iMTA3MSIgeT0iMTQxNy44NDM4Ij5Qcm9zZXMgcGVuZ3VtcHVsYW4gZGF0YSBwZWdhd2FpLCB0ZXJtYXN1ayBkYXRhIHByaWJhZGkgZGFuIHJpd2F5YXQga2VyamEga2UgZGFsYW0gc2lzdGVtLjwvdGV4dD48cGF0aCBkPSJNMTAxMSwxNDEyLjEwMTYgTDEwMjEsMTQxMi4xMDE2IEMxMDM2LDE0MTIuMTAxNiAxMDM2LDE0MTIuMTAxNiAxMDUxLDE0MTIuMTAxNiBMMTA2MSwxNDEyLjEwMTYgIiBmaWxsPSJub25lIiBzdHlsZT0ic3Ryb2tlOiMxODE4MTg7c3Ryb2tlLXdpZHRoOjEuMDsiLz48cGF0aCBkPSJNNzA5LDE0NjcuMDg1OSBMNzE5LDE0NjcuMDg1OSBDNzM0LDE0NjcuMDg1OSA3MzQsMTQxMi4xMDE2IDc0OSwxNDEyLjEwMTYgTDc1OSwxNDEyLjEwMTYgIiBmaWxsPSJub25lIiBzdHlsZT0ic3Ryb2tlOiMxODE4MTg7c3Ryb2tlLXdpZHRoOjEuMDsiLz48cmVjdCBmaWxsPSIjRjFGMUYxIiBoZWlnaHQ9IjM0Ljk4NDQiIHJ4PSIxMi41IiByeT0iMTIuNSIgc3R5bGU9InN0cm9rZTojMTgxODE4O3N0cm9rZS13aWR0aDoxLjU7IiB3aWR0aD0iMzI1IiB4PSI3NTkiIHk9IjE0NDkuNTkzOCIvPjx0ZXh0IGZpbGw9IiMwMDAwMDAiIGZvbnQtZmFtaWx5PSJzYW5zLXNlcmlmIiBmb250LXNpemU9IjE0IiBsZW5ndGhBZGp1c3Q9InNwYWNpbmciIHRleHRMZW5ndGg9IjMwNSIgeD0iNzY5IiB5PSIxNDcyLjgyODEiPlBlbXJvc2VzYW46IE1lbWVsaWhhcmEgZGFuIG1lbXBlcmJhcnVpIGRhdGE8L3RleHQ+PHJlY3QgZmlsbD0iI0YxRjFGMSIgaGVpZ2h0PSIzNC45ODQ0IiByeD0iMTIuNSIgcnk9IjEyLjUiIHN0eWxlPSJzdHJva2U6IzE4MTgxODtzdHJva2Utd2lkdGg6MS41OyIgd2lkdGg9IjY2MCIgeD0iMTEzNCIgeT0iMTQ0OS41OTM4Ii8+PHRleHQgZmlsbD0iIzAwMDAwMCIgZm9udC1mYW1pbHk9InNhbnMtc2VyaWYiIGZvbnQtc2l6ZT0iMTQiIGxlbmd0aEFkanVzdD0ic3BhY2luZyIgdGV4dExlbmd0aD0iNjQwIiB4PSIxMTQ0IiB5PSIxNDcyLjgyODEiPkRhdGEgeWFuZyBhZGEgZGlwZXJiYWhhcnVpIHNlY2FyYSBiZXJrYWxhIHVudHVrIG1lbWFzdGlrYW4gYWt1cmFzaSBkYW4gcmVsZXZhbnNpIGluZm9ybWFzaS48L3RleHQ+PHBhdGggZD0iTTEwODQsMTQ2Ny4wODU5IEwxMDk0LDE0NjcuMDg1OSBDMTEwOSwxNDY3LjA4NTkgMTEwOSwxNDY3LjA4NTkgMTEyNCwxNDY3LjA4NTkgTDExMzQsMTQ2Ny4wODU5ICIgZmlsbD0ibm9uZSIgc3R5bGU9InN0cm9rZTojMTgxODE4O3N0cm9rZS13aWR0aDoxLjA7Ii8+PHBhdGggZD0iTTcwOSwxNDY3LjA4NTkgTDcxOSwxNDY3LjA4NTkgQzczNCwxNDY3LjA4NTkgNzM0LDE0NjcuMDg1OSA3NDksMTQ2Ny4wODU5IEw3NTksMTQ2Ny4wODU5ICIgZmlsbD0ibm9uZSIgc3R5bGU9InN0cm9rZTojMTgxODE4O3N0cm9rZS13aWR0aDoxLjA7Ii8+PHJlY3QgZmlsbD0iI0YxRjFGMSIgaGVpZ2h0PSIzNC45ODQ0IiByeD0iMTIuNSIgcnk9IjEyLjUiIHN0eWxlPSJzdHJva2U6IzE4MTgxODtzdHJva2Utd2lkdGg6MS41OyIgd2lkdGg9IjM0MiIgeD0iNzU5IiB5PSIxNTA0LjU3ODEiLz48dGV4dCBmaWxsPSIjMDAwMDAwIiBmb250LWZhbWlseT0ic2Fucy1zZXJpZiIgZm9udC1zaXplPSIxNCIgbGVuZ3RoQWRqdXN0PSJzcGFjaW5nIiB0ZXh0TGVuZ3RoPSIzMjIiIHg9Ijc2OSIgeT0iMTUyNy44MTI1Ij5PdXRwdXQ6IE1lbmdoYXNpbGthbiBsYXBvcmFuIGRhbiBzdGF0aXN0aWsgU0RNPC90ZXh0PjxyZWN0IGZpbGw9IiNGMUYxRjEiIGhlaWdodD0iMzQuOTg0NCIgcng9IjEyLjUiIHJ5PSIxMi41IiBzdHlsZT0ic3Ryb2tlOiMxODE4MTg7c3Ryb2tlLXdpZHRoOjEuNTsiIHdpZHRoPSI4MzYiIHg9IjExNTEiIHk9IjE1MDQuNTc4MSIvPjx0ZXh0IGZpbGw9IiMwMDAwMDAiIGZvbnQtZmFtaWx5PSJzYW5zLXNlcmlmIiBmb250LXNpemU9IjE0IiBsZW5ndGhBZGp1c3Q9InNwYWNpbmciIHRleHRMZW5ndGg9IjgxNiIgeD0iMTE2MSIgeT0iMTUyNy44MTI1Ij5EYXRhIHlhbmcgc3VkYWggZGlwcm9zZXMgZGlndW5ha2FuIHVudHVrIG1lbmdoYXNpbGthbiBsYXBvcmFuIHlhbmcgZGlndW5ha2FuIGRhbGFtIHBlbmdhbWJpbGFuIGtlcHV0dXNhbiBtYW5hamVyaWFsLjwvdGV4dD48cGF0aCBkPSJNMTEwMSwxNTIyLjA3MDMgTDExMTEsMTUyMi4wNzAzIEMxMTI2LDE1MjIuMDcwMyAxMTI2LDE1MjIuMDcwMyAxMTQxLDE1MjIuMDcwMyBMMTE1MSwxNTIyLjA3MDMgIiBmaWxsPSJub25lIiBzdHlsZT0ic3Ryb2tlOiMxODE4MTg7c3Ryb2tlLXdpZHRoOjEuMDsiLz48cGF0aCBkPSJNNzA5LDE0NjcuMDg1OSBMNzE5LDE0NjcuMDg1OSBDNzM0LDE0NjcuMDg1OSA3MzQsMTUyMi4wNzAzIDc0OSwxNTIyLjA3MDMgTDc1OSwxNTIyLjA3MDMgIiBmaWxsPSJub25lIiBzdHlsZT0ic3Ryb2tlOiMxODE4MTg7c3Ryb2tlLXdpZHRoOjEuMDsiLz48cGF0aCBkPSJNNTQwLDE1NzcuMDU0NyBMNTUwLDE1NzcuMDU0NyBDNTY1LDE1NzcuMDU0NyA1NjUsMTQ2Ny4wODU5IDU4MCwxNDY3LjA4NTkgTDU5MCwxNDY3LjA4NTkgIiBmaWxsPSJub25lIiBzdHlsZT0ic3Ryb2tlOiMxODE4MTg7c3Ryb2tlLXdpZHRoOjEuMDsiLz48cmVjdCBmaWxsPSIjRjFGMUYxIiBoZWlnaHQ9IjM0Ljk4NDQiIHJ4PSIxMi41IiByeT0iMTIuNSIgc3R5bGU9InN0cm9rZTojMTgxODE4O3N0cm9rZS13aWR0aDoxLjU7IiB3aWR0aD0iOTciIHg9IjU5MCIgeT0iMTY2OS41MzEzIi8+PHRleHQgZmlsbD0iIzAwMDAwMCIgZm9udC1mYW1pbHk9InNhbnMtc2VyaWYiIGZvbnQtc2l6ZT0iMTQiIGxlbmd0aEFkanVzdD0ic3BhY2luZyIgdGV4dExlbmd0aD0iNzciIHg9IjYwMCIgeT0iMTY5Mi43NjU2Ij5Nb2RlbCBTSVNETTwvdGV4dD48cmVjdCBmaWxsPSIjRjFGMUYxIiBoZWlnaHQ9IjM0Ljk4NDQiIHJ4PSIxMi41IiByeT0iMTIuNSIgc3R5bGU9InN0cm9rZTojMTgxODE4O3N0cm9rZS13aWR0aDoxLjU7IiB3aWR0aD0iMTI2IiB4PSI3MzciIHk9IjE2MTQuNTQ2OSIvPjx0ZXh0IGZpbGw9IiMwMDAwMDAiIGZvbnQtZmFtaWx5PSJzYW5zLXNlcmlmIiBmb250LXNpemU9IjE0IiBsZW5ndGhBZGp1c3Q9InNwYWNpbmciIHRleHRMZW5ndGg9IjEwNiIgeD0iNzQ3IiB5PSIxNjM3Ljc4MTMiPlN1YnNpc3RlbSBJbnB1dDwvdGV4dD48cmVjdCBmaWxsPSIjRjFGMUYxIiBoZWlnaHQ9IjM0Ljk4NDQiIHJ4PSIxMi41IiByeT0iMTIuNSIgc3R5bGU9InN0cm9rZTojMTgxODE4O3N0cm9rZS13aWR0aDoxLjU7IiB3aWR0aD0iMjA0IiB4PSI5MTMiIHk9IjE1NTkuNTYyNSIvPjx0ZXh0IGZpbGw9IiMwMDAwMDAiIGZvbnQtZmFtaWx5PSJzYW5zLXNlcmlmIiBmb250LXNpemU9IjE0IiBsZW5ndGhBZGp1c3Q9InNwYWNpbmciIHRleHRMZW5ndGg9IjE4NCIgeD0iOTIzIiB5PSIxNTgyLjc5NjkiPlNpc3RlbSBJbmZvcm1hc2kgQWt1bnRhbnNpPC90ZXh0PjxyZWN0IGZpbGw9IiNGMUYxRjEiIGhlaWdodD0iMzQuOTg0NCIgcng9IjEyLjUiIHJ5PSIxMi41IiBzdHlsZT0ic3Ryb2tlOiMxODE4MTg7c3Ryb2tlLXdpZHRoOjEuNTsiIHdpZHRoPSI3MTgiIHg9IjExNjciIHk9IjE1NTkuNTYyNSIvPjx0ZXh0IGZpbGw9IiMwMDAwMDAiIGZvbnQtZmFtaWx5PSJzYW5zLXNlcmlmIiBmb250LXNpemU9IjE0IiBsZW5ndGhBZGp1c3Q9InNwYWNpbmciIHRleHRMZW5ndGg9IjY5OCIgeD0iMTE3NyIgeT0iMTU4Mi43OTY5Ij5EYXRhIHlhbmcgZGlndW5ha2FuIGRhbGFtIEhSSVMgbWVuY2FrdXAgaW5mb3JtYXNpIHByaWJhZGkgcGVnYXdhaSBkYW4gZWxlbWVuIGtldWFuZ2FuIHlhbmcgdGVya2FpdC48L3RleHQ+PHBhdGggZD0iTTExMTcsMTU3Ny4wNTQ3IEwxMTI3LDE1NzcuMDU0NyBDMTE0MiwxNTc3LjA1NDcgMTE0MiwxNTc3LjA1NDcgMTE1NywxNTc3LjA1NDcgTDExNjcsMTU3Ny4wNTQ3ICIgZmlsbD0ibm9uZSIgc3R5bGU9InN0cm9rZTojMTgxODE4O3N0cm9rZS13aWR0aDoxLjA7Ii8+PHBhdGggZD0iTTg2MywxNjMyLjAzOTEgTDg3MywxNjMyLjAzOTEgQzg4OCwxNjMyLjAzOTEgODg4LDE1NzcuMDU0NyA5MDMsMTU3Ny4wNTQ3IEw5MTMsMTU3Ny4wNTQ3ICIgZmlsbD0ibm9uZSIgc3R5bGU9InN0cm9rZTojMTgxODE4O3N0cm9rZS13aWR0aDoxLjA7Ii8+PHJlY3QgZmlsbD0iI0YxRjFGMSIgaGVpZ2h0PSIzNC45ODQ0IiByeD0iMTIuNSIgcnk9IjEyLjUiIHN0eWxlPSJzdHJva2U6IzE4MTgxODtzdHJva2Utd2lkdGg6MS41OyIgd2lkdGg9IjExOCIgeD0iOTEzIiB5PSIxNjE0LjU0NjkiLz48dGV4dCBmaWxsPSIjMDAwMDAwIiBmb250LWZhbWlseT0ic2Fucy1zZXJpZiIgZm9udC1zaXplPSIxNCIgbGVuZ3RoQWRqdXN0PSJzcGFjaW5nIiB0ZXh0TGVuZ3RoPSI5OCIgeD0iOTIzIiB5PSIxNjM3Ljc4MTMiPlBlbmVsaXRpYW4gU0RNPC90ZXh0PjxyZWN0IGZpbGw9IiNGMUYxRjEiIGhlaWdodD0iMzQuOTg0NCIgcng9IjEyLjUiIHJ5PSIxMi41IiBzdHlsZT0ic3Ryb2tlOiMxODE4MTg7c3Ryb2tlLXdpZHRoOjEuNTsiIHdpZHRoPSI2ODEiIHg9IjEwODEiIHk9IjE2MTQuNTQ2OSIvPjx0ZXh0IGZpbGw9IiMwMDAwMDAiIGZvbnQtZmFtaWx5PSJzYW5zLXNlcmlmIiBmb250LXNpemU9IjE0IiBsZW5ndGhBZGp1c3Q9InNwYWNpbmciIHRleHRMZW5ndGg9IjY2MSIgeD0iMTA5MSIgeT0iMTYzNy43ODEzIj5NZW5ndW1wdWxrYW4gZGF0YSBtZWxhbHVpIHByb3llayBwZW5lbGl0aWFuIHVudHVrIG1lbmR1a3VuZyBrZXB1dHVzYW4gdGVya2FpdCBwZW5nZWxvbGFhbiBTRE0uPC90ZXh0PjxwYXRoIGQ9Ik0xMDMxLDE2MzIuMDM5MSBMMTA0MSwxNjMyLjAzOTEgQzEwNTYsMTYzMi4wMzkxIDEwNTYsMTYzMi4wMzkxIDEwNzEsMTYzMi4wMzkxIEwxMDgxLDE2MzIuMDM5MSAiIGZpbGw9Im5vbmUiIHN0eWxlPSJzdHJva2U6IzE4MTgxODtzdHJva2Utd2lkdGg6MS4wOyIvPjxwYXRoIGQ9Ik04NjMsMTYzMi4wMzkxIEw4NzMsMTYzMi4wMzkxIEM4ODgsMTYzMi4wMzkxIDg4OCwxNjMyLjAzOTEgOTAzLDE2MzIuMDM5MSBMOTEzLDE2MzIuMDM5MSAiIGZpbGw9Im5vbmUiIHN0eWxlPSJzdHJva2U6IzE4MTgxODtzdHJva2Utd2lkdGg6MS4wOyIvPjxyZWN0IGZpbGw9IiNGMUYxRjEiIGhlaWdodD0iMzQuOTg0NCIgcng9IjEyLjUiIHJ5PSIxMi41IiBzdHlsZT0ic3Ryb2tlOiMxODE4MTg7c3Ryb2tlLXdpZHRoOjEuNTsiIHdpZHRoPSIxMTEiIHg9IjkxMyIgeT0iMTY2OS41MzEzIi8+PHRleHQgZmlsbD0iIzAwMDAwMCIgZm9udC1mYW1pbHk9InNhbnMtc2VyaWYiIGZvbnQtc2l6ZT0iMTQiIGxlbmd0aEFkanVzdD0ic3BhY2luZyIgdGV4dExlbmd0aD0iOTEiIHg9IjkyMyIgeT0iMTY5Mi43NjU2Ij5JbnRlbGlqZW4gU0RNPC90ZXh0PjxyZWN0IGZpbGw9IiNGMUYxRjEiIGhlaWdodD0iMzQuOTg0NCIgcng9IjEyLjUiIHJ5PSIxMi41IiBzdHlsZT0ic3Ryb2tlOiMxODE4MTg7c3Ryb2tlLXdpZHRoOjEuNTsiIHdpZHRoPSI2NDUiIHg9IjEwNzQiIHk9IjE2NjkuNTMxMyIvPjx0ZXh0IGZpbGw9IiMwMDAwMDAiIGZvbnQtZmFtaWx5PSJzYW5zLXNlcmlmIiBmb250LXNpemU9IjE0IiBsZW5ndGhBZGp1c3Q9InNwYWNpbmciIHRleHRMZW5ndGg9IjYyNSIgeD0iMTA4NCIgeT0iMTY5Mi43NjU2Ij5NZW5ndW1wdWxrYW4gaW5mb3JtYXNpIGVrc3Rlcm5hbCB5YW5nIGJlcmh1YnVuZ2FuIGRlbmdhbiBwYXNhciB0ZW5hZ2Ega2VyamEgZGFuIHRyZW4gU0RNLjwvdGV4dD48cGF0aCBkPSJNMTAyNCwxNjg3LjAyMzQgTDEwMzQsMTY4Ny4wMjM0IEMxMDQ5LDE2ODcuMDIzNCAxMDQ5LDE2ODcuMDIzNCAxMDY0LDE2ODcuMDIzNCBMMTA3NCwxNjg3LjAyMzQgIiBmaWxsPSJub25lIiBzdHlsZT0ic3Ryb2tlOiMxODE4MTg7c3Ryb2tlLXdpZHRoOjEuMDsiLz48cGF0aCBkPSJNODYzLDE2MzIuMDM5MSBMODczLDE2MzIuMDM5MSBDODg4LDE2MzIuMDM5MSA4ODgsMTY4Ny4wMjM0IDkwMywxNjg3LjAyMzQgTDkxMywxNjg3LjAyMzQgIiBmaWxsPSJub25lIiBzdHlsZT0ic3Ryb2tlOiMxODE4MTg7c3Ryb2tlLXdpZHRoOjEuMDsiLz48cGF0aCBkPSJNNjg3LDE2ODcuMDIzNCBMNjk3LDE2ODcuMDIzNCBDNzEyLDE2ODcuMDIzNCA3MTIsMTYzMi4wMzkxIDcyNywxNjMyLjAzOTEgTDczNywxNjMyLjAzOTEgIiBmaWxsPSJub25lIiBzdHlsZT0ic3Ryb2tlOiMxODE4MTg7c3Ryb2tlLXdpZHRoOjEuMDsiLz48cmVjdCBmaWxsPSIjRjFGMUYxIiBoZWlnaHQ9IjM0Ljk4NDQiIHJ4PSIxMi41IiByeT0iMTIuNSIgc3R5bGU9InN0cm9rZTojMTgxODE4O3N0cm9rZS13aWR0aDoxLjU7IiB3aWR0aD0iMTMzIiB4PSI3MzciIHk9IjE3NTIuMDA3OCIvPjx0ZXh0IGZpbGw9IiMwMDAwMDAiIGZvbnQtZmFtaWx5PSJzYW5zLXNlcmlmIiBmb250LXNpemU9IjE0IiBsZW5ndGhBZGp1c3Q9InNwYWNpbmciIHRleHRMZW5ndGg9IjExMyIgeD0iNzQ3IiB5PSIxNzc1LjI0MjIiPlN1YnNpc3RlbSBPdXRwdXQ8L3RleHQ+PHJlY3QgZmlsbD0iI0YxRjFGMSIgaGVpZ2h0PSIzNC45ODQ0IiByeD0iMTIuNSIgcnk9IjEyLjUiIHN0eWxlPSJzdHJva2U6IzE4MTgxODtzdHJva2Utd2lkdGg6MS41OyIgd2lkdGg9IjQwNyIgeD0iOTIwIiB5PSIxNzI0LjUxNTYiLz48dGV4dCBmaWxsPSIjMDAwMDAwIiBmb250LWZhbWlseT0ic2Fucy1zZXJpZiIgZm9udC1zaXplPSIxNCIgbGVuZ3RoQWRqdXN0PSJzcGFjaW5nIiB0ZXh0TGVuZ3RoPSIzODciIHg9IjkzMCIgeT0iMTc0Ny43NSI+UGVyZW5jYW5hYW4ga2VyamEsIHBlcmVrcnV0YW4sIG1hbmFqZW1lbiBhbmdrYXRhbiBrZXJqYTwvdGV4dD48cmVjdCBmaWxsPSIjRjFGMUYxIiBoZWlnaHQ9IjM0Ljk4NDQiIHJ4PSIxMi41IiByeT0iMTIuNSIgc3R5bGU9InN0cm9rZTojMTgxODE4O3N0cm9rZS13aWR0aDoxLjU7IiB3aWR0aD0iNTA0IiB4PSIxMzc3IiB5PSIxNzI0LjUxNTYiLz48dGV4dCBmaWxsPSIjMDAwMDAwIiBmb250LWZhbWlseT0ic2Fucy1zZXJpZiIgZm9udC1zaXplPSIxNCIgbGVuZ3RoQWRqdXN0PSJzcGFjaW5nIiB0ZXh0TGVuZ3RoPSI0ODQiIHg9IjEzODciIHk9IjE3NDcuNzUiPlByb3NlcyBtZXJlbmNhbmFrYW4ga2VidXR1aGFuIHRlbmFnYSBrZXJqYSBqYW5na2EgcGFuamFuZyBkYW4gcGVuZGVrLjwvdGV4dD48cGF0aCBkPSJNMTMyNywxNzQyLjAwNzggTDEzMzcsMTc0Mi4wMDc4IEMxMzUyLDE3NDIuMDA3OCAxMzUyLDE3NDIuMDA3OCAxMzY3LDE3NDIuMDA3OCBMMTM3NywxNzQyLjAwNzggIiBmaWxsPSJub25lIiBzdHlsZT0ic3Ryb2tlOiMxODE4MTg7c3Ryb2tlLXdpZHRoOjEuMDsiLz48cGF0aCBkPSJNODcwLDE3NjkuNSBMODgwLDE3NjkuNSBDODk1LDE3NjkuNSA4OTUsMTc0Mi4wMDc4IDkxMCwxNzQyLjAwNzggTDkyMCwxNzQyLjAwNzggIiBmaWxsPSJub25lIiBzdHlsZT0ic3Ryb2tlOiMxODE4MTg7c3Ryb2tlLXdpZHRoOjEuMDsiLz48cmVjdCBmaWxsPSIjRjFGMUYxIiBoZWlnaHQ9IjM0Ljk4NDQiIHJ4PSIxMi41IiByeT0iMTIuNSIgc3R5bGU9InN0cm9rZTojMTgxODE4O3N0cm9rZS13aWR0aDoxLjU7IiB3aWR0aD0iMzAwIiB4PSI5MjAiIHk9IjE3NzkuNSIvPjx0ZXh0IGZpbGw9IiMwMDAwMDAiIGZvbnQtZmFtaWx5PSJzYW5zLXNlcmlmIiBmb250LXNpemU9IjE0IiBsZW5ndGhBZGp1c3Q9InNwYWNpbmciIHRleHRMZW5ndGg9IjI4MCIgeD0iOTMwIiB5PSIxODAyLjczNDQiPlR1bmphbmdhbiwgYmVuZWZpdCwgcGVsYXBvcmFuIGxpbmdrdW5nYW48L3RleHQ+PHJlY3QgZmlsbD0iI0YxRjFGMSIgaGVpZ2h0PSIzNC45ODQ0IiByeD0iMTIuNSIgcnk9IjEyLjUiIHN0eWxlPSJzdHJva2U6IzE4MTgxODtzdHJva2Utd2lkdGg6MS41OyIgd2lkdGg9IjY2MSIgeD0iMTI3MCIgeT0iMTc3OS41Ii8+PHRleHQgZmlsbD0iIzAwMDAwMCIgZm9udC1mYW1pbHk9InNhbnMtc2VyaWYiIGZvbnQtc2l6ZT0iMTQiIGxlbmd0aEFkanVzdD0ic3BhY2luZyIgdGV4dExlbmd0aD0iNjQxIiB4PSIxMjgwIiB5PSIxODAyLjczNDQiPlNpc3RlbSBpbmkgbWVuZ2hhc2lsa2FuIGluZm9ybWFzaSB0ZXJrYWl0IHBlbmdnYWppYW4sIHR1bmphbmdhbiwgZGFuIGtlc2VqYWh0ZXJhYW4gcGVnYXdhaS48L3RleHQ+PHBhdGggZD0iTTEyMjAsMTc5Ni45OTIyIEwxMjMwLDE3OTYuOTkyMiBDMTI0NSwxNzk2Ljk5MjIgMTI0NSwxNzk2Ljk5MjIgMTI2MCwxNzk2Ljk5MjIgTDEyNzAsMTc5Ni45OTIyICIgZmlsbD0ibm9uZSIgc3R5bGU9InN0cm9rZTojMTgxODE4O3N0cm9rZS13aWR0aDoxLjA7Ii8+PHBhdGggZD0iTTg3MCwxNzY5LjUgTDg4MCwxNzY5LjUgQzg5NSwxNzY5LjUgODk1LDE3OTYuOTkyMiA5MTAsMTc5Ni45OTIyIEw5MjAsMTc5Ni45OTIyICIgZmlsbD0ibm9uZSIgc3R5bGU9InN0cm9rZTojMTgxODE4O3N0cm9rZS13aWR0aDoxLjA7Ii8+PHBhdGggZD0iTTY4NywxNjg3LjAyMzQgTDY5NywxNjg3LjAyMzQgQzcxMiwxNjg3LjAyMzQgNzEyLDE3NjkuNSA3MjcsMTc2OS41IEw3MzcsMTc2OS41ICIgZmlsbD0ibm9uZSIgc3R5bGU9InN0cm9rZTojMTgxODE4O3N0cm9rZS13aWR0aDoxLjA7Ii8+PHBhdGggZD0iTTU0MCwxNTc3LjA1NDcgTDU1MCwxNTc3LjA1NDcgQzU2NSwxNTc3LjA1NDcgNTY1LDE2ODcuMDIzNCA1ODAsMTY4Ny4wMjM0IEw1OTAsMTY4Ny4wMjM0ICIgZmlsbD0ibm9uZSIgc3R5bGU9InN0cm9rZTojMTgxODE4O3N0cm9rZS13aWR0aDoxLjA7Ii8+PHJlY3QgZmlsbD0iI0YxRjFGMSIgaGVpZ2h0PSIzNC45ODQ0IiByeD0iMTIuNSIgcnk9IjEyLjUiIHN0eWxlPSJzdHJva2U6IzE4MTgxODtzdHJva2Utd2lkdGg6MS41OyIgd2lkdGg9IjE4OSIgeD0iNTkwIiB5PSIxODYxLjk3NjYiLz48dGV4dCBmaWxsPSIjMDAwMDAwIiBmb250LWZhbWlseT0ic2Fucy1zZXJpZiIgZm9udC1zaXplPSIxNCIgbGVuZ3RoQWRqdXN0PSJzcGFjaW5nIiB0ZXh0TGVuZ3RoPSIxNjkiIHg9IjYwMCIgeT0iMTg4NS4yMTA5Ij5UYWhhcCBQZW5nZW1iYW5nYW4gU0lTRE08L3RleHQ+PHJlY3QgZmlsbD0iI0YxRjFGMSIgaGVpZ2h0PSIzNC45ODQ0IiByeD0iMTIuNSIgcnk9IjEyLjUiIHN0eWxlPSJzdHJva2U6IzE4MTgxODtzdHJva2Utd2lkdGg6MS41OyIgd2lkdGg9IjIyNSIgeD0iODI5IiB5PSIxODM0LjQ4NDQiLz48dGV4dCBmaWxsPSIjMDAwMDAwIiBmb250LWZhbWlseT0ic2Fucy1zZXJpZiIgZm9udC1zaXplPSIxNCIgbGVuZ3RoQWRqdXN0PSJzcGFjaW5nIiB0ZXh0TGVuZ3RoPSIyMDUiIHg9IjgzOSIgeT0iMTg1Ny43MTg4Ij5Xb3JrZ3JvdXAgSW5mb3JtYXRpb24gU3lzdGVtczwvdGV4dD48cmVjdCBmaWxsPSIjRjFGMUYxIiBoZWlnaHQ9IjM0Ljk4NDQiIHJ4PSIxMi41IiByeT0iMTIuNSIgc3R5bGU9InN0cm9rZTojMTgxODE4O3N0cm9rZS13aWR0aDoxLjU7IiB3aWR0aD0iNjYzIiB4PSIxMTA0IiB5PSIxODM0LjQ4NDQiLz48dGV4dCBmaWxsPSIjMDAwMDAwIiBmb250LWZhbWlseT0ic2Fucy1zZXJpZiIgZm9udC1zaXplPSIxNCIgbGVuZ3RoQWRqdXN0PSJzcGFjaW5nIiB0ZXh0TGVuZ3RoPSI2NDMiIHg9IjExMTQiIHk9IjE4NTcuNzE4OCI+U2lzdGVtIGluaSBtZW5nb3JnYW5pc2lyIGtlbG9tcG9rIGtlcmphIHVudHVrIGJla2VyamEgc2FtYSBkYWxhbSBwcm95ZWsgcGVuZ2VtYmFuZ2FuIFNJU0RNLjwvdGV4dD48cGF0aCBkPSJNMTA1NCwxODUxLjk3NjYgTDEwNjQsMTg1MS45NzY2IEMxMDc5LDE4NTEuOTc2NiAxMDc5LDE4NTEuOTc2NiAxMDk0LDE4NTEuOTc2NiBMMTEwNCwxODUxLjk3NjYgIiBmaWxsPSJub25lIiBzdHlsZT0ic3Ryb2tlOiMxODE4MTg7c3Ryb2tlLXdpZHRoOjEuMDsiLz48cGF0aCBkPSJNNzc5LDE4NzkuNDY4OCBMNzg5LDE4NzkuNDY4OCBDODA0LDE4NzkuNDY4OCA4MDQsMTg1MS45NzY2IDgxOSwxODUxLjk3NjYgTDgyOSwxODUxLjk3NjYgIiBmaWxsPSJub25lIiBzdHlsZT0ic3Ryb2tlOiMxODE4MTg7c3Ryb2tlLXdpZHRoOjEuMDsiLz48cmVjdCBmaWxsPSIjRjFGMUYxIiBoZWlnaHQ9IjM0Ljk4NDQiIHJ4PSIxMi41IiByeT0iMTIuNSIgc3R5bGU9InN0cm9rZTojMTgxODE4O3N0cm9rZS13aWR0aDoxLjU7IiB3aWR0aD0iMzIyIiB4PSI4MjkiIHk9IjE4ODkuNDY4OCIvPjx0ZXh0IGZpbGw9IiMwMDAwMDAiIGZvbnQtZmFtaWx5PSJzYW5zLXNlcmlmIiBmb250LXNpemU9IjE0IiBsZW5ndGhBZGp1c3Q9InNwYWNpbmciIHRleHRMZW5ndGg9IjMwMiIgeD0iODM5IiB5PSIxOTEyLjcwMzEiPkR1a3VuZ2FuIG1hbmFqZXJpYWwgZGFuIGludGVncmFzaSB0ZWtub2xvZ2k8L3RleHQ+PHJlY3QgZmlsbD0iI0YxRjFGMSIgaGVpZ2h0PSIzNC45ODQ0IiByeD0iMTIuNSIgcnk9IjEyLjUiIHN0eWxlPSJzdHJva2U6IzE4MTgxODtzdHJva2Utd2lkdGg6MS41OyIgd2lkdGg9IjYyMCIgeD0iMTIwMSIgeT0iMTg4OS40Njg4Ii8+PHRleHQgZmlsbD0iIzAwMDAwMCIgZm9udC1mYW1pbHk9InNhbnMtc2VyaWYiIGZvbnQtc2l6ZT0iMTQiIGxlbmd0aEFkanVzdD0ic3BhY2luZyIgdGV4dExlbmd0aD0iNjAwIiB4PSIxMjExIiB5PSIxOTEyLjcwMzEiPlBlcmFuIG1hbmFqZXIgZGFsYW0gbWVuZHVrdW5nIGRhbiBtZW5naW50ZWdyYXNpa2FuIHRla25vbG9naSBkYWxhbSBwZW5nZWxvbGFhbiBTSVNETS48L3RleHQ+PHBhdGggZD0iTTExNTEsMTkwNi45NjA5IEwxMTYxLDE5MDYuOTYwOSBDMTE3NiwxOTA2Ljk2MDkgMTE3NiwxOTA2Ljk2MDkgMTE5MSwxOTA2Ljk2MDkgTDEyMDEsMTkwNi45NjA5ICIgZmlsbD0ibm9uZSIgc3R5bGU9InN0cm9rZTojMTgxODE4O3N0cm9rZS13aWR0aDoxLjA7Ii8+PHBhdGggZD0iTTc3OSwxODc5LjQ2ODggTDc4OSwxODc5LjQ2ODggQzgwNCwxODc5LjQ2ODggODA0LDE5MDYuOTYwOSA4MTksMTkwNi45NjA5IEw4MjksMTkwNi45NjA5ICIgZmlsbD0ibm9uZSIgc3R5bGU9InN0cm9rZTojMTgxODE4O3N0cm9rZS13aWR0aDoxLjA7Ii8+PHBhdGggZD0iTTU0MCwxNTc3LjA1NDcgTDU1MCwxNTc3LjA1NDcgQzU2NSwxNTc3LjA1NDcgNTY1LDE4NzkuNDY4OCA1ODAsMTg3OS40Njg4IEw1OTAsMTg3OS40Njg4ICIgZmlsbD0ibm9uZSIgc3R5bGU9InN0cm9rZTojMTgxODE4O3N0cm9rZS13aWR0aDoxLjA7Ii8+PHJlY3QgZmlsbD0iI0YxRjFGMSIgaGVpZ2h0PSIzNC45ODQ0IiByeD0iMTIuNSIgcnk9IjEyLjUiIHN0eWxlPSJzdHJva2U6IzE4MTgxODtzdHJva2Utd2lkdGg6MS41OyIgd2lkdGg9IjE2NyIgeD0iNTkwIiB5PSIxOTk5LjQzNzUiLz48dGV4dCBmaWxsPSIjMDAwMDAwIiBmb250LWZhbWlseT0ic2Fucy1zZXJpZiIgZm9udC1zaXplPSIxNCIgbGVuZ3RoQWRqdXN0PSJzcGFjaW5nIiB0ZXh0TGVuZ3RoPSIxNDciIHg9IjYwMCIgeT0iMjAyMi42NzE5Ij5Qcm9zZXMgUGVuZ29sYWhhbiBTRE08L3RleHQ+PHJlY3QgZmlsbD0iI0YxRjFGMSIgaGVpZ2h0PSIzNC45ODQ0IiByeD0iMTIuNSIgcnk9IjEyLjUiIHN0eWxlPSJzdHJva2U6IzE4MTgxODtzdHJva2Utd2lkdGg6MS41OyIgd2lkdGg9IjM1MSIgeD0iODA3IiB5PSIxOTQ0LjQ1MzEiLz48dGV4dCBmaWxsPSIjMDAwMDAwIiBmb250LWZhbWlseT0ic2Fucy1zZXJpZiIgZm9udC1zaXplPSIxNCIgbGVuZ3RoQWRqdXN0PSJzcGFjaW5nIiB0ZXh0TGVuZ3RoPSIzMzEiIHg9IjgxNyIgeT0iMTk2Ny42ODc1Ij5QZXJlbmNhbmFhbiwgcGVuZXJpbWFhbiwgcGVtaWxpaGFuLCBzb3NpYWxpc2FzaTwvdGV4dD48cmVjdCBmaWxsPSIjRjFGMUYxIiBoZWlnaHQ9IjM0Ljk4NDQiIHJ4PSIxMi41IiByeT0iMTIuNSIgc3R5bGU9InN0cm9rZTojMTgxODE4O3N0cm9rZS13aWR0aDoxLjU7IiB3aWR0aD0iNTYzIiB4PSIxMjA4IiB5PSIxOTQ0LjQ1MzEiLz48dGV4dCBmaWxsPSIjMDAwMDAwIiBmb250LWZhbWlseT0ic2Fucy1zZXJpZiIgZm9udC1zaXplPSIxNCIgbGVuZ3RoQWRqdXN0PSJzcGFjaW5nIiB0ZXh0TGVuZ3RoPSI1NDMiIHg9IjEyMTgiIHk9IjE5NjcuNjg3NSI+UHJvc2VzIHVudHVrIG1lbWFzdGlrYW4gb3JnYW5pc2FzaSBtZW1pbGlraSBTRE0geWFuZyBzZXN1YWkgZGVuZ2FuIGtlYnV0dWhhbi48L3RleHQ+PHBhdGggZD0iTTExNTgsMTk2MS45NDUzIEwxMTY4LDE5NjEuOTQ1MyBDMTE4MywxOTYxLjk0NTMgMTE4MywxOTYxLjk0NTMgMTE5OCwxOTYxLjk0NTMgTDEyMDgsMTk2MS45NDUzICIgZmlsbD0ibm9uZSIgc3R5bGU9InN0cm9rZTojMTgxODE4O3N0cm9rZS13aWR0aDoxLjA7Ii8+PHBhdGggZD0iTTc1NywyMDE2LjkyOTcgTDc2NywyMDE2LjkyOTcgQzc4MiwyMDE2LjkyOTcgNzgyLDE5NjEuOTQ1MyA3OTcsMTk2MS45NDUzIEw4MDcsMTk2MS45NDUzICIgZmlsbD0ibm9uZSIgc3R5bGU9InN0cm9rZTojMTgxODE4O3N0cm9rZS13aWR0aDoxLjA7Ii8+PHJlY3QgZmlsbD0iI0YxRjFGMSIgaGVpZ2h0PSIzNC45ODQ0IiByeD0iMTIuNSIgcnk9IjEyLjUiIHN0eWxlPSJzdHJva2U6IzE4MTgxODtzdHJva2Utd2lkdGg6MS41OyIgd2lkdGg9IjIwMyIgeD0iODA3IiB5PSIxOTk5LjQzNzUiLz48dGV4dCBmaWxsPSIjMDAwMDAwIiBmb250LWZhbWlseT0ic2Fucy1zZXJpZiIgZm9udC1zaXplPSIxNCIgbGVuZ3RoQWRqdXN0PSJzcGFjaW5nIiB0ZXh0TGVuZ3RoPSIxODMiIHg9IjgxNyIgeT0iMjAyMi42NzE5Ij5QZWxhdGloYW4gZGFuIHBlbmdlbWJhbmdhbjwvdGV4dD48cmVjdCBmaWxsPSIjRjFGMUYxIiBoZWlnaHQ9IjM0Ljk4NDQiIHJ4PSIxMi41IiByeT0iMTIuNSIgc3R5bGU9InN0cm9rZTojMTgxODE4O3N0cm9rZS13aWR0aDoxLjU7IiB3aWR0aD0iNjc1IiB4PSIxMDYwIiB5PSIxOTk5LjQzNzUiLz48dGV4dCBmaWxsPSIjMDAwMDAwIiBmb250LWZhbWlseT0ic2Fucy1zZXJpZiIgZm9udC1zaXplPSIxNCIgbGVuZ3RoQWRqdXN0PSJzcGFjaW5nIiB0ZXh0TGVuZ3RoPSI2NTUiIHg9IjEwNzAiIHk9IjIwMjIuNjcxOSI+UHJvc2VzIHBlbGF0aWhhbiB1bnR1ayBtZW5pbmdrYXRrYW4ga2VtYW1wdWFuIGthcnlhd2FuIGFnYXIgc2VzdWFpIGRlbmdhbiB0dW50dXRhbiBwZWtlcmphYW4uPC90ZXh0PjxwYXRoIGQ9Ik0xMDEwLDIwMTYuOTI5NyBMMTAyMCwyMDE2LjkyOTcgQzEwMzUsMjAxNi45Mjk3IDEwMzUsMjAxNi45Mjk3IDEwNTAsMjAxNi45Mjk3IEwxMDYwLDIwMTYuOTI5NyAiIGZpbGw9Im5vbmUiIHN0eWxlPSJzdHJva2U6IzE4MTgxODtzdHJva2Utd2lkdGg6MS4wOyIvPjxwYXRoIGQ9Ik03NTcsMjAxNi45Mjk3IEw3NjcsMjAxNi45Mjk3IEM3ODIsMjAxNi45Mjk3IDc4MiwyMDE2LjkyOTcgNzk3LDIwMTYuOTI5NyBMODA3LDIwMTYuOTI5NyAiIGZpbGw9Im5vbmUiIHN0eWxlPSJzdHJva2U6IzE4MTgxODtzdHJva2Utd2lkdGg6MS4wOyIvPjxyZWN0IGZpbGw9IiNGMUYxRjEiIGhlaWdodD0iMzQuOTg0NCIgcng9IjEyLjUiIHJ5PSIxMi41IiBzdHlsZT0ic3Ryb2tlOiMxODE4MTg7c3Ryb2tlLXdpZHRoOjEuNTsiIHdpZHRoPSIzMjQiIHg9IjgwNyIgeT0iMjA1NC40MjE5Ii8+PHRleHQgZmlsbD0iIzAwMDAwMCIgZm9udC1mYW1pbHk9InNhbnMtc2VyaWYiIGZvbnQtc2l6ZT0iMTQiIGxlbmd0aEFkanVzdD0ic3BhY2luZyIgdGV4dExlbmd0aD0iMzA0IiB4PSI4MTciIHk9IjIwNzcuNjU2MyI+UGVuaWxhaWFuIGtlcmphLCBwcm9tb3NpLCBtdXRhc2ksIHBlbWVjYXRhbjwvdGV4dD48cmVjdCBmaWxsPSIjRjFGMUYxIiBoZWlnaHQ9IjM0Ljk4NDQiIHJ4PSIxMi41IiByeT0iMTIuNSIgc3R5bGU9InN0cm9rZTojMTgxODE4O3N0cm9rZS13aWR0aDoxLjU7IiB3aWR0aD0iNjc2IiB4PSIxMTgxIiB5PSIyMDU0LjQyMTkiLz48dGV4dCBmaWxsPSIjMDAwMDAwIiBmb250LWZhbWlseT0ic2Fucy1zZXJpZiIgZm9udC1zaXplPSIxNCIgbGVuZ3RoQWRqdXN0PSJzcGFjaW5nIiB0ZXh0TGVuZ3RoPSI2NTYiIHg9IjExOTEiIHk9IjIwNzcuNjU2MyI+TWVuZ2Vsb2xhIHBlbmlsYWlhbiBraW5lcmphIGthcnlhd2FuIGRhbiBtZW1iZXJpa2FuIGtlcHV0dXNhbiB0ZXJrYWl0IHByb21vc2kgYXRhdSBwZW1lY2F0YW4uPC90ZXh0PjxwYXRoIGQ9Ik0xMTMxLDIwNzEuOTE0MSBMMTE0MSwyMDcxLjkxNDEgQzExNTYsMjA3MS45MTQxIDExNTYsMjA3MS45MTQxIDExNzEsMjA3MS45MTQxIEwxMTgxLDIwNzEuOTE0MSAiIGZpbGw9Im5vbmUiIHN0eWxlPSJzdHJva2U6IzE4MTgxODtzdHJva2Utd2lkdGg6MS4wOyIvPjxwYXRoIGQ9Ik03NTcsMjAxNi45Mjk3IEw3NjcsMjAxNi45Mjk3IEM3ODIsMjAxNi45Mjk3IDc4MiwyMDcxLjkxNDEgNzk3LDIwNzEuOTE0MSBMODA3LDIwNzEuOTE0MSAiIGZpbGw9Im5vbmUiIHN0eWxlPSJzdHJva2U6IzE4MTgxODtzdHJva2Utd2lkdGg6MS4wOyIvPjxwYXRoIGQ9Ik01NDAsMTU3Ny4wNTQ3IEw1NTAsMTU3Ny4wNTQ3IEM1NjUsMTU3Ny4wNTQ3IDU2NSwyMDE2LjkyOTcgNTgwLDIwMTYuOTI5NyBMNTkwLDIwMTYuOTI5NyAiIGZpbGw9Im5vbmUiIHN0eWxlPSJzdHJva2U6IzE4MTgxODtzdHJva2Utd2lkdGg6MS4wOyIvPjxyZWN0IGZpbGw9IiNGMUYxRjEiIGhlaWdodD0iMzQuOTg0NCIgcng9IjEyLjUiIHJ5PSIxMi41IiBzdHlsZT0ic3Ryb2tlOiMxODE4MTg7c3Ryb2tlLXdpZHRoOjEuNTsiIHdpZHRoPSIyMjMiIHg9IjU5MCIgeT0iMjEzNi44OTg0Ii8+PHRleHQgZmlsbD0iIzAwMDAwMCIgZm9udC1mYW1pbHk9InNhbnMtc2VyaWYiIGZvbnQtc2l6ZT0iMTQiIGxlbmd0aEFkanVzdD0ic3BhY2luZyIgdGV4dExlbmd0aD0iMjAzIiB4PSI2MDAiIHk9IjIxNjAuMTMyOCI+UGVuZ2d1bmFhbiBTSVNETSBvbGVoIE1hbmFqZXI8L3RleHQ+PHJlY3QgZmlsbD0iI0YxRjFGMSIgaGVpZ2h0PSIzNC45ODQ0IiByeD0iMTIuNSIgcnk9IjEyLjUiIHN0eWxlPSJzdHJva2U6IzE4MTgxODtzdHJva2Utd2lkdGg6MS41OyIgd2lkdGg9IjIxNyIgeD0iODYzIiB5PSIyMTA5LjQwNjMiLz48dGV4dCBmaWxsPSIjMDAwMDAwIiBmb250LWZhbWlseT0ic2Fucy1zZXJpZiIgZm9udC1zaXplPSIxNCIgbGVuZ3RoQWRqdXN0PSJzcGFjaW5nIiB0ZXh0TGVuZ3RoPSIxOTciIHg9Ijg3MyIgeT0iMjEzMi42NDA2Ij5NZW5nZ3VuYWthbiBvdXRwdXQgc3Vic2lzdGVtPC90ZXh0PjxyZWN0IGZpbGw9IiNGMUYxRjEiIGhlaWdodD0iMzQuOTg0NCIgcng9IjEyLjUiIHJ5PSIxMi41IiBzdHlsZT0ic3Ryb2tlOiMxODE4MTg7c3Ryb2tlLXdpZHRoOjEuNTsiIHdpZHRoPSI3NTMiIHg9IjExMzAiIHk9IjIxMDkuNDA2MyIvPjx0ZXh0IGZpbGw9IiMwMDAwMDAiIGZvbnQtZmFtaWx5PSJzYW5zLXNlcmlmIiBmb250LXNpemU9IjE0IiBsZW5ndGhBZGp1c3Q9InNwYWNpbmciIHRleHRMZW5ndGg9IjczMyIgeD0iMTE0MCIgeT0iMjEzMi42NDA2Ij5NYW5hamVyIG1lbmdndW5ha2FuIGluZm9ybWFzaSB5YW5nIGRpaGFzaWxrYW4gb2xlaCBTSVNETSB1bnR1ayBtZW1idWF0IGtlcHV0dXNhbiBzdHJhdGVnaXMgbWVuZ2VuYWkgU0RNLjwvdGV4dD48cGF0aCBkPSJNMTA4MCwyMTI2Ljg5ODQgTDEwOTAsMjEyNi44OTg0IEMxMTA1LDIxMjYuODk4NCAxMTA1LDIxMjYuODk4NCAxMTIwLDIxMjYuODk4NCBMMTEzMCwyMTI2Ljg5ODQgIiBmaWxsPSJub25lIiBzdHlsZT0ic3Ryb2tlOiMxODE4MTg7c3Ryb2tlLXdpZHRoOjEuMDsiLz48cGF0aCBkPSJNODEzLDIxNTQuMzkwNiBMODIzLDIxNTQuMzkwNiBDODM4LDIxNTQuMzkwNiA4MzgsMjEyNi44OTg0IDg1MywyMTI2Ljg5ODQgTDg2MywyMTI2Ljg5ODQgIiBmaWxsPSJub25lIiBzdHlsZT0ic3Ryb2tlOiMxODE4MTg7c3Ryb2tlLXdpZHRoOjEuMDsiLz48cmVjdCBmaWxsPSIjRjFGMUYxIiBoZWlnaHQ9IjM0Ljk4NDQiIHJ4PSIxMi41IiByeT0iMTIuNSIgc3R5bGU9InN0cm9rZTojMTgxODE4O3N0cm9rZS13aWR0aDoxLjU7IiB3aWR0aD0iMzAwIiB4PSI4NjMiIHk9IjIxNjQuMzkwNiIvPjx0ZXh0IGZpbGw9IiMwMDAwMDAiIGZvbnQtZmFtaWx5PSJzYW5zLXNlcmlmIiBmb250LXNpemU9IjE0IiBsZW5ndGhBZGp1c3Q9InNwYWNpbmciIHRleHRMZW5ndGg9IjI4MCIgeD0iODczIiB5PSIyMTg3LjYyNSI+TWVuZHVrdW5nIGtlcHV0dXNhbiBzdHJhdGVnaXMgcGVydXNhaGFhbjwvdGV4dD48cmVjdCBmaWxsPSIjRjFGMUYxIiBoZWlnaHQ9IjM0Ljk4NDQiIHJ4PSIxMi41IiByeT0iMTIuNSIgc3R5bGU9InN0cm9rZTojMTgxODE4O3N0cm9rZS13aWR0aDoxLjU7IiB3aWR0aD0iNTYxIiB4PSIxMjEzIiB5PSIyMTY0LjM5MDYiLz48dGV4dCBmaWxsPSIjMDAwMDAwIiBmb250LWZhbWlseT0ic2Fucy1zZXJpZiIgZm9udC1zaXplPSIxNCIgbGVuZ3RoQWRqdXN0PSJzcGFjaW5nIiB0ZXh0TGVuZ3RoPSI1NDEiIHg9IjEyMjMiIHk9IjIxODcuNjI1Ij5QZW5nZ3VuYWFuIGRhdGEgU0RNIGRhbGFtIHBlbmdhbWJpbGFuIGtlcHV0dXNhbiB0ZXJrYWl0IGtlYmlqYWthbiBvcmdhbmlzYXNpLjwvdGV4dD48cGF0aCBkPSJNMTE2MywyMTgxLjg4MjggTDExNzMsMjE4MS44ODI4IEMxMTg4LDIxODEuODgyOCAxMTg4LDIxODEuODgyOCAxMjAzLDIxODEuODgyOCBMMTIxMywyMTgxLjg4MjggIiBmaWxsPSJub25lIiBzdHlsZT0ic3Ryb2tlOiMxODE4MTg7c3Ryb2tlLXdpZHRoOjEuMDsiLz48cGF0aCBkPSJNODEzLDIxNTQuMzkwNiBMODIzLDIxNTQuMzkwNiBDODM4LDIxNTQuMzkwNiA4MzgsMjE4MS44ODI4IDg1MywyMTgxLjg4MjggTDg2MywyMTgxLjg4MjggIiBmaWxsPSJub25lIiBzdHlsZT0ic3Ryb2tlOiMxODE4MTg7c3Ryb2tlLXdpZHRoOjEuMDsiLz48cGF0aCBkPSJNNTQwLDE1NzcuMDU0NyBMNTUwLDE1NzcuMDU0NyBDNTY1LDE1NzcuMDU0NyA1NjUsMjE1NC4zOTA2IDU4MCwyMTU0LjM5MDYgTDU5MCwyMTU0LjM5MDYgIiBmaWxsPSJub25lIiBzdHlsZT0ic3Ryb2tlOiMxODE4MTg7c3Ryb2tlLXdpZHRoOjEuMDsiLz48cGF0aCBkPSJNMzQzLDEzNTcuMTE3MiBMMzUzLDEzNTcuMTE3MiBDMzY4LDEzNTcuMTE3MiAzNjgsMTU3Ny4wNTQ3IDM4MywxNTc3LjA1NDcgTDM5MywxNTc3LjA1NDcgIiBmaWxsPSJub25lIiBzdHlsZT0ic3Ryb2tlOiMxODE4MTg7c3Ryb2tlLXdpZHRoOjEuMDsiLz48cmVjdCBmaWxsPSIjRjFGMUYxIiBoZWlnaHQ9IjM0Ljk4NDQiIHJ4PSIxMi41IiByeT0iMTIuNSIgc3R5bGU9InN0cm9rZTojMTgxODE4O3N0cm9rZS13aWR0aDoxLjU7IiB3aWR0aD0iMTUzIiB4PSIzOTMiIHk9IjIzNTYuODM1OSIvPjx0ZXh0IGZpbGw9IiMwMDAwMDAiIGZvbnQtZmFtaWx5PSJzYW5zLXNlcmlmIiBmb250LXNpemU9IjE0IiBsZW5ndGhBZGp1c3Q9InNwYWNpbmciIHRleHRMZW5ndGg9IjEzMyIgeD0iNDAzIiB5PSIyMzgwLjA3MDMiPlN0dWRpIEthc3VzOiBQVCBLQUk8L3RleHQ+PHJlY3QgZmlsbD0iI0YxRjFGMSIgaGVpZ2h0PSIzNC45ODQ0IiByeD0iMTIuNSIgcnk9IjEyLjUiIHN0eWxlPSJzdHJva2U6IzE4MTgxODtzdHJva2Utd2lkdGg6MS41OyIgd2lkdGg9IjIwMyIgeD0iNTk2IiB5PSIyMjE5LjM3NSIvPjx0ZXh0IGZpbGw9IiMwMDAwMDAiIGZvbnQtZmFtaWx5PSJzYW5zLXNlcmlmIiBmb250LXNpemU9IjE0IiBsZW5ndGhBZGp1c3Q9InNwYWNpbmciIHRleHRMZW5ndGg9IjE4MyIgeD0iNjA2IiB5PSIyMjQyLjYwOTQiPlBlcm1hc2FsYWhhbiBTRE0gZGkgUFQgS0FJPC90ZXh0PjxyZWN0IGZpbGw9IiNGMUYxRjEiIGhlaWdodD0iMzQuOTg0NCIgcng9IjEyLjUiIHJ5PSIxMi41IiBzdHlsZT0ic3Ryb2tlOiMxODE4MTg7c3Ryb2tlLXdpZHRoOjEuNTsiIHdpZHRoPSIzNzAiIHg9Ijg0OSIgeT0iMjIxOS4zNzUiLz48dGV4dCBmaWxsPSIjMDAwMDAwIiBmb250LWZhbWlseT0ic2Fucy1zZXJpZiIgZm9udC1zaXplPSIxNCIgbGVuZ3RoQWRqdXN0PSJzcGFjaW5nIiB0ZXh0TGVuZ3RoPSIzNTAiIHg9Ijg1OSIgeT0iMjI0Mi42MDk0Ij5EZWZpc2l0IGtldWFuZ2FuLCBlZmlzaWVuc2kgcmVuZGFoLCBrdWFsaXRhcyBidXJ1azwvdGV4dD48cmVjdCBmaWxsPSIjRjFGMUYxIiBoZWlnaHQ9IjM0Ljk4NDQiIHJ4PSIxMi41IiByeT0iMTIuNSIgc3R5bGU9InN0cm9rZTojMTgxODE4O3N0cm9rZS13aWR0aDoxLjU7IiB3aWR0aD0iNjgwIiB4PSIxMjY5IiB5PSIyMjE5LjM3NSIvPjx0ZXh0IGZpbGw9IiMwMDAwMDAiIGZvbnQtZmFtaWx5PSJzYW5zLXNlcmlmIiBmb250LXNpemU9IjE0IiBsZW5ndGhBZGp1c3Q9InNwYWNpbmciIHRleHRMZW5ndGg9IjY2MCIgeD0iMTI3OSIgeT0iMjI0Mi42MDk0Ij5QZXJtYXNhbGFoYW4geWFuZyBkaWhhZGFwaSBvbGVoIFBUIEtBSSBwYWRhIHRhaHVuIDIwMDkgeWFuZyBiZXJkYW1wYWsgcGFkYSBraW5lcmphIHBlcnVzYWhhYW4uPC90ZXh0PjxwYXRoIGQ9Ik0xMjE5LDIyMzYuODY3MiBMMTIyOSwyMjM2Ljg2NzIgQzEyNDQsMjIzNi44NjcyIDEyNDQsMjIzNi44NjcyIDEyNTksMjIzNi44NjcyIEwxMjY5LDIyMzYuODY3MiAiIGZpbGw9Im5vbmUiIHN0eWxlPSJzdHJva2U6IzE4MTgxODtzdHJva2Utd2lkdGg6MS4wOyIvPjxwYXRoIGQ9Ik03OTksMjIzNi44NjcyIEw4MDksMjIzNi44NjcyIEM4MjQsMjIzNi44NjcyIDgyNCwyMjM2Ljg2NzIgODM5LDIyMzYuODY3MiBMODQ5LDIyMzYuODY3MiAiIGZpbGw9Im5vbmUiIHN0eWxlPSJzdHJva2U6IzE4MTgxODtzdHJva2Utd2lkdGg6MS4wOyIvPjxwYXRoIGQ9Ik01NDYsMjM3NC4zMjgxIEw1NTYsMjM3NC4zMjgxIEM1NzEsMjM3NC4zMjgxIDU3MSwyMjM2Ljg2NzIgNTg2LDIyMzYuODY3MiBMNTk2LDIyMzYuODY3MiAiIGZpbGw9Im5vbmUiIHN0eWxlPSJzdHJva2U6IzE4MTgxODtzdHJva2Utd2lkdGg6MS4wOyIvPjxyZWN0IGZpbGw9IiNGMUYxRjEiIGhlaWdodD0iMzQuOTg0NCIgcng9IjEyLjUiIHJ5PSIxMi41IiBzdHlsZT0ic3Ryb2tlOiMxODE4MTg7c3Ryb2tlLXdpZHRoOjEuNTsiIHdpZHRoPSIxODIiIHg9IjU5NiIgeT0iMjMyOS4zNDM4Ii8+PHRleHQgZmlsbD0iIzAwMDAwMCIgZm9udC1mYW1pbHk9InNhbnMtc2VyaWYiIGZvbnQtc2l6ZT0iMTQiIGxlbmd0aEFkanVzdD0ic3BhY2luZyIgdGV4dExlbmd0aD0iMTYyIiB4PSI2MDYiIHk9IjIzNTIuNTc4MSI+U29sdXNpIFRyYW5zZm9ybWFzaSBTRE08L3RleHQ+PHJlY3QgZmlsbD0iI0YxRjFGMSIgaGVpZ2h0PSIzNC45ODQ0IiByeD0iMTIuNSIgcnk9IjEyLjUiIHN0eWxlPSJzdHJva2U6IzE4MTgxODtzdHJva2Utd2lkdGg6MS41OyIgd2lkdGg9IjI0OCIgeD0iODI4IiB5PSIyMjc0LjM1OTQiLz48dGV4dCBmaWxsPSIjMDAwMDAwIiBmb250LWZhbWlseT0ic2Fucy1zZXJpZiIgZm9udC1zaXplPSIxNCIgbGVuZ3RoQWRqdXN0PSJzcGFjaW5nIiB0ZXh0TGVuZ3RoPSIyMjgiIHg9IjgzOCIgeT0iMjI5Ny41OTM4Ij5Lb21pdG1lbiBtYW5hamVtZW4sIHJlb3JnYW5pc2FzaTwvdGV4dD48cmVjdCBmaWxsPSIjRjFGMUYxIiBoZWlnaHQ9IjM0Ljk4NDQiIHJ4PSIxMi41IiByeT0iMTIuNSIgc3R5bGU9InN0cm9rZTojMTgxODE4O3N0cm9rZS13aWR0aDoxLjU7IiB3aWR0aD0iNzY2IiB4PSIxMTI2IiB5PSIyMjc0LjM1OTQiLz48dGV4dCBmaWxsPSIjMDAwMDAwIiBmb250LWZhbWlseT0ic2Fucy1zZXJpZiIgZm9udC1zaXplPSIxNCIgbGVuZ3RoQWRqdXN0PSJzcGFjaW5nIiB0ZXh0TGVuZ3RoPSI3NDYiIHg9IjExMzYiIHk9IjIyOTcuNTkzOCI+TGFuZ2thaC1sYW5na2FoIHlhbmcgZGlhbWJpbCB1bnR1ayBtZW1wZXJiYWlraSBwZW5nZWxvbGFhbiBTRE0gbWVsYWx1aSBwZXJ1YmFoYW4gc3RydWt0dXJhbCBkYW4ga2ViaWpha2FuLjwvdGV4dD48cGF0aCBkPSJNMTA3NiwyMjkxLjg1MTYgTDEwODYsMjI5MS44NTE2IEMxMTAxLDIyOTEuODUxNiAxMTAxLDIyOTEuODUxNiAxMTE2LDIyOTEuODUxNiBMMTEyNiwyMjkxLjg1MTYgIiBmaWxsPSJub25lIiBzdHlsZT0ic3Ryb2tlOiMxODE4MTg7c3Ryb2tlLXdpZHRoOjEuMDsiLz48cGF0aCBkPSJNNzc4LDIzNDYuODM1OSBMNzg4LDIzNDYuODM1OSBDODAzLDIzNDYuODM1OSA4MDMsMjI5MS44NTE2IDgxOCwyMjkxLjg1MTYgTDgyOCwyMjkxLjg1MTYgIiBmaWxsPSJub25lIiBzdHlsZT0ic3Ryb2tlOiMxODE4MTg7c3Ryb2tlLXdpZHRoOjEuMDsiLz48cmVjdCBmaWxsPSIjRjFGMUYxIiBoZWlnaHQ9IjM0Ljk4NDQiIHJ4PSIxMi41IiByeT0iMTIuNSIgc3R5bGU9InN0cm9rZTojMTgxODE4O3N0cm9rZS13aWR0aDoxLjU7IiB3aWR0aD0iMzQzIiB4PSI4MjgiIHk9IjIzMjkuMzQzOCIvPjx0ZXh0IGZpbGw9IiMwMDAwMDAiIGZvbnQtZmFtaWx5PSJzYW5zLXNlcmlmIiBmb250LXNpemU9IjE0IiBsZW5ndGhBZGp1c3Q9InNwYWNpbmciIHRleHRMZW5ndGg9IjMyMyIgeD0iODM4IiB5PSIyMzUyLjU3ODEiPlBlcnViYWhhbiBrZXNlamFodGVyYWFuLCByZWtydXRtZW4gcHJvZmVzaW9uYWw8L3RleHQ+PHJlY3QgZmlsbD0iI0YxRjFGMSIgaGVpZ2h0PSIzNC45ODQ0IiByeD0iMTIuNSIgcnk9IjEyLjUiIHN0eWxlPSJzdHJva2U6IzE4MTgxODtzdHJva2Utd2lkdGg6MS41OyIgd2lkdGg9IjgyMyIgeD0iMTIyMSIgeT0iMjMyOS4zNDM4Ii8+PHRleHQgZmlsbD0iIzAwMDAwMCIgZm9udC1mYW1pbHk9InNhbnMtc2VyaWYiIGZvbnQtc2l6ZT0iMTQiIGxlbmd0aEFkanVzdD0ic3BhY2luZyIgdGV4dExlbmd0aD0iODAzIiB4PSIxMjMxIiB5PSIyMzUyLjU3ODEiPlBlcnViYWhhbiBkYWxhbSBzdHJ1a3R1ciBrZXNlamFodGVyYWFuIGthcnlhd2FuIGRhbiByZWtydXRtZW4geWFuZyBsZWJpaCBwcm9mZXNpb25hbCB1bnR1ayBtZW5kdWt1bmcgdHJhbnNmb3JtYXNpLjwvdGV4dD48cGF0aCBkPSJNMTE3MSwyMzQ2LjgzNTkgTDExODEsMjM0Ni44MzU5IEMxMTk2LDIzNDYuODM1OSAxMTk2LDIzNDYuODM1OSAxMjExLDIzNDYuODM1OSBMMTIyMSwyMzQ2LjgzNTkgIiBmaWxsPSJub25lIiBzdHlsZT0ic3Ryb2tlOiMxODE4MTg7c3Ryb2tlLXdpZHRoOjEuMDsiLz48cGF0aCBkPSJNNzc4LDIzNDYuODM1OSBMNzg4LDIzNDYuODM1OSBDODAzLDIzNDYuODM1OSA4MDMsMjM0Ni44MzU5IDgxOCwyMzQ2LjgzNTkgTDgyOCwyMzQ2LjgzNTkgIiBmaWxsPSJub25lIiBzdHlsZT0ic3Ryb2tlOiMxODE4MTg7c3Ryb2tlLXdpZHRoOjEuMDsiLz48cmVjdCBmaWxsPSIjRjFGMUYxIiBoZWlnaHQ9IjM0Ljk4NDQiIHJ4PSIxMi41IiByeT0iMTIuNSIgc3R5bGU9InN0cm9rZTojMTgxODE4O3N0cm9rZS13aWR0aDoxLjU7IiB3aWR0aD0iMjY4IiB4PSI4MjgiIHk9IjIzODQuMzI4MSIvPjx0ZXh0IGZpbGw9IiMwMDAwMDAiIGZvbnQtZmFtaWx5PSJzYW5zLXNlcmlmIiBmb250LXNpemU9IjE0IiBsZW5ndGhBZGp1c3Q9InNwYWNpbmciIHRleHRMZW5ndGg9IjI0OCIgeD0iODM4IiB5PSIyNDA3LjU2MjUiPlBlbmVyYXBhbiB0ZWtub2xvZ2kgaW5mb3JtYXNpIChTQVApPC90ZXh0PjxyZWN0IGZpbGw9IiNGMUYxRjEiIGhlaWdodD0iMzQuOTg0NCIgcng9IjEyLjUiIHJ5PSIxMi41IiBzdHlsZT0ic3Ryb2tlOiMxODE4MTg7c3Ryb2tlLXdpZHRoOjEuNTsiIHdpZHRoPSI1ODciIHg9IjExNDYiIHk9IjIzODQuMzI4MSIvPjx0ZXh0IGZpbGw9IiMwMDAwMDAiIGZvbnQtZmFtaWx5PSJzYW5zLXNlcmlmIiBmb250LXNpemU9IjE0IiBsZW5ndGhBZGp1c3Q9InNwYWNpbmciIHRleHRMZW5ndGg9IjU2NyIgeD0iMTE1NiIgeT0iMjQwNy41NjI1Ij5JbXBsZW1lbnRhc2kgc2lzdGVtIFNBUCB1bnR1ayBtZW5nZWxvbGEgU0RNIGRhbiBtZW1wZXJjZXBhdCBwcm9zZXMgYWRtaW5pc3RyYXNpLjwvdGV4dD48cGF0aCBkPSJNMTA5NiwyNDAxLjgyMDMgTDExMDYsMjQwMS44MjAzIEMxMTIxLDI0MDEuODIwMyAxMTIxLDI0MDEuODIwMyAxMTM2LDI0MDEuODIwMyBMMTE0NiwyNDAxLjgyMDMgIiBmaWxsPSJub25lIiBzdHlsZT0ic3Ryb2tlOiMxODE4MTg7c3Ryb2tlLXdpZHRoOjEuMDsiLz48cGF0aCBkPSJNNzc4LDIzNDYuODM1OSBMNzg4LDIzNDYuODM1OSBDODAzLDIzNDYuODM1OSA4MDMsMjQwMS44MjAzIDgxOCwyNDAxLjgyMDMgTDgyOCwyNDAxLjgyMDMgIiBmaWxsPSJub25lIiBzdHlsZT0ic3Ryb2tlOiMxODE4MTg7c3Ryb2tlLXdpZHRoOjEuMDsiLz48cGF0aCBkPSJNNTQ2LDIzNzQuMzI4MSBMNTU2LDIzNzQuMzI4MSBDNTcxLDIzNzQuMzI4MSA1NzEsMjM0Ni44MzU5IDU4NiwyMzQ2LjgzNTkgTDU5NiwyMzQ2LjgzNTkgIiBmaWxsPSJub25lIiBzdHlsZT0ic3Ryb2tlOiMxODE4MTg7c3Ryb2tlLXdpZHRoOjEuMDsiLz48cmVjdCBmaWxsPSIjRjFGMUYxIiBoZWlnaHQ9IjM0Ljk4NDQiIHJ4PSIxMi41IiByeT0iMTIuNSIgc3R5bGU9InN0cm9rZTojMTgxODE4O3N0cm9rZS13aWR0aDoxLjU7IiB3aWR0aD0iMTU1IiB4PSI1OTYiIHk9IjI0NjYuODA0NyIvPjx0ZXh0IGZpbGw9IiMwMDAwMDAiIGZvbnQtZmFtaWx5PSJzYW5zLXNlcmlmIiBmb250LXNpemU9IjE0IiBsZW5ndGhBZGp1c3Q9InNwYWNpbmciIHRleHRMZW5ndGg9IjEzNSIgeD0iNjA2IiB5PSIyNDkwLjAzOTEiPkRhbXBhayBUcmFuc2Zvcm1hc2k8L3RleHQ+PHJlY3QgZmlsbD0iI0YxRjFGMSIgaGVpZ2h0PSIzNC45ODQ0IiByeD0iMTIuNSIgcnk9IjEyLjUiIHN0eWxlPSJzdHJva2U6IzE4MTgxODtzdHJva2Utd2lkdGg6MS41OyIgd2lkdGg9IjMxNCIgeD0iODAxIiB5PSIyNDM5LjMxMjUiLz48dGV4dCBmaWxsPSIjMDAwMDAwIiBmb250LWZhbWlseT0ic2Fucy1zZXJpZiIgZm9udC1zaXplPSIxNCIgbGVuZ3RoQWRqdXN0PSJzcGFjaW5nIiB0ZXh0TGVuZ3RoPSIyOTQiIHg9IjgxMSIgeT0iMjQ2Mi41NDY5Ij5QZW5pbmdrYXRhbiBrdWFsaXRhcyBsYXlhbmFuIGRhbiBlZmlzaWVuc2k8L3RleHQ+PHJlY3QgZmlsbD0iI0YxRjFGMSIgaGVpZ2h0PSIzNC45ODQ0IiByeD0iMTIuNSIgcnk9IjEyLjUiIHN0eWxlPSJzdHJva2U6IzE4MTgxODtzdHJva2Utd2lkdGg6MS41OyIgd2lkdGg9IjcwMSIgeD0iMTE2NSIgeT0iMjQzOS4zMTI1Ii8+PHRleHQgZmlsbD0iIzAwMDAwMCIgZm9udC1mYW1pbHk9InNhbnMtc2VyaWYiIGZvbnQtc2l6ZT0iMTQiIGxlbmd0aEFkanVzdD0ic3BhY2luZyIgdGV4dExlbmd0aD0iNjgxIiB4PSIxMTc1IiB5PSIyNDYyLjU0NjkiPkRlbmdhbiB0cmFuc2Zvcm1hc2kgU0RNLCBQVCBLQUkgYmVyaGFzaWwgbWVuaW5na2F0a2FuIGt1YWxpdGFzIGxheWFuYW4gZGFuIGVmaXNpZW5zaSBvcGVyYXNpb25hbC48L3RleHQ+PHBhdGggZD0iTTExMTUsMjQ1Ni44MDQ3IEwxMTI1LDI0NTYuODA0NyBDMTE0MCwyNDU2LjgwNDcgMTE0MCwyNDU2LjgwNDcgMTE1NSwyNDU2LjgwNDcgTDExNjUsMjQ1Ni44MDQ3ICIgZmlsbD0ibm9uZSIgc3R5bGU9InN0cm9rZTojMTgxODE4O3N0cm9rZS13aWR0aDoxLjA7Ii8+PHBhdGggZD0iTTc1MSwyNDg0LjI5NjkgTDc2MSwyNDg0LjI5NjkgQzc3NiwyNDg0LjI5NjkgNzc2LDI0NTYuODA0NyA3OTEsMjQ1Ni44MDQ3IEw4MDEsMjQ1Ni44MDQ3ICIgZmlsbD0ibm9uZSIgc3R5bGU9InN0cm9rZTojMTgxODE4O3N0cm9rZS13aWR0aDoxLjA7Ii8+PHJlY3QgZmlsbD0iI0YxRjFGMSIgaGVpZ2h0PSIzNC45ODQ0IiByeD0iMTIuNSIgcnk9IjEyLjUiIHN0eWxlPSJzdHJva2U6IzE4MTgxODtzdHJva2Utd2lkdGg6MS41OyIgd2lkdGg9IjI1OSIgeD0iODAxIiB5PSIyNDk0LjI5NjkiLz48dGV4dCBmaWxsPSIjMDAwMDAwIiBmb250LWZhbWlseT0ic2Fucy1zZXJpZiIgZm9udC1zaXplPSIxNCIgbGVuZ3RoQWRqdXN0PSJzcGFjaW5nIiB0ZXh0TGVuZ3RoPSIyMzkiIHg9IjgxMSIgeT0iMjUxNy41MzEzIj5TaXN0ZW0gbmlsYWkgZGFuIGJ1ZGF5YSBrZXJqYSBiYXJ1PC90ZXh0PjxyZWN0IGZpbGw9IiNGMUYxRjEiIGhlaWdodD0iMzQuOTg0NCIgcng9IjEyLjUiIHJ5PSIxMi41IiBzdHlsZT0ic3Ryb2tlOiMxODE4MTg7c3Ryb2tlLXdpZHRoOjEuNTsiIHdpZHRoPSI3MjQiIHg9IjExMTAiIHk9IjI0OTQuMjk2OSIvPjx0ZXh0IGZpbGw9IiMwMDAwMDAiIGZvbnQtZmFtaWx5PSJzYW5zLXNlcmlmIiBmb250LXNpemU9IjE0IiBsZW5ndGhBZGp1c3Q9InNwYWNpbmciIHRleHRMZW5ndGg9IjcwNCIgeD0iMTEyMCIgeT0iMjUxNy41MzEzIj5QVCBLQUkgbWVuZ2Fkb3BzaSBuaWxhaS1uaWxhaSBiYXJ1IHVudHVrIG1lbmR1a3VuZyB0cmFuc2Zvcm1hc2kgZGFuIG1lbmluZ2thdGthbiBraW5lcmphIHBlcnVzYWhhYW4uPC90ZXh0PjxwYXRoIGQ9Ik0xMDYwLDI1MTEuNzg5MSBMMTA3MCwyNTExLjc4OTEgQzEwODUsMjUxMS43ODkxIDEwODUsMjUxMS43ODkxIDExMDAsMjUxMS43ODkxIEwxMTEwLDI1MTEuNzg5MSAiIGZpbGw9Im5vbmUiIHN0eWxlPSJzdHJva2U6IzE4MTgxODtzdHJva2Utd2lkdGg6MS4wOyIvPjxwYXRoIGQ9Ik03NTEsMjQ4NC4yOTY5IEw3NjEsMjQ4NC4yOTY5IEM3NzYsMjQ4NC4yOTY5IDc3NiwyNTExLjc4OTEgNzkxLDI1MTEuNzg5MSBMODAxLDI1MTEuNzg5MSAiIGZpbGw9Im5vbmUiIHN0eWxlPSJzdHJva2U6IzE4MTgxODtzdHJva2Utd2lkdGg6MS4wOyIvPjxwYXRoIGQ9Ik01NDYsMjM3NC4zMjgxIEw1NTYsMjM3NC4zMjgxIEM1NzEsMjM3NC4zMjgxIDU3MSwyNDg0LjI5NjkgNTg2LDI0ODQuMjk2OSBMNTk2LDI0ODQuMjk2OSAiIGZpbGw9Im5vbmUiIHN0eWxlPSJzdHJva2U6IzE4MTgxODtzdHJva2Utd2lkdGg6MS4wOyIvPjxwYXRoIGQ9Ik0zNDMsMTM1Ny4xMTcyIEwzNTMsMTM1Ny4xMTcyIEMzNjgsMTM1Ny4xMTcyIDM2OCwyMzc0LjMyODEgMzgzLDIzNzQuMzI4MSBMMzkzLDIzNzQuMzI4MSAiIGZpbGw9Im5vbmUiIHN0eWxlPSJzdHJva2U6IzE4MTgxODtzdHJva2Utd2lkdGg6MS4wOyIvPjxyZWN0IGZpbGw9IiNGMUYxRjEiIGhlaWdodD0iMzQuOTg0NCIgcng9IjEyLjUiIHJ5PSIxMi41IiBzdHlsZT0ic3Ryb2tlOiMxODE4MTg7c3Ryb2tlLXdpZHRoOjEuNTsiIHdpZHRoPSIyMjQiIHg9IjM5MyIgeT0iMjYwNC4yNjU2Ii8+PHRleHQgZmlsbD0iIzAwMDAwMCIgZm9udC1mYW1pbHk9InNhbnMtc2VyaWYiIGZvbnQtc2l6ZT0iMTQiIGxlbmd0aEFkanVzdD0ic3BhY2luZyIgdGV4dExlbmd0aD0iMjA0IiB4PSI0MDMiIHk9IjI2MjcuNSI+QkFCIElJSTogS2VzaW1wdWxhbiBkYW4gU2FyYW48L3RleHQ+PHJlY3QgZmlsbD0iI0YxRjFGMSIgaGVpZ2h0PSIzNC45ODQ0IiByeD0iMTIuNSIgcnk9IjEyLjUiIHN0eWxlPSJzdHJva2U6IzE4MTgxODtzdHJva2Utd2lkdGg6MS41OyIgd2lkdGg9IjkxIiB4PSI2NjciIHk9IjI1NzYuNzczNCIvPjx0ZXh0IGZpbGw9IiMwMDAwMDAiIGZvbnQtZmFtaWx5PSJzYW5zLXNlcmlmIiBmb250LXNpemU9IjE0IiBsZW5ndGhBZGp1c3Q9InNwYWNpbmciIHRleHRMZW5ndGg9IjcxIiB4PSI2NzciIHk9IjI2MDAuMDA3OCI+S2VzaW1wdWxhbjwvdGV4dD48cmVjdCBmaWxsPSIjRjFGMUYxIiBoZWlnaHQ9IjM0Ljk4NDQiIHJ4PSIxMi41IiByeT0iMTIuNSIgc3R5bGU9InN0cm9rZTojMTgxODE4O3N0cm9rZS13aWR0aDoxLjU7IiB3aWR0aD0iMzIyIiB4PSI4MDgiIHk9IjI1NDkuMjgxMyIvPjx0ZXh0IGZpbGw9IiMwMDAwMDAiIGZvbnQtZmFtaWx5PSJzYW5zLXNlcmlmIiBmb250LXNpemU9IjE0IiBsZW5ndGhBZGp1c3Q9InNwYWNpbmciIHRleHRMZW5ndGg9IjMwMiIgeD0iODE4IiB5PSIyNTcyLjUxNTYiPlNJU0RNIG1lbmR1a3VuZyBlZmlzaWVuc2kgZGFuIGtlcHV0dXNhbiBTRE08L3RleHQ+PHJlY3QgZmlsbD0iI0YxRjFGMSIgaGVpZ2h0PSIzNC45ODQ0IiByeD0iMTIuNSIgcnk9IjEyLjUiIHN0eWxlPSJzdHJva2U6IzE4MTgxODtzdHJva2Utd2lkdGg6MS41OyIgd2lkdGg9IjYxMiIgeD0iMTE4MCIgeT0iMjU0OS4yODEzIi8+PHRleHQgZmlsbD0iIzAwMDAwMCIgZm9udC1mYW1pbHk9InNhbnMtc2VyaWYiIGZvbnQtc2l6ZT0iMTQiIGxlbmd0aEFkanVzdD0ic3BhY2luZyIgdGV4dExlbmd0aD0iNTkyIiB4PSIxMTkwIiB5PSIyNTcyLjUxNTYiPlNpc3RlbSBpbmkgbWVtYmFudHUgb3JnYW5pc2FzaSBtZW5nZWxvbGEgU0RNIGRlbmdhbiBsZWJpaCBlZmlzaWVuIGRhbiBiZXJiYXNpcyBkYXRhLjwvdGV4dD48cGF0aCBkPSJNMTEzMCwyNTY2Ljc3MzQgTDExNDAsMjU2Ni43NzM0IEMxMTU1LDI1NjYuNzczNCAxMTU1LDI1NjYuNzczNCAxMTcwLDI1NjYuNzczNCBMMTE4MCwyNTY2Ljc3MzQgIiBmaWxsPSJub25lIiBzdHlsZT0ic3Ryb2tlOiMxODE4MTg7c3Ryb2tlLXdpZHRoOjEuMDsiLz48cGF0aCBkPSJNNzU4LDI1OTQuMjY1NiBMNzY4LDI1OTQuMjY1NiBDNzgzLDI1OTQuMjY1NiA3ODMsMjU2Ni43NzM0IDc5OCwyNTY2Ljc3MzQgTDgwOCwyNTY2Ljc3MzQgIiBmaWxsPSJub25lIiBzdHlsZT0ic3Ryb2tlOiMxODE4MTg7c3Ryb2tlLXdpZHRoOjEuMDsiLz48cmVjdCBmaWxsPSIjRjFGMUYxIiBoZWlnaHQ9IjM0Ljk4NDQiIHJ4PSIxMi41IiByeT0iMTIuNSIgc3R5bGU9InN0cm9rZTojMTgxODE4O3N0cm9rZS13aWR0aDoxLjU7IiB3aWR0aD0iMzkyIiB4PSI4MDgiIHk9IjI2MDQuMjY1NiIvPjx0ZXh0IGZpbGw9IiMwMDAwMDAiIGZvbnQtZmFtaWx5PSJzYW5zLXNlcmlmIiBmb250LXNpemU9IjE0IiBsZW5ndGhBZGp1c3Q9InNwYWNpbmciIHRleHRMZW5ndGg9IjM3MiIgeD0iODE4IiB5PSIyNjI3LjUiPlBlbnRpbmdueWEgcGVuZ2d1bmFhbiB0ZWtub2xvZ2kgZGFsYW0gcGVuZ2Vsb2xhYW4gU0RNPC90ZXh0PjxyZWN0IGZpbGw9IiNGMUYxRjEiIGhlaWdodD0iMzQuOTg0NCIgcng9IjEyLjUiIHJ5PSIxMi41IiBzdHlsZT0ic3Ryb2tlOiMxODE4MTg7c3Ryb2tlLXdpZHRoOjEuNTsiIHdpZHRoPSI3NjAiIHg9IjEyNTAiIHk9IjI2MDQuMjY1NiIvPjx0ZXh0IGZpbGw9IiMwMDAwMDAiIGZvbnQtZmFtaWx5PSJzYW5zLXNlcmlmIiBmb250LXNpemU9IjE0IiBsZW5ndGhBZGp1c3Q9InNwYWNpbmciIHRleHRMZW5ndGg9Ijc0MCIgeD0iMTI2MCIgeT0iMjYyNy41Ij5UZWtub2xvZ2kgaW5mb3JtYXNpIG1lbXVkYWhrYW4gcGVuZ2Vsb2xhYW4gU0RNLCBtZW5pbmdrYXRrYW4gYWt1cmFzaSBkYW4ga2VjZXBhdGFuIHBlbmdhbWJpbGFuIGtlcHV0dXNhbi48L3RleHQ+PHBhdGggZD0iTTEyMDAsMjYyMS43NTc4IEwxMjEwLDI2MjEuNzU3OCBDMTIyNSwyNjIxLjc1NzggMTIyNSwyNjIxLjc1NzggMTI0MCwyNjIxLjc1NzggTDEyNTAsMjYyMS43NTc4ICIgZmlsbD0ibm9uZSIgc3R5bGU9InN0cm9rZTojMTgxODE4O3N0cm9rZS13aWR0aDoxLjA7Ii8+PHBhdGggZD0iTTc1OCwyNTk0LjI2NTYgTDc2OCwyNTk0LjI2NTYgQzc4MywyNTk0LjI2NTYgNzgzLDI2MjEuNzU3OCA3OTgsMjYyMS43NTc4IEw4MDgsMjYyMS43NTc4ICIgZmlsbD0ibm9uZSIgc3R5bGU9InN0cm9rZTojMTgxODE4O3N0cm9rZS13aWR0aDoxLjA7Ii8+PHBhdGggZD0iTTYxNywyNjIxLjc1NzggTDYyNywyNjIxLjc1NzggQzY0MiwyNjIxLjc1NzggNjQyLDI1OTQuMjY1NiA2NTcsMjU5NC4yNjU2IEw2NjcsMjU5NC4yNjU2ICIgZmlsbD0ibm9uZSIgc3R5bGU9InN0cm9rZTojMTgxODE4O3N0cm9rZS13aWR0aDoxLjA7Ii8+PHJlY3QgZmlsbD0iI0YxRjFGMSIgaGVpZ2h0PSIzNC45ODQ0IiByeD0iMTIuNSIgcnk9IjEyLjUiIHN0eWxlPSJzdHJva2U6IzE4MTgxODtzdHJva2Utd2lkdGg6MS41OyIgd2lkdGg9IjU1IiB4PSI2NjciIHk9IjI2NTkuMjUiLz48dGV4dCBmaWxsPSIjMDAwMDAwIiBmb250LWZhbWlseT0ic2Fucy1zZXJpZiIgZm9udC1zaXplPSIxNCIgbGVuZ3RoQWRqdXN0PSJzcGFjaW5nIiB0ZXh0TGVuZ3RoPSIzNSIgeD0iNjc3IiB5PSIyNjgyLjQ4NDQiPlNhcmFuPC90ZXh0PjxyZWN0IGZpbGw9IiNGMUYxRjEiIGhlaWdodD0iMzQuOTg0NCIgcng9IjEyLjUiIHJ5PSIxMi41IiBzdHlsZT0ic3Ryb2tlOiMxODE4MTg7c3Ryb2tlLXdpZHRoOjEuNTsiIHdpZHRoPSI0NDIiIHg9Ijc3MiIgeT0iMjY1OS4yNSIvPjx0ZXh0IGZpbGw9IiMwMDAwMDAiIGZvbnQtZmFtaWx5PSJzYW5zLXNlcmlmIiBmb250LXNpemU9IjE0IiBsZW5ndGhBZGp1c3Q9InNwYWNpbmciIHRleHRMZW5ndGg9IjQyMiIgeD0iNzgyIiB5PSIyNjgyLjQ4NDQiPlBlcnVzYWhhYW4gbWVtYnV0dWhrYW4gU0lTRE0gdW50dWsgdGF0YSBrZWxvbGEgU0RNIHlhbmcgYmFpazwvdGV4dD48cmVjdCBmaWxsPSIjRjFGMUYxIiBoZWlnaHQ9IjM0Ljk4NDQiIHJ4PSIxMi41IiByeT0iMTIuNSIgc3R5bGU9InN0cm9rZTojMTgxODE4O3N0cm9rZS13aWR0aDoxLjU7IiB3aWR0aD0iNzIyIiB4PSIxMjY0IiB5PSIyNjU5LjI1Ii8+PHRleHQgZmlsbD0iIzAwMDAwMCIgZm9udC1mYW1pbHk9InNhbnMtc2VyaWYiIGZvbnQtc2l6ZT0iMTQiIGxlbmd0aEFkanVzdD0ic3BhY2luZyIgdGV4dExlbmd0aD0iNzAyIiB4PSIxMjc0IiB5PSIyNjgyLjQ4NDQiPlNldGlhcCBwZXJ1c2FoYWFuIHBlcmx1IG1lbmdndW5ha2FuIFNJU0RNIHVudHVrIG1lbmdlbG9sYSBTRE0gc2VjYXJhIGxlYmloIGVmaXNpZW4gZGFuIHRlcm9yZ2FuaXNpci48L3RleHQ+PHBhdGggZD0iTTEyMTQsMjY3Ni43NDIyIEwxMjI0LDI2NzYuNzQyMiBDMTIzOSwyNjc2Ljc0MjIgMTIzOSwyNjc2Ljc0MjIgMTI1NCwyNjc2Ljc0MjIgTDEyNjQsMjY3Ni43NDIyICIgZmlsbD0ibm9uZSIgc3R5bGU9InN0cm9rZTojMTgxODE4O3N0cm9rZS13aWR0aDoxLjA7Ii8+PHBhdGggZD0iTTcyMiwyNjc2Ljc0MjIgTDczMiwyNjc2Ljc0MjIgQzc0NywyNjc2Ljc0MjIgNzQ3LDI2NzYuNzQyMiA3NjIsMjY3Ni43NDIyIEw3NzIsMjY3Ni43NDIyICIgZmlsbD0ibm9uZSIgc3R5bGU9InN0cm9rZTojMTgxODE4O3N0cm9rZS13aWR0aDoxLjA7Ii8+PHBhdGggZD0iTTYxNywyNjIxLjc1NzggTDYyNywyNjIxLjc1NzggQzY0MiwyNjIxLjc1NzggNjQyLDI2NzYuNzQyMiA2NTcsMjY3Ni43NDIyIEw2NjcsMjY3Ni43NDIyICIgZmlsbD0ibm9uZSIgc3R5bGU9InN0cm9rZTojMTgxODE4O3N0cm9rZS13aWR0aDoxLjA7Ii8+PHBhdGggZD0iTTM0MywxMzU3LjExNzIgTDM1MywxMzU3LjExNzIgQzM2OCwxMzU3LjExNzIgMzY4LDI2MjEuNzU3OCAzODMsMjYyMS43NTc4IEwzOTMsMjYyMS43NTc4ICIgZmlsbD0ibm9uZSIgc3R5bGU9InN0cm9rZTojMTgxODE4O3N0cm9rZS13aWR0aDoxLjA7Ii8+PCEtLVNSQz1bYkxkUlJqbjY0ZHROTF9JWlJPbTdpY0M0NnhyaXZETGM4eWszMjF1YjItSWpIc29IQkx2MWljdEN0LVRLTFRfODZHaTk0NFNwUDdUck5Ld1Rna2h2VVBockVCVXNBcmV6TkJuSFVwbERmYk10dExDX2pkZ29Ra19RV25kTFpKdmdqVEVUY3duTWhfUXQtdmxUd3VpdFJ6SGpPUmhQcGRoMm9yZXRraUIzRC1nSkFybnB6UlU0cVZldHdqdnFoaDdKNVB3RWZIeERONmJyVk5KZ09SSDdsRDJUTnRWSkp3UjN3bFBXeUx6TnVXbmpkcm5IczR4endRaEhSakgtay0gLWRaVGZqenhVb3Z4UVJlMjdFa2JCdFZNRGRLdFVzTGxVWmRkS0JES1d5NTFrWF9aWnhPbnZxdlJlaHpWeG90S3phdjFzTWFlZ2J4azBqamQxX1RCS1JiSVJCMXpDVEpNQ2MzSnJMY3ptR3BMOGp6aGY3RlRIT0M5bEh1am1RX2dYS1JHUFRRRk5XQWhtZnk2eW9oVERnaTlNa3JMNXQ5TXFqUzFHLTVQM1JxZFRfNjBqcDlISW1kVHNvTFd6ZFAxVmlpWTZ3cDVrT2hzR2gzWjNFYUc3emcxbE1mVE1hQXB4SV9yUElwY2haUkhUVFZqTVo3bDNHR01vajlkbUoyLWxIcGwxXzJyNm1wdExCSm00VTVNcUNpaVdzUjFscXAza1dabnBLRk1heU9ZckQ5eE8wT092VWlqbGc3YjRWTkp0UjlyOTdWUnAtZzZ3bHc5VzJpTXJXQTJsdjZRUUZ3Z0RmUzVmbUpPQmhQMHd3ckZaUkR1MEZoQVY3ZjlOaTlabUlDZzMxaW91aUwwcVJNR05Ia2gybWFRSHhIeTBBeXdXaGlPQTVBUW14czBRSGloTGZVbGgwSzRENFJCcUxkTm1jZkhENDZCQUdGN1IwYXFhSGlGa2NCd3ROeEk1eVhwRlFtSTZNVDNZR0xEa0VaV1RpSXB3RjBtQ3hJRGU0dktRanA5RVRoOTYwY0lTSnQ0WVF5MkJuWXZ4Q3gyRE1RZEFGYy0yUncxblFnV2lzU1BCNEJvWm4wd21EY0syMEM4WlIxMG5yZ2VVU3BhdW1QdUQzQWsyQ3ZPOVhpNExDVmk1OVBtb01GVHVRM2M2bzZVZ1RVRWg0R0pyN0VfU0ZwOW9qQWxLcFRESTdZU0hrczQtdlI3MzlLTl9aVjZQX0RrUTBGN2o0SGl3STdMelN3eVpZZE0xMDNCV1VqMDlKQVFSTlZ0bGJ4ZDZVeGV1dzgxa1VVLW1GWkJnb1JmMlJKdlFvTTh3N1FaeERsRFVteUh6bi1aUGZ5V0hGYTZzcFVxUXdZOHRhczF3SE13aHUydy1LUHZ1T3lhWUEwRDRVQWU2ZzJtaW9yN09icXA0WEN6ckMwVV9NQV9JSDA4VXFyczhkU3FVb2pBR1Nxb2tqeGFUbXJoSFNkLUdZQ2wyaHVrWUd0NlQ5M282TVVoYktKMjkxa2dMQzlTbTJObkgwcHhqWXVJeGRfWHFJbE5FTHpIcFQ0ZTlnQVpQTEc5cmk4Wm9IdEp2SjRhbG12amZ5MHpBV2xPQmltaEhXSmkteUlUdmZXN1RpNDRIaVdvdVQ3NS1CT1R5MHAyY0lpVDZwX0tlNXQ2a3JvdFdOOEY2bllyZTUxV3YyMURZbjY5SWM4cnVPNmk2YUhtR3l3M2ZXMzYyU1RMSWZITVFycmlGQzVub1hUVHVNdVYtdDJXQ0xCb3ZGLWI1cDc3RlBnMEdlUElNYWlFSEs0QldZTzR6NWpkMGFSeTBMbUF0RFRFM0F4cEVCZVo4dzhadGVXeUVMaGZoMGpzOWk4M205SVNaT3FlNkdjZmhJWTRCUk1COWJ1LWpOZXVULWg3RU0yVXVFZkpfMkJLM0x3Y1BQNlFYSVR4MW5KQ05YdEZSYUx6N3NYRXpPcG9vbnJsbWRhUHVxbDlzUmMxeWxBUDVwR2QzWlE2ZXVCcWRka1h0QlhUejFTSU1FcXhLUnIyMHZwRHo3M244YTBWbzdfSUttdzZpajVaYnl6Wk1YRFdWT01xYm8tUGdxWlI0aVI2N2hnNEczXzVVQmFrTHg2Z2V6OG5Ua0EwNzNjMDNFeGF0LUphYk02eFg0anVGRGRNYmN6MXh5Y0xLRmNIMkliUnN5VDRReFU0VE8wSFZDZy1BS2tXOUlkX3IxWlR5OWFtSWRmRk05ZlBEeG9lZWdYelRRNW9zYm15b21jWHR3NzdCbXNPMkxsWW9KZGgyenJkUGM5T0V1b1hzU1p5eHVoNS1HWmY5VXNlTUYwYkxjTzVlbU1ncGxlSWlKNkMwOUxGeHdrR1RQaWZMaEk2eTJtN3BTa09xSklpaXg4OVkzTldJNUlPZUo2WFBmMFlheUJjUllCa09SSzRVMHZQQUtTU19Ca1BVc24yWUE5YVk0Q1ZNdzlvYVQteHlZYUFrd01ySmZxRExZbW5OSkJqZ2pvM091VC1leHRMWHpNWktKNV8xMlppVTZkQzRZX0VDSFcybWFDcVZ4M0h0NXgwRFNjcTBNcDFDSE8ycVZlM2xNbkpEWElFbzFSMWNUcEpFMU0tbTh3aUJvY2VmTi1VUmdHNlhoQ2kxaDM3bXJicXA3cTZCYmFEOVZUSlRiUlJmTndKU3RVelMwaDdYQ0RBc09heURDRFhEeVE2WDk4S25RSkd1SjFVYWJaWmxqenl6OGJWYVdoZG9YbHJXSmxqaHJYTWRvbUV4VE9HaHI3dmkybkRPam1KTFdDLWtPOHhhNVFxTC1fTkF4Sm5JU3MyQjRFWjBsM21TRGlyRGpkRUhrZzBRS19qakttWDVkOWU3ZUc0d05NMUtaay1kNnFKZHpxVEhTOEZvc3huVXFkNmNvblp1U1ZPa1lyRFhkeV9zSmF0Y2NYaWo2djg4T0dHcjdlMm5WTG1RcTJJRUV4RDJDUFpHc1pvT3hEMGs4ODJscnlKNzNVVS02YXJ1Z3VZUFpVaXN5NWJPNWZVejM5VkhJd2FNVE0tWnFwMUFXQkhEZ2czdzVnUlVueV9IS2t1Nkw3UFhrdGQwcjR0MHNIQW1reU5tc1ZUZWJkOUZseVozR1E0SVl2dEhBOE1FVVVUT0xiU0xMMlFKaDVaSHN6dGNaZFc3eV9zWUVvaDQ3NTNzUVB6alptUDVxY1l4RVFrWmhjWHFMM09pV216Z3hIZTFxQ0Y5amFkYzNhb3pZUmdNMzMtZ0Q0dlRhLVNYTWZRUGhGTnVadGNidndmM1pQR3dwVUhkdG96TEdjNENKOHFIR0hzSzI1RXZKQkxscU0xdmFjd3AzZWlfU0RUNzdnU1V5cnQwek43Qi0yTi1jemkxdE5OTk1PZG9kdk9leTd2Z1pzRm51and4aHA4akRMOGlNb2tOcEQ1MC1oZXdVUVVWQ2Z0MU95cnVGUDZncFYxbHhqZ1U5akNMdy1abG1QU21TYlRoNURjUDhVc3FkeklvZXU2akxjOEpFUzk0U0d6VGdCWHRYT3hTUUxiTlZjQ2d0VzZGaTh5ZjBvM3FwMjZnQ2Z2R3VmOE0xRElyVHRweFBjQVB5WDlvTXZaWjdYSmdlZGhnS0VDR2J4RV9FeTZ4UVM3QmphdmN1NlhsRUx4WldEYTM4RmtpYnhkWEtzeXlFTFVTRUpTVTRVVXIxdEx0VlViLWMtcFpiMXl0cU1jUXZZR0t4cHFGZjhjWmFZeTBEOWNZYTBiel9PZ3doSy1lY21UNlI2M1FqLTU4RUtOb3pJWXJ6Znp2Vk5sdUtvcU8xcUVmUU5XVnFoME9IalBTaG5HVG1uOUhyeHc4dS1aU3hLb2M4SE00M1hQRE5sOWdWY1VVaGp1dHkzUGdvWHJFYWtMLVlwNXNMbzVIa2VUZzFKUEtSS25Wa1ZzRDBPWnc1WEdpazl6c2VZZjcyV0Z3SmNJbnJiQ2NOVmZGbDFscVBndGdtb0F1YUJzazNDejRkX1MyU2tKNGJsdjRCd0NJZ0FLTFV4UV9sTnVTVWVIc3VZUGR2b2JTQTJMdmRfUGpHV2swdXpBYnliblY2WHRvR2FWWlUyMFJvLTJQSVlXSy1XQXoxdHpwZlNEcndUZllQTHFaUDExSm9uR1dvVktNVEJ1Zk1GSXBHdWlwYkZHQXA3WXktRUJ3amJLZjlOTmE4ZzFuQlZqNTVGcTBPeHRhaEVzZFhZLTQ5Ykl6SnpNb0EtMGtRc29qclh3WGRqbjl4LVlMMW5mcHV1YzhuTGVMWmF4ZDVXZDJvR0lubDZfbWJxZ0JlQk04bFdKV1QzcXlkQzB2cGs3eER4WVRWQkYxZGhnQ0pPNmJPQkVIZFd6TWNwVEFSLVNuSjZxUWZ0X0VUa3lsZUp5YkxZTzJLMjFKcUVYT2cyVWhDcnV4OUFTOXZ1OVZXS09FNlZTWFlJSHlSandYS29yQUtrdFhuTXh3UW02REZqeHR1Nkk0RUZyYlV0Q0VjLVZWVFBfS0xlb25yWGstc3hvX1ZWelgtVUJMN1didUZleGh5S1J0eFNGTjMzclZsQnpOX1RXLUFOaC0gLSAtQUlfUWxLNU1qWk1OQWRWdUE1RkR0VlhXVmZsenpNRVZLVXFTRjdmWnJyUXlFRTdqbnpIS19QY243ZGdaenE1Z2Vuc3BPbVRadHQxRnFkLV9sM0JzdHpUNDNpeE5LQXN3SXgtcXFGa1VDSXhfTHkwXS0tPjwvZz48L3N2Zz4=;" vertex="1" parent="1">
            <mxGeometry x="950" y="-1430" width="2056" height="2716" as="geometry" />
          </mxCell>
        </UserObject>
      </root>
    </mxGraphModel>
  </diagram>
</mxfile>
